<?xml version="1.0" standalone="no"?>
<!DOCTYPE svg PUBLIC "-//W3C//DTD SVG 1.1//EN" "http://www.w3.org/Graphics/SVG/1.1/DTD/svg11.dtd" >
<svg xmlns="http://www.w3.org/2000/svg">
<metadata></metadata>
<defs>
<font id="bubble_1om_bubble_1" horiz-adv-x="1294" >
<font-face units-per-em="2048" ascent="1638" descent="-410" />
<missing-glyph horiz-adv-x="1024" />
<glyph horiz-adv-x="0" />
<glyph unicode="&#xd;" horiz-adv-x="1024" />
<glyph unicode=" "  horiz-adv-x="1024" />
<glyph unicode="&#x09;" horiz-adv-x="1024" />
<glyph unicode="&#xa0;" horiz-adv-x="1024" />
<glyph unicode="!" horiz-adv-x="776" d="M59 1247q0 84 19.5 160t68.5 154q39 61 111 95t150 34q90 0 168.5 -40t121.5 -116q33 -59 48.5 -131t15.5 -146q0 -86 -19 -215q-43 -299 -43 -403q0 -113 8.5 -193.5t18.5 -154.5q0 -33 -29 -76q-61 -84 -121.5 -168t-152.5 -84q-90 0 -191 86q-80 68 -102 97.5 t-22 76.5q10 94 18 203t8 201q0 125 -38 330.5t-38 289.5zM156 449q4 -31 7 -66t9 -66.5t14.5 -68.5t31 -80t52 -71t43.5 -42l113 -61q-33 39 -49 59q-49 61 -70.5 95t-87.5 169q-20 45 -63 132zM186 -412q0 100 64 179q25 29 69 47q47 14 93 14q96 0 174 -49 q35 -25 50 -54.5t15 -72.5q-6 -55 -33 -96q-20 -37 -73 -62l-99 -35q-47 -12 -90 -12q-31 0 -47 2t-51 14q-72 25 -72 125zM383 1669q66 -41 98 -65q102 -74 127 -113q35 -57 80 -188q14 -43 37 -121q0 43 -1 88t-8 89t-32 101q-16 39 -29 60q-18 33 -53 61q-8 8 -65 47 q-20 14 -91 29q-23 4 -63 12zM418 -225l53 -23q23 -8 44.5 -34.5t21.5 -53.5q0 -12 14 -12t24.5 10.5t10.5 26.5q-12 37 -41 65l-25 17l-57 20q-6 2 -13.5 2h-9.5q-8 0 -20 -4z" />
<glyph unicode="&#x22;" horiz-adv-x="915" d="M25 1724q0 72 55 107q78 45 147 45q70 0 148 -45q57 -35 57 -115q0 -102 -96 -268q-31 -55 -96 -145q-72 94 -107 149q-109 172 -108 272zM176 1841q35 -12 53 -18q57 -23 84 -52.5t45 -99.5q6 -23 13 -63q10 25 14 39q14 46 10 73q-8 51 -51 88q-23 20 -52.5 28.5 t-64.5 8.5zM508 1724q0 72 55 107q78 45 148 45q69 0 147 -45q57 -35 57 -115q0 -102 -96 -268q-31 -55 -96 -145q-72 94 -107 149q-109 172 -108 272zM659 1841q35 -12 54 -18q57 -23 83.5 -52.5t45.5 -99.5q6 -23 12 -63q10 25 14 39q15 46 11 73q-8 51 -52 88 q-23 20 -52.5 28.5t-63.5 8.5z" />
<glyph unicode="#" horiz-adv-x="2320" d="M63 1186q0 31 37 67q51 51 137.5 74t196.5 23q86 0 207 -11q291 -25 375 -24q98 0 217 10q287 25 342 25q131 0 226 -27.5t179 -101.5q41 -39 41 -74q0 -41 -45 -68q-68 -39 -153.5 -56t-184.5 -17q-55 0 -372 26q-145 12 -246 12q-102 0 -297 -16t-279 -16 q-115 0 -186.5 16t-128.5 64q-66 55 -66 94zM68 391q0 29 36 66q51 51 137.5 73.5t196.5 22.5q86 0 207 -10q291 -25 375 -25q100 0 219 10q287 25 340 25q133 0 228.5 -27.5t177.5 -101.5q43 -37 43 -74q0 -16 -7 -28q-12 -20 -41 -37q-70 -41 -154.5 -58.5t-187.5 -17.5 q-55 0 -370 27q-145 12 -244 12q-100 0 -297 -16.5t-278 -16.5q-115 0 -187 16.5t-127 63.5q-35 31 -51 52.5t-16 43.5zM115 389q0 -31 59 -74q33 -27 53 -34q37 -10 68 -18.5t54.5 -9.5t43.5 -1q-74 20 -110 35q-111 43 -111 86q-4 47 35 100q12 16 41 43q-33 -23 -51 -35 q-55 -39 -68.5 -58.5t-13.5 -33.5zM119 1186q0 -8 4 -21q20 -43 63 -65q31 -16 97 -31q31 -8 53 -10t53 -2h44t50 2q43 6 97 18q10 2 26 8h-18.5h-26.5q-94 0 -171 8.5t-144 41.5q-49 23 -80 71q-10 16 -23 47q-8 -14 -12 -22q-12 -27 -12 -45zM399 180q0 115 78 301 q106 256 129 336q59 293 88 420q53 221 172 326q51 45 121 45q60 0 78 -45q6 -14 8 -32t2 -44q0 -109 -123 -404q-80 -190 -108.5 -292.5t-57.5 -335.5q-41 -338 -170 -475q-27 -29 -69 -29q-39 0 -72 20.5t-48 58.5t-21.5 72.5t-6.5 77.5zM444 106l13 -26q16 -31 30 -49 l17 -17q18 -16 35 -22q23 -6 36 1t62 56q23 20 43 64q6 14 16 39q-29 -41 -47 -60q-55 -57 -102 -51q-33 2 -70 33q-12 10 -33 32zM539 580q31 41 47 65q51 78 67 129q8 27 12.5 82t4.5 88v33v14l-8 -63q-6 -29 -11.5 -57.5t-15.5 -63.5t-17.5 -55.5t-31.5 -75.5zM909 1554 q20 -2 42 -4t35 -15t22.5 -57t9.5 -116v-21.5v-5.5l16 78q4 35 10 70q0 19 -8 35q-6 12 -10 24q-10 20 -29 31q-18 8 -55 -4q-10 -4 -33 -15zM1038 176q0 115 76 299q109 268 129 336q59 293 88 422q51 223 170 326q23 20 55.5 32.5t65.5 12.5q66 -1 80 -48q6 -14 8 -31.5 t2 -43.5q0 -109 -123 -404q-80 -190 -107.5 -290.5t-58.5 -337.5q-43 -334 -170 -474q-27 -29 -69 -28q-39 0 -72 20.5t-47 57.5q-27 68 -27 151zM1081 102q8 -18 13 -28q14 -31 30.5 -49.5t23.5 -24.5t26 -10q29 -8 55 10q8 6 47 45q18 18 41 61q6 12 18 39 q-29 -37 -47 -55q-57 -55 -108 -55q-29 0 -66 33q-12 10 -33 34zM1184 565q29 41 45 66q49 78 67 131q10 35 13.5 90t3.5 80v33v16l-8 -68q-8 -57 -11 -67q-8 -29 -14 -51.5t-23.5 -63.5t-27.5 -67zM1466 481q49 -4 80 -6q186 -23 289 -69q49 -23 80 -66q10 -14 20 -41 q0 4 2 8q23 48 23 68q-4 51 -78 74q-41 10 -75.5 22t-64.5 16.5t-63 4.5q-23 0 -43 -1.5t-37 -1.5q-45 0 -78.5 -2t-54.5 -6zM1546 1550q18 -2 40 -4t39 -17.5t24.5 -62.5t7.5 -92v-19t3 6t5 19q10 40 12 54q4 29 4 39q0 18 -9 43.5t-16 35t-18.5 14.5t-27.5 5 q-25 0 -51 -12q-4 -2 -13 -9zM1708 1315q57 -10 86 -25q90 -43 121 -133q16 -43 -49 -82q-20 -12 -70 -31q18 0 39 3q105 24 125 79q4 8 4 16.5v12.5q0 31 -31 68q-20 25 -38.5 36t-49 24t-88.5 24q-16 2 -49 8z" />
<glyph unicode="$" horiz-adv-x="1746" d="M29 393q0 98 41 139q33 33 102 33q16 0 111 -10q37 -4 71 -4l748 -39q-10 4 -28.5 13.5t-160.5 95.5l64 378q78 -31 148.5 -59.5t152.5 -65.5q184 -86 242 -135q84 -72 84 -184q0 -23 -2 -35q0 -133 -97 -194q-35 -23 -207 -101q-88 -39 -166.5 -54t-166.5 -15 q-16 0 -344 20q-164 10 -306 10q-23 0 -67.5 -4t-65.5 -4q-76 0 -108 37q-45 49 -45 178zM45 1241q0 23 3 57.5t14.5 106.5t207.5 139q217 74 541 74q178 0 357.5 -21.5t394.5 -72.5q94 -23 132 -47.5t38 -61.5q0 -25 -20.5 -59.5t-61.5 -87.5q-20 -29 -58.5 -41.5 t-85.5 -12.5q-43 0 -293 43q-119 20 -192 21q-141 0 -363 -43q-74 -14 -196 -45q45 -20 82 -35q55 -23 133 -47l-60 -346l-57 24q-10 4 -160 48q-188 55 -264 159q-51 70 -71.5 123t-20.5 125zM53 387q0 -14 1 -39.5t16.5 -56.5t25.5 -42t26.5 -21.5t102.5 -18.5t176 -8 h134.5h87.5q-139 12 -213 20q-223 27 -258 58q-41 37 -74 75q-10 12 -25 33zM88 1239q0 -33 5 -53.5t20.5 -62.5t52.5 -95q12 -16 35 -47q-25 53 -35 86q-37 104 -37 174q2 18 2 27q8 70 92 168q27 31 84 84q-29 -14 -45 -23q-47 -25 -74 -51q-43 -39 -65.5 -74t-28.5 -68.5 t-6 -64.5zM455 -145q2 12 2 18l53 315l326 -26l-52 -326q-8 -59 -53 -94t-108 -35q-20 0 -31 2q-55 8 -96 50t-41 96zM492 -139q0 -20 10 -41q23 -49 71 -66q6 -2 20.5 -3t29.5 -3h20t14 2q-25 10 -36 17q-43 20 -60 40q-25 29 -39 125q-4 31 -10 88l-14 -100q-6 -43 -6 -59 zM571 530l123 715l338 45l-133 -776zM762 1612l39 246q8 53 56 79.5t114 26.5q20 -2 30 -2q96 -12 125 -123l-43 -242zM805 1704q10 33 18 51q47 115 97 135q18 8 48.5 13.5t51.5 5.5h19.5t13.5 -2q-18 8 -29 12q-35 12 -57 12q-35 0 -50.5 -3t-38 -19.5t-32.5 -42 t-18.5 -48t-13.5 -54t-9 -60.5zM860 537l37 194l27 141l30 164l27 203q-18 -74 -29 -119q-35 -147 -48 -228t-36 -278q-2 -31 -8 -77zM975 1577q193 -33 291 -53q297 -61 321 -103q10 -18 14.5 -35.5t4.5 -33.5q0 -23 -4.5 -36t-10.5 -26q18 10 27 17q29 20 46 39.5t17 33.5 q0 15 -8 33q-23 66 -180 96q-82 14 -160 30.5t-229 29.5q-47 2 -129 8zM1290 827q68 -59 101 -96q102 -115 102 -201q0 -61 -59 -151q-18 -29 -60 -78q43 25 66 41q70 49 92 99.5t22 95.5q0 12 -4 41q-10 55 -41 92q-12 16 -77 71q-29 27 -89 60q-18 10 -53 26z" />
<glyph unicode="%" horiz-adv-x="1024" d="M29 307q0 160 106.5 337t212.5 349q43 80 131 301q76 188 131 267q84 119 209 149q20 4 29 4q49 0 94 -34.5t45 -77.5q0 -139 -78 -283q-43 -82 -180 -263.5t-194 -289.5q-47 -84 -111 -289q-92 -295 -244 -358q-18 -6 -35 -6q-41 0 -73.5 34.5t-36.5 73.5t-5 57.5 t-1 28.5zM63 309q0 -31 6.5 -51t25 -50t42.5 -44l15 -6q-8 10 -13 18q-31 51 -47 103q-4 12 -4 28q0 59 27 185q8 43 28 118q-14 -33 -22 -51q-23 -57 -34 -101t-17.5 -76t-6.5 -73zM63 1411q0 82 52 141q20 23 55 39q37 10 74 11q80 0 136 -38.5t56 -101.5 q-6 -45 -25.5 -77.5t-60.5 -49.5l-78 -28q-33 -8 -71 -9q-14 0 -31.5 1t-48.5 12q-57 18 -58 100zM250 1561l41 -19q20 -8 36.5 -27.5t16.5 -44.5q8 -8 12 -8q14 4 20.5 10.5t6.5 18.5q-8 29 -33 53l-18 12l-47 17q-20 6 -35 -2v-10zM516 291q0 78 51 141q20 23 56 39 q35 10 73 10q80 0 136.5 -37.5t56.5 -103.5q-6 -43 -25.5 -76t-60.5 -49l-78 -29q-41 -10 -74 -10q-37 0 -86 16.5t-49 98.5zM700 438l43 -16q14 -6 33 -25q8 -8 14.5 -23.5t6.5 -23.5q6 -10 10 -10q12 0 20.5 9.5t8.5 21.5q-8 29 -33 51l-21 14l-45 17q-20 4 -35 -2z M768 1675q35 -6 53 -10q57 -16 73.5 -43t16.5 -76q0 -70 -34 -180q-10 -35 -35 -96q8 12 12 20q29 49 43 84q25 66 38 117t13 92q0 19 -2 27q-4 27 -25.5 43t-44 23t-47.5 7q-20 0 -34.5 -2t-26.5 -6z" />
<glyph unicode="&#x26;" horiz-adv-x="1376" d="M20 520q0 193 166 293q55 33 168 61q-111 35 -166 72q-168 111 -168 303q0 158 86 246q70 72 209 111q47 12 265 55q18 4 56 6t58 2h39q4 0 28.5 -64.5t29.5 -66.5q6 0 7 42t1 85q195 -27 381 -127q176 -95 176 -152q0 -66 -70 -104q-39 -23 -78 -43q-39 -25 -86 -25 q-78 0 -231.5 109t-224.5 109q-55 0 -99.5 -38t-68.5 -71q-31 -43 -45 -94q-4 -12 -4 -37q0 -121 262 -197q86 -25 262 -51q-160 -86 -240 -139q-242 -162 -241 -264q0 -39 41.5 -72t92 -49.5t111.5 -16.5q109 -10 253.5 125.5t185.5 135.5q16 0 24 -5q70 -29 94.5 -55 t24.5 -82q0 -31 -12.5 -95.5t-202.5 -160.5q-211 -106 -395 -106q-4 0 -23.5 74.5t-23.5 74.5q-4 -2 -5.5 -34.5t-1.5 -55.5v-46v-13l-16 -2q-285 0 -414 51q-205 82 -205 311zM53 494q0 -33 14.5 -79t44 -79t83.5 -68q23 -14 71 -35q14 -6 43 -16q-33 23 -51 39 q-115 98 -143 180q-6 18 -8.5 48t-2.5 36q0 66 21 150q6 27 20 69q-16 -25 -24 -39q-27 -45 -39 -78.5t-16 -46.5q-12 -41 -13 -81zM68 1257q0 -31 4 -59.5t30 -91.5q4 -10 15 -29v19q-6 74 -6 96q0 51 7 101t23 85q31 66 129 144q31 24 90 63q-16 -6 -26 -8 q-66 -23 -101 -47q-41 -25 -70.5 -52.5t-52 -65.5t-32.5 -76t-10 -79zM649 0v1819q10 66 74 65q33 4 58.5 -14.5t25.5 -50.5v-912l-137 -133l137 84v-858q0 -35 -22.5 -59.5t-59.5 -24.5q-35 0 -55.5 24.5t-20.5 59.5zM664 111.5q0 -74.5 4 -110.5t23.5 -51.5t35.5 -15.5 q14 0 29 19l12 18q-16 -6 -25 -6q-18 0 -27 14.5t-32 149.5q-6 43 -20 131v-148.5zM672 561q0 -29 2 -59.5t6 -59.5q4 25 8 54.5t4 60.5q0 45 -3 79t-7 52q-4 -29 -4 -45q-6 -66 -6 -82zM690 1858q10 -2 22.5 -6.5t25 -23t32.5 -142.5q6 -41 16 -119l5 223q-4 37 -17 53 q-6 14 -29 23q-14 6 -40 -2q-4 0 -15 -6zM723 815l108 66l66 34l35 23q-20 -8 -33 -12q-43 -16 -63.5 -26.5t-71.5 -51.5q-14 -10 -41 -33zM766 1208q0 -41 2 -69.5t6 -46.5q4 25 8 54t4 60q0 45 -3 79t-7 52q-2 -16 -2 -26q-8 -76 -8 -103zM1024 270l98 49q41 20 81 43 t63.5 67t23.5 85q0 24 -12 53q-14 27 -64 56q-8 4 -22 12q20 -33 31 -51q33 -59 28 -88q-8 -72 -118 -156q-35 -27 -109 -70zM1096 1536q51 -33 75 -53q78 -66 70 -119q-4 -33 -47 -76q-12 -12 -41 -35q23 12 35 19q43 25 59.5 38t30.5 24.5t20 27.5q4 12 5 20q0 31 -43 62 q-25 16 -48 33q-29 25 -88 49q-10 4 -28 10z" />
<glyph unicode="'" horiz-adv-x="419" d="M12 1712q0 72 56 107q78 45 147 45t147 -45q57 -35 58 -115q0 -102 -96 -268q-31 -55 -97 -146q-72 94 -106 150q-109 172 -109 272zM164 1829q35 -12 53 -19q57 -23 84 -52t45 -99q6 -23 12 -64q10 25 15 39q14 47 10 74q-8 51 -51 88q-23 20 -52.5 28.5t-64.5 8.5z" />
<glyph unicode="(" horiz-adv-x="985" d="M37 872q0 301 133 541q111 205 346 412q115 98 479 375q63 45 131 45q78 0 132.5 -47.5t54.5 -116.5q0 -45 -25 -84t-84 -80q-168 -115 -305 -242q-172 -164 -274 -346q-121 -219 -121 -444q0 -272 50 -426t198 -330q45 -53 150.5 -161.5t277.5 -274.5q111 -111 110 -195 q0 -55 -45 -87t-119 -32q-55 0 -114 21q-33 10 -56.5 22.5t-58.5 36.5q-127 92 -232.5 184.5t-187.5 182.5q-203 221 -315 465q-125 281 -125 581zM123 866q0 -158 15.5 -249t70.5 -244q8 -29 98 -180l86 -144l-47 135q-63 188 -92 312q-49 209 -49 348q0 131 47 299 q29 102 92 268q23 61 35 88q4 12 14 29l-88 -152q-41 -72 -70.5 -127t-41.5 -82l-46 -125q-25 -78 -24 -176zM1032 1827l152 133l45 39q28 33 28 76t-18 74.5t-72 48.5q-12 2 -28 -15l-13 -18l41 -29q43 -35 43 -51q0 -68 -88 -170zM1069 -242l64 -100q57 -102 57 -154 q0 -14 -14 -26l-37 -19l32 -34q50 -1 70 69l4 27q0 27 -10 43l-53 65z" />
<glyph unicode=")" horiz-adv-x="985" d="M-328 2081q0 -45 25 -84t84 -80q168 -115 305 -242q172 -164 274 -346q121 -219 121 -444q0 -272 -50 -426t-198 -330q-45 -53 -150.5 -161.5t-277.5 -274.5q-111 -111 -110 -195q0 -55 45 -87t119 -32q55 0 114 21q33 10 56.5 22.5t58.5 36.5q127 92 232.5 184.5 t187.5 182.5q203 221 315 465q125 281 125 581q0 301 -133 541q-111 205 -346 412q-113 98 -479 375q-63 45 -131 45q-78 0 -132.5 -47.5t-54.5 -116.5zM-272 2075q0 43 18 74.5t72 48.5q12 2 28 -15l13 -18l-41 -29q-43 -35 -43 -51q0 -68 88 -170l90 -88l-152 133l-45 39 q-28 33 -28 76zM-260 -479q0 27 10 43l53 65l113 129l-63 -100q-57 -102 -58 -154q0 -14 15 -26l36 -19l-32 -34q-50 -1 -70 69zM592 49l47 135q63 190 92 312q49 209 49 348q0 131 -47 299q-29 102 -92 268q-23 61 -35 88q-4 12 -14 29l88 -152q41 -72 74 -133 q27 -49 39 -76l45 -125q25 -78 24 -176q0 -162 -16 -243q-12 -90 -70 -250q-8 -29 -98 -180z" />
<glyph unicode="*" horiz-adv-x="1822" d="M45 1110q0 27 4 41q20 80 57 130t111 95q41 25 84 25q98 0 223 -115q96 -88 187 -215q37 -59 75 -117q-49 92 -71 150q-74 176 -74 291q0 57 17.5 100t58.5 68q86 53 178 53q74 0 158 -43q51 -27 73.5 -85t22.5 -138q0 -109 -39 -254q-12 -47 -39 -123q35 57 72 117 q90 135 178 221q123 119 219 119q41 0 82 -25q61 -39 98 -86t60 -119q6 -25 6 -47q0 -102 -144 -201q-106 -72 -268 -131q-123 -45 -145 -45q12 0 119 -53q141 -70 223 -139q121 -100 121 -195q0 -33 -11 -55q-29 -70 -66.5 -109t-111.5 -78q-39 -20 -80 -20 q-106 0 -233 135q-98 106 -184 250q-37 68 -72 137q-45 -70 -88 -139q-106 -154 -215 -258q-147 -141 -256 -141q-51 0 -98.5 35.5t-73 66.5t-43 72t-17.5 75q0 100 133 211q90 76 248 154q123 61 135 61q-35 0 -157 29q-182 43 -297 103q-160 84 -160 192zM121 1190 q37 27 57 39q68 39 113 45q78 10 258 -146q59 -51 166 -157q-37 53 -58 82q-67 92 -116 137q-51 47 -101 96q-57 47 -108 47q-43 0 -69.5 -5t-57.5 -24.5t-60 -66.5q-10 -16 -24 -47zM227 336q0 -29 11.5 -60.5t50.5 -72.5l35 -35q-8 33 -11 51q-12 68 -12 105v24q4 16 4 23 q14 86 164 229q49 47 147 127q-51 -33 -81 -51q-102 -63 -145.5 -96t-82.5 -62q-61 -51 -70.5 -103.5t-9.5 -78.5zM698 1386q35 45 58 66q68 66 123 66q66 0 143 -60q24 -18 65 -61q-8 25 -14 39q-18 43 -41 65q-61 61 -153 62q-47 0 -73 -11.5t-58 -54.5q-14 -16 -33 -65 q-6 -14 -17 -46zM1298 715q90 -90 134 -140q131 -150 120 -204q-8 -47 -41 -123q-10 -25 -32 -68q47 31 69 49q70 62 70 115q4 31 0 44t-19.5 52t-39.5 66q-55 49 -89 80q-39 37 -133 102q-14 10 -39 27zM1520 1370q33 -20 51 -35q57 -45 71.5 -78.5t14.5 -66.5 q0 -66 -43 -154q-14 -29 -45 -75q35 20 53 34q60 43 76 82q18 49 18 86q0 29 -8 56q-25 88 -92 129q-16 8 -44 13t-52 9z" />
<glyph unicode="+" horiz-adv-x="1804" d="M43 872q0 27 33 60q47 47 122.5 66.5t174.5 19.5q63 0 315 -21q127 -10 201 -10q88 0 194 8q268 20 301 21q115 0 203 -25t162 -88q35 -33 35 -65q0 -18 -11.5 -34t-29.5 -26q-61 -35 -137 -50t-162 -15q-80 0 -193 10q-270 25 -356 25q-84 0 -330 -21q-123 -10 -184 -10 q-96 0 -163.5 15.5t-115.5 55.5q-59 49 -59 84zM84 870q0 -25 51 -63q29 -23 43.5 -29t71.5 -20q29 -6 51.5 -7t30.5 -1q-66 20 -99 32q-98 41 -98 80q0 41 33 86q10 14 33 37q-31 -20 -45 -31q-49 -37 -60.5 -53t-11.5 -31zM750 346q0 63 20 316q10 127 10 200 q0 86 -20 320q-10 117 -10 178q0 115 24 201.5t90 158.5q31 37 66 37t57 -41q37 -63 52.5 -139t15.5 -166q0 -80 -11 -190q-25 -268 -24 -355q0 -84 20 -329q10 -123 11 -185q0 -94 -15.5 -161.5t-56.5 -114.5q-25 -29 -46.5 -44.5t-39.5 -15.5q-29 0 -59 31 q-47 47 -65.5 120t-18.5 179zM782 176q20 -31 31 -47q35 -47 51.5 -59.5t30.5 -12.5q25 0 66 52q20 27 26 42t23 72q6 27 6 49.5v32.5q-18 -66 -31 -96q-39 -98 -76 -103q-43 0 -90 35q-14 10 -37 35zM805 1378q0 -29 2 -59.5t6 -58.5q6 76 12 118q20 133 56 209 q20 43 57 70q12 8 37 18q-10 4 -19 8q-33 15 -49 15q-45 -4 -65 -70q-10 -35 -19.5 -63.5t-13.5 -61.5t-4 -55v-70zM1288 954q76 -6 119 -12q129 -20 209 -55q43 -18 70 -60q8 -12 18 -36q2 10 6 20q14 35 14 47q0 41 -45 60q-63 18 -89.5 27t-58.5 13.5t-54 4.5h-72 q-41 0 -69.5 -2.5t-47.5 -6.5z" />
<glyph unicode="," horiz-adv-x="520" d="M-113 -168q6 0 13 2q37 20 118 137q18 25 25.5 54.5t7.5 60.5q0 27 -2 31q-10 27 -10 61q0 100 63 178q25 29 70 47q47 14 92 15q96 0 174 -49q35 -25 50.5 -54.5t15.5 -72.5q-6 -55 -33 -97q-20 -37 -74 -61l-98 -35l-51 -10q-2 0 -47 -52.5t-88 -78.5q-61 -39 -148 -62 q-29 -6 -78 -14zM-45 -135l49 29q31 16 49.5 42.5t24.5 57.5q2 12 1 33t-5 39q-6 -27 -11 -41q-12 -47 -29.5 -76t-58.5 -68q-6 -6 -20 -16zM270 365l54 -23q23 -8 44 -34.5t21 -53.5q0 -12 14 -12t24.5 10.5t10.5 26.5q-12 37 -41 65l-24 16l-58 21q-6 2 -13 2h-9 q-8 0 -21 -4z" />
<glyph unicode="-" horiz-adv-x="2004" d="M39 788q0 33 35 68q51 51 131 71.5t194 20.5q86 0 207 -10q289 -25 373 -25q98 0 217 11q287 25 340 24q125 0 220 -26.5t175 -98.5q41 -39 41 -73q0 -27 -18 -48q-6 -6 -27 -18q-68 -39 -153.5 -56.5t-180.5 -17.5q-55 0 -368 27q-143 12 -242 12q-100 0 -294.5 -16.5 t-278.5 -16.5q-111 0 -181.5 16.5t-126.5 61.5q-33 29 -48 50.5t-15 43.5zM84 788q0 -20 22 -43q14 -14 35 -30q33 -25 49.5 -31t77.5 -25q29 -6 50.5 -7t39.5 -1q-72 20 -106 35q-109 45 -113 86q0 47 37 98q12 16 39 43q-35 -23 -51 -34q-53 -39 -66.5 -57.5t-13.5 -33.5z M1421 879q49 -4 80 -7q180 -20 283 -69q47 -23 78 -66q8 -14 20 -39q6 10 14.5 36t8.5 40q0 49 -74 72q-41 10 -77 22.5t-69.5 16.5t-66.5 4h-66q-45 0 -102 -6q-10 0 -29 -4z" />
<glyph unicode="." horiz-adv-x="520" d="M39 178q0 100 63 178q25 29 70 47q47 14 92 15q96 0 174 -49q35 -25 50.5 -54.5t15.5 -72.5q-6 -55 -33 -97q-20 -37 -74 -61l-98 -35q-47 -12 -90 -12q-31 0 -47.5 2t-50.5 14q-72 25 -72 125zM270 365l54 -23q23 -8 44 -34.5t21 -53.5q0 -12 14 -12t24.5 10.5 t10.5 26.5q-12 37 -41 65l-24 16l-58 21q-6 2 -13 2h-9q-8 0 -21 -4z" />
<glyph unicode="/" horiz-adv-x="1544" d="M78 276q0 150 203 338q197 172 395 344q74 72 237 273q141 172 226 237q129 101 274 101q51 0 75.5 -20.5t24.5 -55.5q0 -10 -4 -27q-43 -168 -249 -352l-394 -340q-82 -80 -226 -255t-214 -234q-115 -100 -215 -101q-29 -2 -41 -2q-92 0 -92 94zM119 268q8 -45 65 -45 q25 0 56.5 4t46.5 11q31 18 64.5 37.5t58.5 43.5l12 15q-49 -27 -76 -39q-88 -41 -129 -41q-20 0 -35 10q-35 31 -45 94q-2 20 -2 60q-8 -41 -10 -62q-10 -70 -6 -88zM1012 1245q66 53 104 82q125 92 207 123q37 12 68 12q33 0 63 -10q4 0 14 -6q-4 8 -8 18q-14 37 -30 49 q-23 18 -46 19q-27 0 -62.5 -20.5t-68.5 -38.5q-51 -25 -98 -72l-54.5 -54.5t-68.5 -78.5q-6 -8 -20 -23z" />
<glyph unicode="0" horiz-adv-x="1550" d="M27 260q0 86 20 203q51 311 51 385q0 113 -25.5 305.5t-25.5 251.5t6 94t33 62q51 57 255 89.5t439 32.5q123 0 221.5 -6t192.5 -22q180 -29 234.5 -84t76 -128t21.5 -165q0 -20 -5 -87t-19.5 -197t-14.5 -208q0 -98 21.5 -259.5t21.5 -209.5q0 -66 -12 -114 q-8 -45 -43 -92q-51 -70 -254 -108t-453 -38q-236 0 -427 25.5t-243 70.5q-37 31 -55 82q-16 55 -16 117zM78 295q0 -90 76 -172q49 -47 137 -70q31 -6 53.5 -8t73.5 -2l215 -12l-166 51q-178 61 -215 108q-61 78 -105 240l-30 148l-37 -246zM604 588q0 -37 12.5 -65.5 t47.5 -55.5q66 -47 131 -47q25 0 70.5 12t64 48t18.5 89l-8 90q-18 129 -18 164q0 51 10 99q25 129 24 151q0 39 -12 65.5t-47 53.5q-63 45 -133 45q-31 0 -43 -4l-53 -19q-31 -12 -50 -45q-14 -33 -14 -73q0 -45 10 -92q25 -129 25 -168q0 -51 -10 -99zM889 1634l92 -24 q217 -63 309 -160q74 -80 129 -264l37 -166v135q0 68 6 105l2 28q0 31 -6 62.5t-22 66.5q-25 63 -78 112.5t-129 74.5l-142 24l-73 2h-41h-33q-20 4 -31 4h-20z" />
<glyph unicode="1" horiz-adv-x="663" d="M23 1341q0 31 2 57.5t11 63.5t35.5 74t100.5 66q74 25 160 24q78 0 143.5 -24.5t96 -74.5t42.5 -106q6 -31 10.5 -55.5t4.5 -52.5q0 -66 -19.5 -168.5t-32 -183t-12.5 -117.5q0 -98 21 -223q45 -299 45 -338q0 -63 -10 -107.5t-39 -85.5q-31 -49 -99.5 -72.5 t-148.5 -23.5q-86 0 -166 24.5t-111 63.5q-16 23 -23 59.5t-7 96.5q0 78 14 204q33 324 33 402q0 47 -6.5 111.5t-20.5 156.5q-25 170 -24 229zM59 268q0 -51 11.5 -89t42.5 -73q67 -71 159 -71v22v33h-22q-14 0 -38 5t-67 48q-39 43 -51 176l-8 195v37l2 29l-25 -242z M332 1548q33 0 59.5 -7t42.5 -19q31 -14 62 -62q23 -35 32 -125t10 -127t1 -75v-58l-2 -39l16 113l25 149l6 52q0 35 -3 48t-14 40q-16 45 -53 80q-70 70 -166 69q-10 -14 -14 -26z" />
<glyph unicode="2" horiz-adv-x="1439" d="M33 260l2 84l14 98q18 115 264 285l441 266q221 135 196 195q-18 49 -90 49q-66 0 -174 -45q-80 -31 -178 -86l-180 -102q-92 -49 -158 -50l-47 7q-29 6 -60 71q-25 68 -24 154q0 100 43 149q72 82 160 135.5t217 94.5q39 12 86 23t100 22q98 18 186 18q68 0 94.5 -3 t88 -15.5t133.5 -53.5q125 -68 192 -143q35 -41 55.5 -90t20.5 -102l-6 -58q-33 -193 -162 -321q-51 -51 -272 -203q-63 -45 -283 -162q-133 -70 -127 -100q6 -14 105 18q281 98 415 99q88 0 161 -26t126 -91l49 -74q16 -33 17 -72q0 -49 -37 -141q-18 -45 -70 -70 q-51 -20 -117 -20q-74 0 -190 20q-281 45 -352 46q-74 0 -183 -19l-282 -45q-47 0 -77 10.5t-50.5 41t-36.5 87.5q-6 33 -8 54.5t-2 64.5zM74 279l2 -41q0 -18 2 -29.5t12 -61.5l16 -61l-2 35v55q0 84 12.5 165t47.5 134q53 84 215 223l149 117l-170 -106q-78 -51 -127 -91 q-63 -55 -114 -131q-20 -31 -35 -79l-8 -89v-40zM78 1135q6 -47 25.5 -79t56.5 -48l35 -7q35 0 59.5 9.5t38.5 17.5t26 21l70 47l25 18l-54 -24q-74 -31 -122 -31q-35 0 -54 10q-41 25 -75 111l-23 82l-2 -33zM864 1589q98 -41 150 -69q162 -90 215 -189q29 -55 45 -119 q6 -31 10 -57.5t4 -58.5q0 -55 -8 -95l-23 -63l78 176q18 55 19 100q0 31 -3 44.5t-15.5 45t-45.5 76.5q-45 66 -123 113q-23 12 -58.5 28.5t-76.5 30.5l-104 25zM1094 422q66 0 130 -25.5t97 -83.5q12 -25 22 -75l9 -93l-2 -45l-2 -30l22 47q12 29 16.5 43t6.5 37 q0 109 -72 186q-29 31 -52.5 42t-144.5 44z" />
<glyph unicode="3" horiz-adv-x="1640" d="M39 1370q0 16 2 40t8 48q18 94 90 133t185 39q78 0 233 -20q53 -6 119.5 -13.5t118.5 -7.5q39 0 85 2t95 8q233 25 276 25q111 0 195 -39q83 -35 151 -135q31 -47 31 -113q0 -45 -12 -92q-4 -16 -8 -33q-10 -35 -27 -73q-43 -109 -195 -189q-109 -55 -262 -86l-133 -20 q43 0 127 -15q160 -27 258 -71q150 -66 198 -169.5t48 -197.5q0 -92 -47 -198.5t-143 -153.5q-76 -35 -209 -35q-66 0 -269 19l-168 10q-61 0 -90.5 -2t-105.5 -12.5t-118 -14.5t-77 -4q-92 0 -154.5 24.5t-117.5 106.5q-43 66 -62.5 125t-19.5 127q0 113 74 223 q25 37 62.5 55.5t90.5 18.5q51 0 106.5 -14.5t137.5 -51.5l322 -145q12 0 18 6t6 19q0 37 -126 170t-126 161q0 20 152.5 136t152.5 172q0 12 -9 26.5t-36 16.5l-307 -95q-147 -45 -231 -45q-41 0 -59.5 2t-49.5 15q-43 18 -80 61q-100 131 -100 256zM88 375q0 -43 6 -68 l39 -96q2 -10 8 -23.5t21 -42.5l-17 64q-16 82 -16 145q0 68 13.5 113t52.5 78q49 43 92 43l32 -6l31 -9l17 21l2 27q-37 12 -66 12t-41 -4l-51 -23q-61 -29 -92 -92t-31 -139zM88 1382q0 -39 18 -92q8 -23 23 -49q25 -37 37 -59l22 -39l-18 61q-18 74 -18 135q0 45 11 79 t34 52q61 49 229 74l156 12h-37h-31q-23 4 -33 5q-41 0 -92 10l-78 8q-43 0 -80 -12q-37 -8 -73 -37q-35 -23 -52.5 -64t-17.5 -84zM643 825q0 -14 27 -49l26 -33l-4 9q-6 14 -10 45q0 29 13.5 51t54.5 43l59 35q45 29 80 82l33 63l16 37l-43 -61q-47 -63 -86 -87t-53 -32 q-27 -16 -54 -37q-59 -43 -59 -66zM1155 913l98 37q104 43 136 66q158 109 157 284l-6 72q-8 59 -61 115q-37 37 -103 74q-18 12 -41 -27l-8 -18l82 -74q61 -61 61 -121l-4 -39q-37 -176 -178 -291q-41 -35 -133 -78zM1245 766q90 -68 135 -117q135 -141 136 -264l-3 -23 q0 -80 -118 -208q-35 -37 -56 -58q-4 -4 -53 -47l84 49q88 53 100 66q45 47 66 84.5t31 103.5l2 17v12q0 57 -22.5 110.5t-51.5 90.5q-18 20 -137 106z" />
<glyph unicode="4" horiz-adv-x="1683" d="M39 1415q0 92 24.5 141.5t78 59.5t80 11t40.5 1q109 0 202 -13t161 -52q68 -35 67 -125q0 -82 -93 -295t-93 -295q0 -68 33 -103q27 -27 79 -63q51 -29 87 -29q31 0 49 27q6 12 10 41q0 25 -21 104q-12 49 -12 72q0 33 14 61q31 61 105 98.5t158 37.5q86 0 157.5 -35 t104.5 -109l8 -41q0 -33 -25.5 -93t-25.5 -85q0 -29 18 -53q18 -16 45 -21q25 0 66 21q94 47 123 47q20 0 28 -4q66 -25 106 -98.5t40 -161.5q0 -84 -31.5 -150.5t-97.5 -97.5l-45 -10q-45 0 -126 42t-106 42t-37 -18.5t-12 -41.5q0 -31 29.5 -83t34.5 -76q0 -18 -15.5 -34 t-95.5 -32q-74 -12 -158 -12q-43 0 -82 2t-89 10t-81 33q-14 10 -16 35q0 16 43 96q23 41 23 65q0 18 -14.5 39t-47.5 21q-16 0 -260 -80q-123 -39 -188 -39q-86 0 -140.5 48t-79.5 110q-20 68 -20 139q0 70 14 162q35 238 35 295q0 39 -6 99t-21 155q-25 172 -24 235z M88 524l6 -131q6 -59 20.5 -89t61.5 -54q25 -12 94 -29q6 -2 25 -2q16 0 39.5 4t45 7t29 4.5t42.5 11.5l-19 -4h-29q-51 0 -106 13t-117 60q-31 18 -44 124t-13 235l2 131l6 96l-8 -55l-31 -195zM397 1495l41 4q41 0 82 -53l12 -37l5 -55q0 -49 -4.5 -93t-18.5 -122 q-4 -33 -8 -56.5t-14 -62.5l102 246l31 75q8 20 12 38t4 38q0 39 -23 74q-25 37 -78 57.5t-83 20.5q-16 0 -47 -49zM760 78l6 -23q12 -18 68.5 -31.5t105.5 -13.5l117 -2q-29 4 -64 10.5t-59 12.5q-121 25 -133 37q-10 14 16 61l27 43l-43 -6l-27 -45q-2 -4 -8 -21.5 t-6 -21.5zM938 1032l72 -12q78 -18 108.5 -56t59.5 -147l18 -100v65q0 31 12 54q12 27 17 63l-6 37q-2 12 -21.5 44t-67.5 50l-73 19q-16 2 -72 -7q-18 0 -47 -10zM1354 653l24 9l62 10q29 0 37 -4q12 0 28 -15q31 -23 49 -69q23 -100 29 -113l27 6q6 4 8 6l4 4l-8 43 q-6 39 -23.5 68t-25.5 41q-14 20 -23 29q-29 33 -59 32q-23 0 -76 -22z" />
<glyph unicode="5" horiz-adv-x="1718" d="M16 1155q0 137 16.5 257t35.5 177q6 25 44 38t99 13q70 0 184 -12q281 -31 344 -31q106 0 224 15q319 37 383 37q150 0 227 -43q92 -52 106 -181l7 -55l2 -41q0 -45 -17 -92q-27 -104 -110 -154q-70 -41 -187 -41q-63 0 -127.5 10.5t-150.5 34.5l-303 95q-147 49 -205 49 q-49 0 -64 -29q-6 -18 -10 -57l6 -49q6 -35 58 -47q160 -33 178 -41q102 -35 330.5 -74t308.5 -66q141 -43 188 -114q55 -88 82 -166q10 -35 16.5 -70t6.5 -67q0 -45 -11 -76l-14 -47q-59 -166 -223 -258q-143 -78 -307 -78h-146l-399 6q-72 0 -149 7t-152 20 q-164 25 -195 69q-12 23 -29 66q-8 23 -18 55q-18 80 -18 154q0 88 25.5 147t88.5 74l56 6q78 0 186 -78q125 -90 201 -108l131 -33q133 -35 198 -35q55 0 93 10t93.5 42t55.5 81q0 43 -39 82q-61 63 -182 90l-219 33l-242 29q-74 0 -153.5 18t-169.5 51q-70 25 -102 127.5 t-32 249.5zM66 1110q0 -106 26.5 -167.5t71.5 -98.5q18 -14 28.5 -20.5t45.5 -20.5l135 -29l245 -41l-194 58q-197 68 -231 110q-51 72 -89 313l-22 224l-8 -146zM74 373q0 -47 4 -66l14 -61l31 -113l-8 66l-4 92q0 78 10 121t39 71q23 18 43 19q27 0 61 -17l12 23l11 22 l-51 17l-39 6q-23 0 -54.5 -17.5t-50 -64.5t-18.5 -98zM1135 1577q59 0 92 -3t76 -13q174 -29 221 -91q35 -45 59 -165l14 -105l9 33l28 110l2 33q0 100 -96 176q-29 23 -61.5 32t-48 11t-46.5 2h-43l-22 -4zM1217 889q51 -27 102 -58q43 -25 74 -47q176 -133 176 -276 l2 -21q0 -137 -121 -288q-35 -45 -123 -125l86 69q90 74 111 99q53 68 73.5 113.5t20.5 127.5q0 113 -41 181q-12 20 -36.5 47.5t-62.5 59.5t-155 81z" />
<glyph unicode="6" horiz-adv-x="1705" d="M23 266q0 133 176 379q119 166 161 248l213 446q123 227 279 267l123 24l96 10q63 0 109.5 -23.5t81.5 -84.5q10 -16 13 -31.5t3 -38.5q0 -119 -152 -313q-106 -137 -284 -311q-74 -72 -113 -107q-16 -14 -41 -35l205 95q242 96 410 96q76 0 134 -19.5t103 -64.5 q154 -160 154 -359q0 -108 -47 -223q-49 -121 -164 -176q-94 -41 -248 -41q-80 0 -231 14l-242 15q-51 0 -97.5 -4t-140.5 -19l-211 -20q-84 0 -146.5 24.5t-103 98t-40.5 153.5zM80 283q0 -31 10 -62q31 -100 75 -144t105 -44l267 16q-53 0 -80 2t-62 8q-141 18 -182 68 q-14 18 -25 55l-8 72q0 145 109 387q16 37 43.5 94.5t64.5 120.5l-172 -270l-92 -140q-53 -90 -53 -163zM606 328q-6 -31 25 -43.5t90 -12.5q72 0 203 15l182 16q74 0 119 35t45 90q0 25 -10 50t-39 54q-25 25 -48.5 37.5t-50.5 12.5q-39 0 -108 -45q-82 -55 -121 -70 q-117 -20 -176 -37q-92 -25 -111 -102zM913 1573h43.5t44.5 -8q92 -18 121 -66q12 -16 15 -41l4 -37q0 -88 -74 -221l-76 -115l119 144q49 66 73.5 116t24.5 99q0 28 -12 63q-14 37 -42 56.5t-56 25.5l-43 6q-45 0 -92 -10q-18 0 -50 -12zM1425 819l76 -131q76 -156 76 -254 q0 -92 -68 -233l-67 -123l59 61q57 59 72 86l41 86q24 48 24 107q0 74 -16 127t-57 123q-14 25 -80 92z" />
<glyph unicode="7" horiz-adv-x="1662" d="M6 1270q0 78 21 141q10 33 24.5 64.5t34.5 60.5q31 49 89 68.5t136 19.5q66 0 174 -12q248 -29 293 -29h37l21 2q35 0 348 47l164 17q133 0 197.5 -65t64.5 -245q0 -242 -148 -368q-190 -160 -221 -246l-20 -92l-7 -98l3 -86l2 -87q0 -125 -31 -192q-39 -84 -158 -121 l-190 -49q-37 -6 -74 -10t-74 -4q-117 0 -200 51q-51 31 -74 64.5t-23 72.5q0 66 86 174l256 316q86 178 86 354q0 90 -37 112l-24 5q-37 0 -260 -86t-314 -86q-63 0 -90 32q-47 61 -71 133q-8 31 -14.5 69t-6.5 73zM57 1221q0 -53 18.5 -97.5t65.5 -73t90 -28.5 q53 0 125 35l152 55l49 18l-96 -22q-117 -23 -185 -23q-39 0 -60 4.5t-32 16.5q-63 55 -94 162l-16 100l-8 -57zM459 172l6 -37q12 -39 59 -65q27 -12 92 -33l39 -6l50 -2h32l27 2q-63 10 -94 20q-104 31 -154 96q-14 18 49 150q43 84 131 231l74 121l-104 -137 q-20 -33 -91 -121q-117 -145 -116 -219zM1085 1565h19l31 2q104 0 189 -17.5t134 -79.5q23 -29 35 -74.5t12 -103.5q0 -68 -12 -135l-14 -59l28 59q31 67 37 100l8 64l4 57q0 51 -14 86q-12 39 -45 70t-65.5 44t-79.5 19l-60 9q-57 0 -137 -21z" />
<glyph unicode="8" horiz-adv-x="1662" d="M25 313q0 59 12 112.5t19 78t24 61.5q53 135 188 217q20 12 50 24.5t75 29.5q-113 74 -160 114q-162 145 -161 287l2 41q12 80 80 145l262 158q29 16 202 40t320 24q100 0 184 -11.5t129 -36.5q168 -88 228 -143q106 -94 106 -213l2 -29q0 -147 -147 -258 q-47 -35 -150 -82q84 -29 131 -57q144 -86 199 -233q35 -94 35 -187q0 -59 -12.5 -110.5t-40.5 -100.5q-49 -92 -154 -135q-90 -35 -262 -59q-70 -8 -159 -14.5t-165 -6.5q-209 0 -373 23q-88 10 -160.5 26.5t-133.5 38.5q-88 31 -132 99q-39 68 -38 157zM78 326 q0 -51 12 -96.5t50 -84.5t145 -73l116 -31l164 -27q23 0 70 -12q-131 29 -193 51q-197 68 -237 148q-18 51 -31 114l-8 136v59.5t4 54.5q0 37 10 82l-43 -100q-41 -100 -51 -139zM135 1204q14 -74 33 -102l47 -60l41 -47l72 -65l57 -41l33 -17l-86 91q-88 100 -127 184 q-18 47 -37 125l-12 71l-13 -53q-12 -57 -8 -86zM631 401q10 -68 45 -98q10 -8 33.5 -17.5t62.5 -9.5l53 3l84 16l109 20q49 16 49 64l-2 22q-12 68 -113 148q-23 18 -100 65q-80 -31 -117 -55q-117 -74 -104 -158zM633 1225l6 -45q16 -55 111 -111l94 -45q74 43 110 74 q111 86 111 147t-100 92q-78 23 -170 23q-70 0 -116 -39t-46 -96zM952 1597l52 -12q55 -12 112 -39q186 -80 264 -219q23 -43 39 -104q6 -33 10.5 -54.5t4.5 -46.5v-28q0 -18 -4 -39l-11 -41l45 59q47 70 47 103q0 94 -8 118q-6 31 -53 86q-55 72 -127 118t-164 79 q-2 2 -29.5 7t-62.5 9l-94 4h-21zM1270 35l96 47q98 49 121 72q59 55 80 87.5t37 98.5l4 53q0 51 -13 99q-8 45 -26 71q-6 12 -29.5 45t-66.5 84l-78 94l73 -129q76 -158 76 -262q0 -39 -8 -63q-25 -90 -147 -205q-16 -14 -48 -40t-71 -52z" />
<glyph unicode="9" horiz-adv-x="1705" d="M18 1190q1 108 48 223q49 121 163 176q94 41 248 41q80 0 232 -14l241 -14q86 0 242 21.5t207 21.5q86 0 146.5 -24t102.5 -97.5t42 -155.5q0 -133 -177 -379q-119 -166 -161 -248l-213 -446q-123 -227 -279 -266l-123 -27l-96 -8q-68 0 -111 23.5t-79 84.5 q-10 16 -13.5 32t-3.5 38q0 119 152 313q106 137 284 312q74 72 113 106q16 14 41 35l-205 -94q-242 -96 -409 -96q-74 0 -133.5 18t-104.5 65q-154 160 -154 359zM74 1217q0 -51 2 -73t17.5 -69t53.5 -108q16 -25 80 -93l60 -59l-76 131q-76 156 -76 254q0 92 68 234 l67 122l-59 -61q-23 -23 -44.5 -49.5t-27.5 -36.5l-39 -78q-26 -59 -26 -114zM442 1206q0 -31 11.5 -54t38.5 -50q25 -25 47 -39q16 -6 51 -10q37 0 82 26l147 88q117 20 176 37q92 25 111 103q6 31 -24.5 43t-90.5 12q-57 0 -84.5 -2t-120.5 -14l-180 -15q-72 0 -118 -34.5 t-46 -90.5zM504 190q0 -28 12 -63q14 -33 43 -59q27 -18 72 -27l26 -2q45 0 93 10q18 0 49 12h-49q-29 6 -39 9q-92 18 -121 65q-8 14 -17 39l-2 39q0 88 74 221l76 115l-119 -143q-49 -63 -73.5 -114.5t-24.5 -101.5zM1176 1585q53 0 79.5 -2t61.5 -8q141 -18 182 -68 q16 -18 25 -55l8 -72q0 -145 -109 -387q-16 -37 -43.5 -94t-64.5 -121l172 271l92 139q53 90 53 164q0 31 -10 61q-31 100 -75 144.5t-105 44.5z" />
<glyph unicode=":" horiz-adv-x="520" d="M39 178q0 100 63 178q25 29 70 47q47 14 92 15q96 0 174 -49q35 -25 50.5 -54.5t15.5 -72.5q-6 -55 -33 -97q-20 -37 -74 -61l-98 -35q-47 -12 -90 -12q-31 0 -47.5 2t-50.5 14q-72 25 -72 125zM39 1124q0 100 63 179q25 29 70 47q47 14 92 14q96 0 174 -49 q35 -25 50.5 -54.5t15.5 -72.5q-6 -55 -33 -96q-20 -37 -74 -62l-98 -35q-47 -12 -90 -12q-31 0 -47.5 2t-50.5 14q-72 25 -72 125zM270 365l54 -23q23 -8 44 -34.5t21 -53.5q0 -12 14 -12t24.5 10.5t10.5 26.5q-12 37 -41 65l-24 16l-58 21q-6 2 -13 2h-9q-8 0 -21 -4z M270 1311l54 -23q23 -8 44 -34.5t21 -53.5q0 -12 14 -12t24.5 10.5t10.5 26.5q-12 37 -41 65l-24 17l-58 20q-6 2 -13 2h-9q-8 0 -21 -4z" />
<glyph unicode=";" horiz-adv-x="520" d="M-113 -168q6 0 13 2q37 20 118 137q18 25 25.5 54.5t7.5 60.5q0 27 -2 31q-10 27 -10 61q0 100 63 178q25 29 70 47q47 14 92 15q96 0 174 -49q35 -25 50.5 -54.5t15.5 -72.5q-6 -55 -33 -97q-20 -37 -74 -61l-98 -35l-51 -10q-2 0 -47 -52.5t-88 -78.5q-61 -39 -148 -62 q-29 -6 -78 -14zM-45 -135l49 29q31 16 49.5 42.5t24.5 57.5q2 12 1 33t-5 39q-6 -27 -11 -41q-12 -47 -29.5 -76t-58.5 -68q-6 -6 -20 -16zM39 1124q0 100 63 179q25 29 70 47q47 14 92 14q96 0 174 -49q35 -25 50.5 -54.5t15.5 -72.5q-6 -55 -33 -96q-20 -37 -74 -62 l-98 -35q-47 -12 -90 -12q-31 0 -47.5 2t-50.5 14q-72 25 -72 125zM270 365l54 -23q23 -8 44 -34.5t21 -53.5q0 -12 14 -12t24.5 10.5t10.5 26.5q-12 37 -41 65l-24 16l-58 21q-6 2 -13 2h-9q-8 0 -21 -4zM270 1311l54 -23q23 -8 44 -34.5t21 -53.5q0 -12 14 -12t24.5 10.5 t10.5 26.5q-12 37 -41 65l-24 17l-58 20q-6 2 -13 2h-9q-8 0 -21 -4z" />
<glyph unicode="&#x3c;" horiz-adv-x="1300" d="M49 905l148 234q180 268 346 436q233 236 401 235q94 0 166 -69q66 -63 96 -109q39 -57 62 -129q10 -29 10 -67q0 -141 -197 -279q-137 -96 -364 -184q-174 -68 -197 -68q31 0 193 -51q225 -72 360 -160q195 -127 195 -276v-25q-8 -94 -49 -166q-29 -51 -109 -139 q-35 -39 -78 -57.5t-88 -18.5q-164 0 -395 232q-174 174 -350 428q-76 117 -150 233zM569 1499q70 41 113 62q133 63 221 63q23 0 35 -2q80 -12 184 -92q35 -27 92 -80q-14 37 -22 57q-29 61 -57 95q-53 61 -84 86q-47 37 -107 36q-35 0 -61 -8q-6 -2 -92 -45 q-61 -31 -148 -104q-29 -25 -74 -68zM723 776q117 -84 174 -135q174 -154 174 -244q0 -66 -12 -176q-4 -37 -12 -98q33 37 49 59q51 70 63 123q12 49 12 92q0 53 -24.5 104.5t-67.5 82.5q-59 37 -92 59q-61 45 -166 92q-35 16 -98 41z" />
<glyph unicode="=" horiz-adv-x="2004" d="M39 483q0 33 35 68q51 51 135 72.5t194 21.5q84 0 205 -10q289 -25 371 -25q98 0 217 11q285 25 336 24q129 0 223 -26.5t176 -100.5q41 -39 41 -74q0 -27 -18 -47q-6 -6 -27 -18q-68 -39 -153.5 -56.5t-180.5 -17.5q-55 0 -368 27q-143 12 -242 12q-100 0 -294.5 -16.5 t-278.5 -16.5q-111 0 -181.5 16.5t-126.5 61.5q-33 29 -48 50.5t-15 43.5zM39 1065q0 31 35 65q51 51 135 73t194 22q84 0 205 -11q289 -25 371 -24q98 0 217 10q285 25 336 25q129 0 223 -26.5t176 -100.5q41 -39 41 -74q0 -27 -18 -47q-6 -6 -27 -19q-68 -39 -153.5 -56 t-180.5 -17q-55 0 -368 26q-143 12 -242 13q-100 0 -292.5 -16.5t-274.5 -16.5q-115 0 -186.5 16.5t-127.5 63.5q-33 29 -48 50t-15 44zM84 483q0 -29 57 -73q33 -25 48.5 -31t78.5 -23q23 -6 47.5 -7t42.5 -1q-72 20 -106 33q-109 43 -113 86q0 47 37 98q12 16 39 43 q-35 -23 -51 -35q-55 -39 -67.5 -57t-12.5 -33zM84 1063q0 -29 57 -74q33 -25 48.5 -31t78.5 -22q23 -6 47.5 -7t42.5 -1q-72 20 -106 33q-109 43 -113 86q0 47 37 98q12 16 39 43q-35 -23 -51 -35q-55 -39 -67.5 -57.5t-12.5 -32.5zM1421 573q49 -4 80 -6q180 -20 283 -69 q47 -23 78 -66q8 -14 20 -39q6 10 14.5 36t8.5 40q0 49 -74 72q-41 10 -77 22t-69.5 16.5t-66.5 4.5h-66q-45 0 -102 -6q-10 0 -29 -5zM1421 1153q49 -4 80 -6q180 -20 283 -70q55 -25 86 -80l12 -24q0 4 2 10q21 50 21 66q0 49 -74 71q-41 10 -77 22.5t-69.5 16.5t-66.5 4 h-66q-45 0 -102 -6q-10 0 -29 -4z" />
<glyph unicode="&#x3e;" horiz-adv-x="1300" d="M59 1434q0 -141 195 -277q139 -96 364 -184q174 -68 197 -68q-31 0 -192 -51q-221 -70 -359 -160q-195 -127 -194 -276v-25q8 -96 47 -166q27 -47 108 -139q68 -76 168 -76q164 0 395 232q174 174 351 428q74 117 149 233q-74 117 -147 234q-184 272 -346 436 q-233 236 -404 235q-94 0 -166 -69q-61 -61 -94 -109q-39 -57 -61 -129q-10 -31 -11 -69zM123 1450q14 37 22 57q27 61 56 95q53 63 84 86q49 37 108 36q47 0 89 -21.5t63 -31.5q61 -31 147 -104q29 -25 74 -68q-68 41 -111 62q-133 63 -223 63q-23 0 -35 -2 q-78 -12 -182 -92q-35 -27 -92 -80zM164 395q0 55 29 111q23 45 65 78q57 37 90 59q63 45 168 92q35 16 98 41q-117 -84 -174 -135q-174 -154 -174 -244q0 -66 13 -176q4 -37 12 -98q-33 37 -49 59q-54 72 -66 123q-4 25 -8 47.5t-4 42.5z" />
<glyph unicode="?" horiz-adv-x="1394" d="M37 1266q0 100 86 174q25 20 184 121q205 129 398 129q150 0 308 -83t240 -184q99 -120 99 -280q0 -158 -176 -289q-96 -72 -193 -141q-39 -33 -176 -97q-104 -47 -143 -124q-16 -31 -17 -70q0 -43 27.5 -122t27.5 -110q0 -25 -5 -41t-21 -38q-43 -55 -118 -88t-152 -33 q-78 0 -138.5 33.5t-79.5 99.5q-33 113 -32 201q0 92 37 178q29 68 102 174q45 66 111.5 118t134.5 103q45 39 147 80q160 66 160 153q0 92 -55 134q-31 23 -129 51q-12 4 -33 4q-68 0 -145.5 -166t-166.5 -158q-119 10 -200.5 85t-81.5 186zM94 1268q0 -104 88 -168 q59 -43 117 -43q20 0 33 2q55 8 108 94q16 29 41 86q-35 -41 -57 -61q-72 -61 -143 -62q-27 0 -50 8q-51 18 -73 99q-14 53 -15 133v23.5t2 17.5q-16 -27 -24 -43q-27 -53 -27 -86zM186 -412q0 100 64 179q25 29 69 47q47 14 93 14q96 0 174 -49q35 -25 50 -54.5t15 -72.5 q-6 -55 -33 -96q-20 -37 -73 -62l-99 -35q-47 -12 -90 -12q-31 0 -47 2t-51 14q-72 25 -72 125zM205 326q0 -72 28 -146q20 -53 25 -61q27 -51 80 -72q23 -8 55 -8q25 0 42.5 2t31.5 6q-35 6 -53 10q-57 16 -84 45q-47 51 -66.5 121t-19.5 144q0 76 18 157q6 27 19 66 q-14 -31 -23 -47q-27 -57 -35 -88q-18 -72 -18 -129zM418 -225l53 -23q23 -8 44.5 -34.5t21.5 -53.5q0 -12 14 -12t24.5 10.5t10.5 26.5q-12 37 -41 65l-25 17l-57 20q-6 2 -13.5 2h-9.5q-8 0 -20 -4zM971 1565q86 -82 127 -133q127 -156 127 -273q0 -109 -119 -256 q-39 -49 -119 -125q72 43 111 72q115 88 147.5 173t32.5 146q-1 54 -21 113q-23 70 -73 121q-2 2 -70 63q-39 37 -110 80q-12 6 -33 19z" />
<glyph unicode="@" horiz-adv-x="1572" d="M31 750q0 201 69.5 350t225.5 264q104 78 208.5 112.5t223.5 34.5q53 0 112 -6q164 -14 274.5 -60t213.5 -155q94 -100 140 -201.5t46 -220.5q0 -27 -4 -59.5t-10 -71.5q-37 -186 -74 -262q-61 -127 -174 -127q-59 0 -207 70q-23 4 -45 8q6 -12 -8 -27q-6 -6 -65.5 -43 t-127.5 -37q-35 0 -73.5 10.5t-77.5 26.5q-88 35 -137 90.5t-83 149.5t-34 172q0 82 31.5 150.5t99.5 125.5q113 96 229 97q53 0 122 -25.5t112 -67.5t63.5 -112t24.5 -171t9 -137t32 -48q8 -4 27 -7q6 16 10 27q29 70 37 111t8 94q0 59 -23.5 126.5t-56.5 109.5t-98 94 q-53 41 -82 57q-70 41 -152 41q-12 2 -26.5 2h-20.5q-43 0 -83 -11.5t-95 -35.5q-135 -66 -209 -201q-37 -68 -45 -122t-8 -160q0 -100 31.5 -171t107.5 -149q66 -68 136.5 -100.5t166.5 -42.5q14 -2 39 -2q47 0 98 14q96 27 133 33q55 8 82 -43t27 -117q0 -78 -27 -82 q-86 -12 -182 -23.5t-168 -11.5q-150 0 -260 35q-133 43 -238 139q-131 121 -188 253t-57 313zM63 772q0 -31 4.5 -61.5t11.5 -67.5t21 -92q4 -16 13 -43q-6 61 -9 98q-8 113 -8 182q0 78 25 209q8 43 24 117q-12 -27 -18 -43q-18 -45 -28.5 -83t-18.5 -77t-11 -64.5 t-4.5 -45t-1.5 -29.5zM463 774q0 -37 4 -68.5t10 -60.5q8 59 15 94q20 102 50.5 158.5t98.5 128.5q23 25 66 64q-23 -10 -35 -17q-37 -18 -60 -35q-37 -27 -60.5 -55.5t-46 -70.5t-32.5 -71.5t-10 -66.5zM535 66l75 -17q55 -8 128 -12t136 -4q82 0 152 11t88 32q4 4 7 17 t3 34v23.5t-2 17.5q-10 -18 -16 -29q-20 -35 -36.5 -51t-91.5 -23.5t-187 -7.5q-80 0 -143.5 2t-112.5 7zM670 762q0 -43 27.5 -77t66.5 -34q65 -5 102 58q20 35 21 57q0 25 -21 57q-31 47 -67 47q-10 0 -27.5 -6t-28.5 -8q-74 -27 -73 -94zM712 1464q-3 0 45 -11t103 -26 q170 -47 266.5 -99t229.5 -179q45 -41 117 -119q-25 45 -41 70q-49 76 -92.5 123t-80 74.5t-99 63.5t-112 54.5t-122.5 34.5q-45 8 -93.5 11t-101.5 3h-19zM1124 412q20 -10 31 -15q39 -16 66.5 -20t35.5 -4q23 0 54.5 11t50.5 28q25 27 38 41t34 45q6 8 16 24 q-35 -37 -55 -55q-66 -57 -117 -68q-25 -4 -39 -4q-43 0 -92 11q-8 0 -23 6z" />
<glyph unicode="A" horiz-adv-x="1914" d="M37 408q0 113 14.5 231.5t38.5 261.5l6 64l2 65v49v39q-4 27 -4 39l-8 143q0 102 27.5 169t114.5 103t274 56q84 10 186.5 16.5t210.5 6.5q285 0 517.5 -32t328.5 -95q76 -49 105.5 -118t29.5 -161q0 -70 -12 -155q-33 -236 -33 -279q0 -61 2 -92t14 -103 q41 -276 41 -317q0 -100 -30 -160q-37 -68 -123 -98l-144 -39q-59 -12 -120 -12q-84 0 -149.5 30.5t-121.5 104.5l-24 45l-9 43q0 47 57.5 126t57.5 122q0 20 -8 39q-33 88 -131 138t-217 50q-115 0 -201 -43t-123 -137l-8 -51q0 -57 63.5 -158.5t63.5 -140.5q0 -23 -4 -31 q-18 -59 -111 -94q-90 -31 -211 -31q-86 0 -157.5 13.5t-102.5 41.5q-55 41 -80 129q-10 41 -16 97.5t-6 124.5zM84 385q0 -29 1 -60.5t16.5 -81.5t68.5 -102.5t86 -64.5l74 -8q12 0 39 20l18 27q-96 12 -111 22q-39 23 -79 80q-49 68 -66.5 186.5t-17.5 223.5v32l2 25 l-15 -66l-14 -118l-2 -60v-55zM133 1202q4 33 9 62.5t14 56.5q31 125 80 168q61 51 163 76l90 12l-47 4l-39 2l-57 -8q-43 -6 -60.5 -14.5t-33.5 -18.5t-50 -39.5t-52 -75.5q-8 -20 -12.5 -40.5t-4.5 -47.5v-137zM602 1059q0 -47 20.5 -75t63.5 -28l19 2l67 7l88 4l80 -2 l76 -2l88 2q25 0 50.5 6t41.5 10q43 6 62.5 32.5t19.5 63.5q0 61 -47 127q-43 66 -101 80q-152 43 -227 43l-59 -2l-99 -24q-53 -12 -98 -91t-45 -153zM635 647l110 49q127 49 209 49q80 0 203 -61q37 -16 107 -61l-43 30l-86 49l-86 39q-47 14 -93 15q-49 0 -80.5 -7.5 t-44 -10.5t-49.5 -17t-96 -45zM1219 1614q121 -31 188 -58q205 -74 273.5 -154.5t99.5 -273.5l16 -178l8 142q1 69 11 110l6 74q0 51 -13.5 93t-54.5 89q-37 47 -106 74l-121 33l-221 34zM1450 12l78 8q47 6 70.5 9.5t33.5 7.5l88 29q41 16 73 51t54 90q18 55 19 104l-2 23 l-19 215l2 -39l2 -55q0 -92 -12 -158q-18 -90 -63 -145q-53 -63 -195 -109z" />
<glyph unicode="B" horiz-adv-x="1906" d="M29 1419q0 68 27.5 107t99.5 55q240 43 612 43q326 0 577.5 -40t358.5 -134q53 -47 76.5 -90t23.5 -82q0 -33 -18 -88l-33 -100q-31 -129 -223.5 -204t-497.5 -75h-24h-9h31l47 2q266 0 445 -45q301 -74 338 -260l18 -98l10 -84q0 -49 -16 -84q-12 -35 -53 -62 q-156 -115 -404 -164q-185 -36 -470 -36h-15q-47 0 -177 5t-190 5l-358 10q-92 0 -131 53t-39 150q0 96 48 326.5t48 330.5q0 96 -51 295t-51 264zM84 1446q0 -29 12 -90l35 -174l23 -199q6 -37 6 -111v-61.5t4 -65.5l4 111l2 107v30q0 123 -14 197l-19 135l-4 113v47 q0 33 19 47l-29 -2q-10 0 -21 -12q-18 -31 -18 -72zM90 184l6 -57q6 -23 30 -53.5t58 -42.5q41 -10 88 -11l60 3q39 0 59 4l23 -2l16 -2h23h57q35 0 53 4q-43 0 -66.5 2t-80.5 12q-154 20 -199 59t-70.5 132.5t-25.5 226.5v20l-12 -86l-15 -108l-2 -56zM539 1223 q0 -72 34.5 -129.5t79.5 -67.5l92 -14l76 -6q43 0 64.5 2t66.5 14q78 20 170 59q45 18 79 52t34 73q-1 48 -64 97q-68 49 -133 69q-27 8 -62.5 14.5t-70.5 6.5q-43 0 -75.5 -4.5t-79.5 -18.5l-152 -43q-31 -6 -45 -34.5t-14 -69.5zM573 362q0 -51 56 -94q59 -39 108 -39 q20 0 99 -5t122 -5l117 -4l121 6q20 2 42 8.5t65 24.5q31 12 49 43t18 70q0 49 -29.5 95t-70.5 46q-74 0 -221 37q-35 8 -70 14t-55 6t-45 -1t-66 -15q-51 -12 -133 -57q-53 -31 -80 -64q-10 -12 -18.5 -30.5t-8.5 -35.5zM1294 774l125 -33q139 -43 221 -104q35 -25 82 -84 t43 -88h56q13 3 13 12q0 3 -1 6q-35 70 -64.5 106t-93.5 81q-49 35 -98 49l-115 31zM1313 1524q31 0 69.5 -6.5t85.5 -20.5q90 -25 160 -77t101 -148l12 -82l8 41l4 49q0 31 -10 49q-37 68 -62 92q-10 10 -104 64q-12 6 -40 17t-73 24l-123 30q-4 -2 -9 -4t-11 -10z" />
<glyph unicode="C" horiz-adv-x="2027" d="M29 659q0 150 28 267q14 61 37 118.5t53 110.5q80 141 179 234q111 104 231 143q147 47 314 75.5t303 28.5q168 0 318 -34.5t312 -120.5q78 -39 130.5 -140.5t52.5 -199.5q0 -68 -25 -116t-78 -75q-25 -12 -55 -12q-55 0 -123 74q-158 178 -223 200q-166 51 -287 52 q-78 0 -149.5 -18.5t-153.5 -65.5q-158 -88 -246 -183q-112 -118 -112 -239q0 -53 22 -111q37 -96 97.5 -151.5t181.5 -85.5q47 -10 113.5 -18.5t115.5 -8.5q74 0 152 14q84 12 172 45l297 156q111 55 174 55q35 0 60.5 -16.5t37.5 -63.5l8 -69q0 -145 -172 -268 q-141 -98 -344 -154q-72 -18 -135.5 -31.5t-177 -29t-250.5 -15.5q-299 0 -592 92q-129 43 -197.5 200t-68.5 361zM113 944l110 162q131 178 213 239.5t150.5 87t140.5 25.5l-12 29q-14 29 -29 29q-53 -12 -95 -26.5t-75 -33.5l-84 -59q-63 -45 -123 -111l-86 -110 q-20 -27 -67 -134zM963 317l69 -6l105 -2l168 6q74 6 129 29q66 23 155 84l189 127q10 10 71 23l25 4h-29l-39 -4l-118 -62l-105 -65q-59 -33 -135 -64q-27 -10 -55.5 -18.5t-71.5 -18.5l-70 -14zM1604 1460q72 0 168 -86q78 -72 110 -139q12 -25 23 -66l8 -61 q0 -45 -17 -78l-16 -26l27 20q31 26 39 63l6 60q0 45 -17.5 86t-57.5 102.5t-87 101.5t-115 60q-3 1 -6 1q-16 0 -47 -23z" />
<glyph unicode="D" horiz-adv-x="1914" d="M57 283q0 74 2 108.5t12.5 139t14.5 164t4 108.5q0 74 -4 135q-8 74 -14 140.5t-10.5 122.5t-4.5 104q0 121 27 188.5t102.5 85.5t201.5 32.5t237 14.5q106 0 206.5 -6t206 -19.5t203.5 -32t201 -44.5q221 -55 334 -262q100 -185 100 -443q0 -266 -96 -450 q-106 -209 -322 -279q-164 -53 -313 -76q-61 -8 -144 -14t-157 -6q-25 0 -137.5 5t-178.5 5l-331 12q-72 0 -109 70q-31 68 -31 197zM90 1372l23 -209l34 -332l3 -32v-37l-3 -78v-53q-6 -25 -8 -37l-37 -340q12 31 31 92q8 25 17 51q23 88 35 188.5t12 209.5l-9 262l-14 309 l-24 6l-46 8q-6 0 -9 -3zM500 1188q0 -80 24.5 -197t24.5 -164q0 -49 -12.5 -101t-26.5 -130q-6 -33 -6 -45q0 -41 12 -102.5t75.5 -91t156.5 -29.5q100 0 210 22l189 43q106 25 163.5 141t57.5 261q0 70 -6 127t-21 108q-33 119 -114.5 141.5t-239.5 75.5q-264 88 -348 88 q-70 0 -104.5 -31.5t-34.5 -115.5zM1073 45l184 33q147 37 177 51q51 20 105 57t93 82q16 16 33.5 40t46.5 63l86 178l-86 -119q-98 -127 -185 -193.5t-284 -138.5zM1120 1559l152 -50q166 -61 250 -129.5t182 -220.5l80 -137l-21 80l-37 115q-61 123 -204 215 q-61 39 -150 65l-119 31z" />
<glyph unicode="E" horiz-adv-x="1949" d="M39 1407q0 63 6 103t29 71q10 16 58 26.5t88 11.5t63 1q37 0 133 -4t114 -4l461 -23q102 0 385 25q141 12 211 12q102 0 174 -16q82 -12 148 -54q14 -8 14 -51q0 -61 -24.5 -151t-62.5 -164t-105.5 -106.5t-151.5 -32.5q-115 0 -305 61l-313 115q-178 63 -246 63 q-66 0 -94 -49q-25 -51 -37 -88q-8 -35 -9.5 -53.5t-1.5 -28.5q0 -47 25 -113q12 -35 41 -49t63 -14q47 0 172 38t166 38q37 0 63.5 -13.5t43.5 -48.5q31 -72 31 -131l-2 -43q0 -14 -15 -51q-10 -35 -35 -51q-12 -8 -26.5 -12.5t-36.5 -4.5q-49 0 -175 40t-177 40 q-39 0 -70 -13t-51.5 -44t-36.5 -76q-6 -27 -8 -39t-2 -41l6 -69l8 -64q0 -23 45 -22q53 0 232 61l346 117q109 31 197.5 47t158.5 16q117 0 195 -39q78 -35 120 -129q23 -57 45 -186l13 -109l6 -28q0 -31 -55 -49q-29 -6 -65 -10.5t-87 -4.5q-55 0 -86 2q-156 10 -178 11 q-147 0 -254 9t-215 21l-836 -49q-41 23 -65 88q-18 61 -19 158q0 35 2 81t9 99q24 248 24 322v6q0 129 -25.5 352t-25.5 293zM80 1352l2 -37l10 -174q12 109 25 168q31 174 76 204q31 20 69 21l45 -6l51 -15q10 8 13 13l6 35q0 20 -17 22l-65 2q-33 0 -53 4q-31 0 -50.5 -7 t-53.5 -32.5t-46 -64.5t-12 -94v-39zM123 188l6 -61q6 -18 31 -41q23 -16 84 -25l129 -8h59h43q27 4 39 4q33 0 51 2.5t53 8.5h-174l-116 12q-86 12 -135 49q-6 4 -17 33l-6 57l2 43l8 45l-26 8q-25 0 -27 -16l-2 -57zM930 889q33 16 71 16q33 0 62 -13t61 -79l27 -65l-6 55 q-7 55 -21 67l-24 27q-18 23 -34.5 30t-53.5 11q-33 0 -52.5 -7t-29.5 -26v-16zM1327 492h16h25q88 0 172 -13q80 -8 127 -43q35 -25 51 -47q18 -18 19 -55l20 -4l41 2q10 4 6 12q-23 57 -43 84q-12 18 -52 45t-83 39t-84 12l-67 -6zM1397 1174q0 -31 12 -37l84 -25 q47 -12 86 -12l53 6q27 6 51.5 17.5t94.5 62.5q12 10 59 94l21 39l-80 -74q-88 -72 -166 -84l-31 -2q-43 0 -92 12l-86 27q-6 -14 -6 -24z" />
<glyph unicode="F" horiz-adv-x="1992" d="M27 1481q0 80 51 100q74 25 150.5 37t154.5 12q96 0 211 -14q303 -35 393 -35q59 0 132 6t181 23q204 28 284 28h5q121 0 203 -34q84 -31 137 -121q16 -23 27 -62l8 -65q0 -35 -12 -96l-15 -80q-6 -37 -53 -54.5t-127 -17.5q-129 0 -325 33l-408 71q-207 37 -291 37 l-80 -6q-31 -6 -52 -41t-21 -82q0 -66 30.5 -139.5t81.5 -136.5q16 -20 37 -28.5t53 -12.5q59 0 186.5 66.5t178.5 66.5t86 -43q63 -88 63 -186q0 -102 -71 -199q-37 -47 -97 -47q-51 0 -176 57t-176 57q-55 0 -92 -43q-16 -20 -29 -53l-8 -59q0 -57 21 -127l51 -184 q0 -31 -19 -43q-43 -27 -165 -50q-53 -8 -116 -14t-116 -6q-113 0 -182.5 18.5t-77.5 75.5l-4 121q0 113 59 428q29 160 29 279q0 88 -31 223q-70 309 -69 340zM78 1374l26 -82l39 -196l-10 98q-12 127 -12 188v60q0 39 15.5 59.5t47 32.5t88.5 12l54 -2l41 -2l-7 29 q-10 27 -25 27q-2 0 -5 -1l-152 -12q-51 -6 -88 -55q-24 -34 -24 -77q0 -32 12 -79zM76 178l4 -90l10 111q12 133 33 209q6 25 12 88t6 110l13 174l-11 -112l-28 -125l-25 -113l-10 -127zM307 12l131 19l133 24q70 12 88 45q12 25 17 50q0 29 -35 151l-31 119v-37l-6 -158 q-6 -70 -27.5 -101.5t-146.5 -76.5zM901 567l111 -37l47 -20l49 -10q27 0 50.5 10t38 22.5t32.5 51.5q6 14 -15 34q-12 8 -22 7l-37 -47q-16 -20 -29 -25l-45 -4l-116 6q-53 6 -64 12zM1526 1597l61 -8q137 -25 203 -84q43 -41 90 -137l33 -88l-6 72q0 33 -6.5 57.5 t-14.5 36.5l-22 45q-18 31 -47 54.5t-58 33.5l-80 12z" />
<glyph unicode="G" horiz-adv-x="1839" d="M14 1253q0 45 2 64.5t17.5 64.5t60.5 101q68 80 248 119q90 18 195.5 28t228.5 10q233 0 450.5 -31.5t372.5 -92.5q98 -37 160 -136q33 -47 48 -93t15 -99q0 -59 -21.5 -102.5t-74.5 -77.5q-74 -45 -149 -45q-86 0 -170 61q-31 25 -56 94q-18 72 -51 86.5t-82 34.5 q-70 29 -133 49q-98 31 -182 31q-45 0 -82 -6t-76 -23q-70 -25 -140.5 -93.5t-98.5 -152.5q-10 -37 -16.5 -87t-6.5 -113v-80l2 -84q0 -152 41 -215q53 -88 189 -88q106 0 286 90q31 14 69 35.5t91 54.5l-61 -20q-82 -20 -129 -21q-41 0 -67 7t-46 34q-39 51 -39 123 q0 55 22.5 97t69.5 61q53 14 127 14q121 0 266 -41q39 -10 72 -20q14 -4 55 -21q25 -6 57.5 -12t59.5 -17q123 -37 170 -77q31 -31 69 -189t38 -285q0 -76 -13.5 -117.5t-44.5 -47.5l-108 -21l-88 -6l-74 6q-27 6 -66 27q-35 23 -35 75q0 59 46 158q10 23 21 43.5t26 44.5 l-103 -78q-117 -84 -229 -151q-150 -86 -234 -98l-165 -17l-168 -6q-111 0 -210.5 12.5t-184.5 44t-126 117.5q-34 86 -34 214v7q0 82 14 238l14 242q0 63 -26 243q-12 84 -13 133zM61 334q0 -29 4.5 -51.5t18.5 -53.5q25 -57 70 -99t122 -67l125 -22l183 -14l-178 43 q-184 51 -232 98q-53 59 -88 227l-18 154v-43v-35q-4 -20 -5 -31zM86 1118l41 127q49 135 102 176q68 55 211 111l129 45h-36.5t-45.5 -4q-43 0 -86 -12q-80 -18 -120 -41q-47 -20 -80 -54q-35 -29 -57.5 -55.5t-33 -54t-16.5 -103.5zM387 774l8 -55q6 -70 47 -137l37 -54 l-12 43q-23 113 -23 234q0 131 33 244q10 43 35 88l-39 -62q-45 -74 -72 -139l-12 -80l-2 -35v-47zM844 676l2 -29q2 -4 2 -6q8 -20 18 -41l8 -16l-2 16v27l7 75q6 37 30 62q20 25 72 33l86 10h16l-8 4l-55 10q-66 0 -83 -4t-45 -27.5t-36 -49t-12 -64.5zM1452 1522 q80 -47 119 -82q121 -111 121 -238q0 -72 -68 -145l-70 -58l45 7q51 10 74 28q49 37 69.5 73t20.5 95q0 86 -42 148.5t-138 117.5l-74 31zM1485 707l63 -23q68 -27 101 -63q31 -29 65 -95l12 -30l-14 51q-18 57 -41 82q-31 37 -112 61zM1505 35l33 -8l43 -4q66 0 103.5 9 t61 38.5t32.5 60.5l8 68l-6 59l-8 47l-17 121l-8 -154q0 -76 -11.5 -123t-32 -68.5t-142.5 -39.5z" />
<glyph unicode="H" horiz-adv-x="1859" d="M23 1348q0 106 25.5 170.5t98.5 95.5q57 20 121 20q78 0 176 -26l129 -43q45 -18 64.5 -44t19.5 -65t-51 -180q-27 -80 -26 -113q0 -49 26 -82q59 -72 150 -114q94 -39 188 -39q86 0 164 33.5t129 103.5q25 31 25 78t-48.5 148.5t-48.5 144.5q0 57 54.5 101t151.5 68.5 t196 24.5q141 0 194 -41q39 -31 57.5 -87t18.5 -136q0 -90 -14 -197q-37 -288 -37 -366q0 -76 3 -110t13 -107l39 -340q0 -70 -13 -114t-51 -74.5t-98 -45.5q-29 -6 -58.5 -10t-64.5 -4q-90 0 -183 24.5t-122.5 61.5t-29.5 84q0 41 20 88q47 117 51 152q0 31 -14 59 q-43 90 -147.5 141t-219.5 51t-207 -46t-131 -138q-6 -16 -10 -47q0 -43 50.5 -133t50.5 -125q0 -41 -41 -80q-31 -31 -146 -61q-121 -27 -221 -27l-90 6q-37 6 -71 25.5t-52 77.5q-6 29 -10 64.5t-4 82.5q0 61 24 350q12 141 13 219q0 98 -29 330zM61 246 q0 -59 14.5 -106.5t57.5 -80.5q12 -12 41 21l25 37q-27 25 -45 71l-33 103l-12 123l-5 202v95l2 67l-24 -194l-14 -144zM272 1612q84 -23 127 -39q127 -49 146 -109l4 -32q0 -23 -8 -41l-29 -64l23 -20q25 -18 30 -7l33 70q10 31 14 62q0 25 -10 43q-25 49 -84 75l-100 33 l-107 21zM618 608l109 43q123 43 207 43q70 0 182 -47q27 -8 43 -16t55 -31l-94 57q-115 57 -192 58q-84 0 -203 -53q-29 -12 -53.5 -24.5t-53.5 -29.5zM1382 1585l33 2l51 2q72 0 140 -18q66 -14 92 -62q16 -29 24.5 -52t12.5 -58q0 -35 -15 -70l21 -12q23 -12 37 -12 q10 0 16 14l2 43l2 29q0 53 -13 87.5t-50 70.5t-89.5 46.5t-77 11.5t-38.5 1zM1599 100l21 -34q21 -26 38 -26q3 0 7 1q98 41 123 125l10 53l2 66q0 70 -12 153l-16 109l-27 192l2 -133l4 -139v-121q0 -94 -18 -121q-51 -74 -68 -86z" />
<glyph unicode="I" horiz-adv-x="1120" d="M18 258q0 66 12.5 113t45.5 62.5t61 15.5q4 0 21.5 -2.5t42.5 -8.5l39 -4q37 0 70.5 21.5t47.5 87.5q8 35 12.5 70.5t4.5 86.5q0 139 -30 277.5t-71 169.5q-27 18 -53 20l-33 -6l-32 -4q-23 0 -55.5 12.5t-46 62.5t-13.5 118q0 78 13.5 150.5t30.5 96t88 32.5t159 9 l125 -2l96 -6l104 6l140 2q51 0 96 -2t82 -8q37 0 57.5 -7t34.5 -26.5t29 -97.5q6 -37 10 -74t4 -75q0 -72 -10 -116t-43 -63q-31 -12 -64 -12l-39 4l-26 6l-25 -6l-26 -14q-39 -27 -73 -181.5t-34 -283.5q0 -84 12.5 -141.5t44.5 -81.5l39 -21l39 -4l37 4l64 11 q28 -1 59 -15q23 -12 39 -55q6 -23 10 -45.5t4 -54.5q0 -88 -22 -158q-18 -70 -60.5 -90.5t-106 -28.5t-90 -10t-85.5 -2h-56h-47q-16 4 -22 4q-37 0 -60 6l-88 -6l-102 -4q-43 0 -83 2t-81 8q-63 0 -129 33q-29 12 -48.5 78.5t-19.5 146.5zM49 238q0 -35 4 -45l27 -82 q12 -20 37 -43l45 -27l49 -10l45 -4h29h41l26 2l-37 2q-90 12 -168 75q-49 37 -75 121l-19 76l-4 -29v-36zM84 1372l4 -69l10 -82q0 66 6 108q16 121 66 168q14 14 55 27q45 10 80 10h19l10 -4l-2 33q-18 37 -47 36l-97 -6q-39 -6 -60.5 -31.5t-33.5 -78.5q-8 -49 -9 -73 t-1 -38zM559 799l2 -133l17 -269l4 273l-2 260l-11 272l-10 -268v-135zM700 1610l119 -17q125 -25 170 -57q31 -25 62 -133l24 -107l-6 117l-8 90q-8 43 -45 70q-14 10 -63.5 21.5t-116.5 11.5zM840 414q29 -4 41 -6t28 -11q74 -25 107 -59.5t47 -116.5l6 -74l2 25l10 78v39 q0 35 -6 54t-31 42q-12 10 -36 12l-43 9l-64 4h-29q-16 0 -32 4z" />
<glyph unicode="J" horiz-adv-x="1869" d="M14 481q0 68 60 109q29 16 64.5 25.5t72.5 9.5t76 -9q16 -2 32.5 -4t59.5 -16q51 -12 153 -127q51 -55 107 -76l57 -10q61 0 91 62.5t30 164.5q0 80 -10 150.5t-37 157.5q-45 160 -96 180t-88 20q-27 0 -66 -8l-63 -8l-51 6q-20 6 -58 31q-53 35 -84 110q-26 77 -26 156 v6q0 80 24.5 141.5t69.5 69.5q109 16 162 21.5t108 5.5q70 0 198 5t161 5q225 0 368 -14q70 0 129.5 -12.5t114.5 -35.5q31 -12 59 -79q25 -66 25 -146q0 -74 -19.5 -131t-70.5 -95t-97 -38q-25 0 -84 27l-47 14q-23 0 -57.5 -21.5t-51 -61.5t-16.5 -85q0 -76 71 -271.5 t71 -291.5q0 -59 -17.5 -113.5t-60.5 -99.5q-96 -104 -274 -160q-158 -45 -334 -45q-152 0 -263.5 23.5t-152.5 58.5q-76 66 -152 176q-45 68 -66.5 121t-21.5 102zM115 567l32 2l48 2q57 0 75 -4q27 0 57.5 -13t147.5 -93l113 -80l-119 104l-43 37q-33 27 -57 37l-52 25 q-25 12 -65 12q-35 0 -55 -4q-31 0 -66 -17zM291 1358q0 -33 8 -51q23 -68 82 -111q31 -20 61 -31l76 -6h49q12 12 13 23q0 27 4 37h-29h-33q-18 0 -45.5 4t-40 9t-35.5 19q-47 31 -84 121l-26 86v-16v-21v-63zM655 29l172 12q41 0 63.5 4t76.5 21q82 25 150.5 70.5 t104 89.5t72.5 122q12 29 13 70v44t4 50l-23 -80q-68 -180 -202 -259t-300 -122zM1343 1569q6 2 23 2q23 0 65 -13.5t62 -37.5q53 -55 78 -131q16 -53 16 -99v-16l-2 -10l6 26q13 68 13 101q0 82 -60 141q-31 33 -71 45q-6 2 -44 9t-63 13l-14 -8z" />
<glyph unicode="K" horiz-adv-x="1695" d="M20 205q0 84 13 205q33 328 33 376q0 74 -4.5 142.5t-18.5 204.5l-20 292q0 129 34 164q57 57 176 58q66 0 143 -24t132 -67q37 -29 55.5 -67.5t18.5 -87.5q0 -35 -43 -217q-8 -35 -14.5 -76t-6.5 -66q0 -41 3 -61t20 -55q4 -8 16 -11q31 0 193 187q215 256 317 346 q205 186 344 186q61 0 105 -28q78 -45 106 -74q43 -43 43 -105q0 -25 -4 -46t-19 -54q-18 -55 -69 -139q-61 -98 -201 -201q-104 -72 -229 -135q-98 -49 -111 -49l94 -45q106 -53 205 -123q131 -94 191.5 -174t93.5 -152q16 -37 24.5 -64.5t8.5 -56.5q0 -57 -35 -106 q-31 -43 -69 -62.5t-89 -19.5q-121 0 -317 135q-33 23 -112 86.5t-206 165.5q-168 137 -217 137q-23 0 -31 -16l-20 -55l-4 -70l2 -68q0 -45 4 -69q0 -51 -10 -82q-6 -29 -37 -66q-43 -49 -115 -75q-33 -10 -67.5 -16.5t-75.5 -6.5h-35h-25q-14 4 -20 4l-74 19 q-43 12 -61 59q-14 53 -15 123zM59 225q0 -61 13 -123q6 -27 20 -41q4 -4 62 -20l47 -6q36 0 59 -4l-24 2q-59 18 -103 100q-10 20 -19.5 100t-9.5 199l-6 258l-16 -203l-19 -174zM236 1622l88 -33q98 -43 141 -98q23 -27 30 -74t9 -70.5t2 -72.5v-51v-33q-4 -20 -4 -29 q0 -35 -6 -57l10 63l14 82q29 90 29 146q0 66 -45 123q-23 29 -66 53l-57 24q-23 8 -74 17zM1141 719l162 -150q166 -164 200 -241q23 -57 23 -105q0 -33 -4 -49l-6 -39l30 -22q22 -12 33 -12q6 0 10 3q8 12 12.5 26.5t4.5 37.5q0 27 -2 39t-15.5 50t-42.5 95 q-39 74 -100 140q-45 49 -125 104zM1409 1059l41 43l57 61q37 49 72 115q39 84 39 147q0 33 -16.5 57.5t-77.5 73.5q-6 4 -11 4q-11 0 -22 -14l-12 -28l53 -37q25 -20 27 -54q0 -117 -74 -256q-25 -45 -76 -112z" />
<glyph unicode="L" horiz-adv-x="1753" d="M16 1370q0 61 18.5 118.5t69.5 108.5q29 29 68 45q37 12 90 14q31 0 49.5 -2.5t55.5 -13.5q23 -4 57.5 -13t64.5 -21q78 -31 115 -117q29 -76 29 -201q0 -88 -19.5 -246.5t-30 -255t-10.5 -131.5q0 -84 11.5 -127t42.5 -77q33 -29 100 -29q27 0 119 18.5t272 59.5 q86 18 153.5 28.5t117.5 10.5q109 0 179.5 -27.5t123.5 -105.5l26 -44q18 -37 19 -83q0 -39 -13.5 -81t-46 -98.5t-116.5 -80t-215 -23.5q-84 6 -145.5 10t-133.5 4l-283 15q-78 0 -198 -13l-320 -28q-61 0 -81.5 3t-49.5 13q-49 16 -74 57q-20 41 -29 85t-11.5 60.5 t-2.5 55.5q0 68 52 354q26 154 26 234v6q0 86 -24 207q-55 262 -56 311zM61 274q0 -59 18.5 -117.5t59.5 -93.5q23 -20 64 -32l76 -8l40 2l156 18q-74 0 -121 6q-127 16 -172 57q-49 49 -73 183q-6 43 -10.5 94t-4.5 113v30l2 25l-26 -186l-7 -46zM272 1581l99 -12 q63 -18 117.5 -86t74.5 -254l8 -174l9 196v45q0 90 -13 138q-18 59 -73 112q-35 29 -76 43l-90 25q-6 2 -11 2q-16 0 -30 -14zM1169 481l37 2l58 2q86 0 166 -18q80 -14 129 -61q74 -68 98 -160l8 -74l10 39q13 49 13 78q0 51 -33 92q-20 29 -70.5 65.5t-92.5 49t-91 12.5 l-43 -2z" />
<glyph unicode="M" horiz-adv-x="1990" d="M51 743q0 184 43 364.5t146 371.5q35 68 120.5 105.5t182.5 37.5q145 0 257.5 -66.5t180.5 -281.5l45 -201q16 139 37 215q61 227 184 289q96 45 201 45q129 0 234.5 -65.5t142.5 -188.5l92 -326q23 -80 35 -158.5t12 -150.5q0 -141 -37 -295q-18 -80 -49 -166t-78 -186 q-18 -41 -71.5 -61.5t-116.5 -20.5q-74 0 -157 24.5t-144 67.5q-57 45 -58 125q0 90 111 301t111 264q0 61 -80 62q-96 0 -179 -190.5t-190 -190.5q-90 0 -173 172t-183 172q-43 0 -57.5 -12.5t-18.5 -44.5q0 -51 108.5 -245t108.5 -288q0 -68 -43 -110q-61 -57 -158 -95 q-99 -32 -183 -32h-5q-70 0 -120 18t-75 59q-39 72 -71.5 155t-57.5 169q-47 178 -47 358zM102 608l9 -84q0 -39 10 -63l39 -139q23 -70 73 -140l52 -69q49 -59 102 -60q29 0 57 41l-2 21q-41 0 -75 22l-99 101q-70 70 -123 225q-20 53 -43 145zM598 1556q35 0 84 -18 t93 -49t104 -119l45 -80l-27 90q-12 45 -41 76l-65 60q-33 27 -76 45l-82 22q-14 0 -25 -10zM934 575l6 -24q12 -18 39 -31.5t53 -13.5l25 2q66 12 114 121l37 88l13 33l6 24l-76 -133q-29 -49 -66 -76l-36 -8q-66 0 -97 45q-6 10 -12 0t-6 -27zM1430 1538l26 2 q31 0 49.5 -2t64.5 -13.5t75 -39.5q63 -57 129 -164l55 -98l-23 61l-30 90q-25 104 -129 166q-33 20 -80 33l-92 14h-2q-13 0 -33 -22zM1657 147l22 -45q28 -28 44 -28q6 0 10 4q29 31 57 84l53 114l27 64l26 82l21 141l6 49l-39 -123q-23 -66 -46 -116.5t-44 -79.5l-43 -66 q-41 -55 -94 -80z" />
<glyph unicode="N" horiz-adv-x="1904" d="M35 311q0 27 2 78t2 76l14 272q0 18 -4 90t-4 125l-8 205q0 135 24.5 235.5t98.5 180.5q25 25 84 43t127 18t121 -19.5t86 -68.5l210 -274l295 -371l150 -188l-12 129q0 76 -4.5 138t-8.5 150q0 152 13.5 251.5t55.5 155.5t117.5 90t155.5 34q68 0 124.5 -23.5 t90.5 -72.5q59 -78 80 -193q8 -51 14.5 -124.5t6.5 -153.5l-2 -156l-9 -274q0 -53 25 -236q12 -90 12 -137q0 -35 -3 -66.5t-21.5 -79t-81.5 -88.5q-39 -25 -90 -39t-105 -14q-76 0 -161 25l-91 32q-178 61 -395 261q-154 141 -309 333l-123 164q66 -152 92 -225 q94 -260 94 -387q0 -74 -30 -109q-57 -59 -146.5 -91t-185.5 -32q-145 0 -225 66q-41 33 -60 100q-16 72 -16 170zM66 291l30 170q31 194 31 317q0 109 -27 275q-6 61 -26 151l8 -200q0 -27 2 -82.5t2 -83.5l6 -111v-45v-43q-4 -16 -4 -23l-14 -170zM143 1487l52 22 q68 25 122 25q35 0 60 -6q25 -2 53 -21q63 -33 191 -155q98 -94 202 -209l95 -107l-234 295l-115 152q-49 59 -118.5 79.5t-114.5 20.5l-45 -4l-47 -10q-23 -6 -64 -45zM336 16l127 33q59 12 76 21q49 18 84 73q23 39 22 82l-6 45q-2 20 -4 29.5t-12 32.5l-58 229l10 -78 q12 -104 13 -168q0 -78 -5 -105.5t-22 -49.5q-25 -37 -127 -94zM901 430l84 -70l105 -86l225 -145q96 -49 176 -68l82 -8q41 0 59.5 2t48.5 15q47 14 84 45q10 10 15 37q0 23 -4 30l-11 23l-84 -64q-48 -32 -99 -32h-3l-27 2q-106 12 -272 92q-106 49 -260 149zM1438 1540 l47 10l37 9l37 -7q14 -4 22 -9t29 -19q76 -49 145 -189q20 -41 51 -127l-41 176l-22 74q-14 33 -48 72t-80 63.5t-81 24.5q-29 0 -52.5 -9.5t-37.5 -39.5z" />
<glyph unicode="O" horiz-adv-x="1941" d="M53 754q0 244 56 401q63 182 233 315q88 70 200.5 108t225.5 38q123 0 239.5 -32t260.5 -93q164 -74 282 -141q160 -92 256 -183q113 -109 113 -202q0 -37 -11 -67t-50 -71q-131 -131 -306 -131q-113 0 -239 146q-82 92 -137 133l-127 88q-98 63 -197 63h-31l-37 -4 q-145 -18 -227 -116.5t-82 -241.5l2 -62l12 -63q18 -86 84 -131q39 -29 156 -59l62 -17l57 -10q31 0 63 16q18 8 46 24.5t61 41.5q158 111 158 225q0 78 12 116t61 81q10 10 25 -11l31 -41q37 -35 129 -102l79 -51l29 -4h47l68 2q25 4 53 16l43 27l49 26q12 -55 13 -83 q0 -188 -72 -305t-248 -216q-74 -41 -168 -78.5t-194 -66.5q-197 -55 -388 -55q-199 0 -342 65q-236 104 -303 268q-47 119 -47 437zM117 920q49 127 86 196q111 213 227 295q100 72 322 109l194 20l-108 8l-119 4q-55 0 -74 -6l-149 -49q-33 -10 -90 -49 q-74 -53 -119 -103.5t-84 -136.5l-47 -153zM442 590q51 -104 113.5 -166t132.5 -80l23 -4h26q68 0 164 33l82 33l-129 -19l-41 -6l-51 -2h-31l-37 8q-33 10 -67 31l-62 43q-12 6 -67 67zM1270 954l170 -145q20 -16 35.5 -25.5t44.5 -21.5q47 -14 82 -14q61 0 92 16l55 33 l121 96l-86 -47q-102 -49 -166 -49q-47 0 -103.5 18.5t-125.5 58.5z" />
<glyph unicode="P" horiz-adv-x="1878" d="M39 954q0 94 12 161t45 136q68 143 219 244q113 72 244 104q74 16 136.5 24.5t138.5 8.5q117 0 227 -14t295.5 -64.5t281.5 -111.5q122 -78 183 -242q24 -65 24 -153v-7q0 -47 -6 -90t-22 -92q-27 -82 -86 -145q-63 -63 -156.5 -93t-204.5 -30q-164 0 -373 61 q-76 23 -152.5 51.5t-154.5 63.5l-127 63l76 -102q84 -123 141 -240q78 -162 78 -266q0 -98 -59 -149q-39 -33 -117 -56q-35 -8 -78 -14t-86 -6q-115 0 -190 35q-90 41 -107.5 108.5t-38.5 136.5q-6 25 -37 123q-53 180 -73 279q-33 164 -33 276zM119 996.5q0 -25.5 4 -66.5 l8 -115q12 115 27 176q43 190 125 291q68 82 149 131q47 29 184 64q18 6 19 20q0 14 -15.5 28.5t-39.5 18.5l-25 -6l-154 -70q-78 -37 -128 -88t-79.5 -99t-70.5 -163l-4 -31v-36v-54.5zM530 92q0 -14 19 -33q16 -12 47 -14l18 4l119 47q42 23 60 82l6 29l2 31 q0 35 -12.5 78.5t-63.5 162.5q-6 18 -55 80l-49 62l53 -152q53 -170 53 -231l-2 -23q-12 -35 -82 -65l-96 -33q-12 -6 -17 -25zM702 1237q0 -57 34 -105.5t91.5 -54.5t133 -38.5t114.5 -37.5q29 0 52.5 9.5t50.5 33.5q29 12 47 27q49 37 49 82q0 41 -45 86q-76 72 -191 72 q-117 0 -202 18l-41 4q-43 0 -68 -27.5t-25 -68.5zM1464 1368q0 -16 19 -33q53 -35 90 -75q29 -29 72 -99q37 -61 56 -130.5t19 -127.5l15 19q29 82 28 147q0 78 -34 150q-29 68 -70 112.5t-115 89.5l-18 4q-20 0 -41 -17t-21 -40z" />
<glyph unicode="Q" horiz-adv-x="1941" d="M53 754q0 244 56 401q63 182 233 315q88 70 200.5 108t225.5 38q123 0 239.5 -32t260.5 -93q164 -74 282 -141q160 -92 256 -183q113 -109 113 -202q0 -37 -11 -67t-50 -71q-131 -131 -306 -131q-113 0 -239 146q-82 92 -137 133l-127 88q-98 63 -197 63h-31l-37 -4 q-145 -18 -227 -116.5t-82 -241.5l2 -62l12 -63q18 -86 84 -131q39 -29 156 -59l62 -17l57 -10q31 0 63 16q18 8 46 24.5t61 41.5q158 111 158 225q0 78 12 116t61 81q10 10 25 -11l31 -41q37 -35 129 -102l79 -51l29 -4h47l68 2q25 4 53 16l43 27l49 26q12 -55 13 -83 q0 -188 -72 -305t-248 -216q-74 -41 -168 -78.5t-194 -66.5q-197 -55 -388 -55q-199 0 -342 65q-236 104 -303 268q-47 119 -47 437zM117 920q49 127 86 196q111 213 227 295q100 72 322 109l194 20l-108 8l-119 4q-55 0 -74 -6l-149 -49q-33 -10 -90 -49 q-74 -53 -119 -103.5t-84 -136.5l-47 -153zM442 590q51 -104 113.5 -166t132.5 -80l23 -4h26q68 0 164 33l82 33l-133 -31l-27 -2h-20q-49 0 -95 12t-81 33l-62 43q-12 6 -67 67zM678 676l2 39l14 35q29 72 160 133l123 45l12 -74q18 -76 49 -123q49 -68 95 -100 q43 -27 161 -51q117 -18 150 -33q88 -29 147 -94q61 -61 93 -124t32 -126q0 -55 -24 -105q-20 -49 -50 -80q-43 -49 -47 -67q0 -14 9 -31q20 -39 69 -39l56 8l77 17q43 6 74 20l68 25q27 6 54.5 10t57.5 4h41q24 0 49 4l-39 -65q-47 -76 -83 -113q-59 -63 -123 -100 t-166 -66q-66 -18 -137 -31q-33 -6 -64 -10t-55 -4q-78 0 -131 23q-53 18 -107 80q-45 51 -71 116q-18 55 -19 146q0 51 57.5 118.5t57.5 102.5q0 23 -4 31q-18 57 -131 90q-66 18 -103 45l-229 157q-125 96 -125 187zM713 684l2 -25q4 -4 12 -8t29 -10l35 4q-10 33 -15 68 l6 39q6 14 41 47l78 63l45 33l-31 -10l-53 -25l-41 -22l-33 -27l-53 -59q-23 -33 -22 -68zM1206 -63q0 -47 3 -70t5.5 -33t12.5 -31q43 -104 135 -151q45 -23 84 -31l86 -8q39 0 57.5 2t55.5 14q66 14 133 41q35 14 63 29q4 2 49 29l60 39l-115 -58q-143 -57 -256 -57 q-84 0 -147 29q-115 49 -172 143q-31 51 -48 166l-4 -17zM1270 954l170 -145q20 -16 35.5 -25.5t44.5 -21.5q47 -14 82 -14q61 0 92 16l55 33l121 96l-86 -47q-102 -49 -166 -49q-47 0 -103.5 18.5t-125.5 58.5zM1593 10l27 23q31 29 39 41l16 24l13 29l10 47l-2 35l-2 39 l-8 -45q-8 -49 -21 -72q-6 -20 -39 -72z" />
<glyph unicode="R" horiz-adv-x="1816" d="M16 197q0 78 33 287.5t33 293.5q0 113 -33 330t-33 289q0 74 14.5 124t47.5 80.5t112.5 40t144 13.5t148.5 4q166 0 231.5 -3t192.5 -14q100 0 217 -12q45 -4 233.5 -26.5t293 -103.5t135.5 -255l4 -31v-30q0 -115 -78 -219q-29 -39 -77 -85t-111 -94q-82 -61 -189 -94 q-81 -24 -160 -24h-6q-25 0 -51 2t-53 8q-18 0 -41 10q20 -14 43 -29q37 -25 66 -38q61 -33 141 -65t160 -56q82 -12 134 -22.5t83 -18.5q117 -31 135 -131l6 -66q0 -92 -48 -151.5t-155 -110.5q-25 -12 -61 -18l-66 -7q-170 0 -409 152q-170 106 -363 285l-158 153l37 -102 q39 -129 39 -215q0 -53 -11 -93t-40 -73q-41 -47 -106 -72q-27 -8 -61 -14t-66 -6q-47 0 -97 8l-108 16q-55 12 -80 58q-23 49 -23 125zM68 1362l2 -53l10 -47l24 -224l19 -190v39v51q0 88 5 216t5 142q0 78 13.5 123t37.5 68q47 43 240 90l182 33l-237 -8 q-90 0 -147.5 -11.5t-102.5 -66.5q-25 -29 -41 -72q-8 -37 -9 -57.5t-1 -32.5zM424 109l10 -31l21 -27l51 49l22 39q31 55 31 109q1 49 -24 135l-56 223l17 -112q8 -66 12 -112t4 -91q0 -63 -16 -88l-33 -53zM512 1169q6 -20 23 -45q29 -41 73 -59l90 -23l111 -6 q176 0 315 58q123 52 123 112q0 8 -2 15q-18 53 -143 95t-266 42q-100 0 -177 -19.5t-127 -60.5q-26 -26 -26 -63q0 -26 6 -46zM1507 1524q14 -18 37 -49t43 -64q92 -135 92 -223q0 -86 -82 -219q-25 -43 -81 -113l59 41l72 70q41 51 63.5 106.5t22.5 118.5q0 70 -33 141 q-25 57 -58 92q-12 14 -75 60zM1532 20l51 29q55 33 84 66q43 47 62.5 78.5t19.5 76.5q0 53 -38 95.5t-89 60.5q-2 1 -5 1q-13 0 -42 -17l-14 -13l61 -53q29 -27 45 -61l6 -35q0 -66 -69 -154q-10 -14 -27.5 -32.5t-44.5 -41.5z" />
<glyph unicode="S" horiz-adv-x="1941" d="M23 274q0 78 18 119q35 72 143 135q20 12 37 19.5t50.5 17.5t78.5 10q86 0 271.5 -78.5t300.5 -78.5l88 -2h80q80 0 103.5 8t35.5 43q1 3 1 7q0 32 -89 54l-232 37q-276 47 -495 155.5t-303 250.5q-29 45 -45 92q-23 61 -23 125l6 76q6 35 25 88q37 106 236.5 191 t432.5 85q98 0 203 -18l379 -70q231 -45 358 -92q164 -61 195 -128t31 -142q0 -68 -22.5 -115t-80.5 -68l-67 -8q-102 0 -266 41q-78 16 -312 86l-241 66l-89 14l-86 6q-57 0 -79 -10q-25 -6 -27 -35q0 -37 60.5 -62.5t168.5 -37.5q82 0 413 -94.5t427 -161.5 q74 -49 125 -119q31 -41 45 -79t14 -85q0 -135 -16 -186q-20 -76 -94 -133q-139 -109 -439 -162q-221 -37 -524 -37l-196 2l-158 12q-94 0 -167 16.5t-134 47.5q-141 66 -141 198zM74 299l6 -43q6 -33 39 -80l33 -47l-15 31q-6 23 -10 41t-4 43v39q6 23 8 30q10 39 33.5 74 t58.5 59q12 8 33 15q35 12 76 12q12 0 12 35v10l-2 10q-59 0 -122.5 -27.5t-104.5 -79.5t-41 -122zM100 1198l4 -43q6 -33 60 -127l51 -88l-18 66q-20 92 -21 147v57q6 23 8 31q10 41 35 74q61 90 232 180l157 72l-90 -17q-94 -18 -149 -45l-111 -47q-51 -25 -94 -69 q-29 -29 -47 -84q-8 -27 -12.5 -49.5t-4.5 -57.5zM1503 86l53 23q55 25 82 43l84 59q49 37 88 96q25 41 37 86q4 14 6 50t2 108l-49 113q-8 14 -67 69q-18 16 -56 51q31 -47 48 -71q51 -80 58 -104.5t13 -51.5t6 -45l-8 -78q0 -8 -9 -27.5t-17 -35.5q-6 -23 -31 -58 q-35 -49 -80 -92q-33 -31 -111 -94q-25 -20 -49 -41zM1516 1415q0 -12 8 -14q131 -39 166 -60q72 -35 108 -94q4 -8 11.5 -26.5t11.5 -34.5l8 -64v-24q0 -14 -4 -27l-6 -20l20 30q25 35 27 60q0 53 -6.5 79.5t-30.5 73.5q-33 55 -127 95q-41 12 -80 26q-16 6 -80 33 q-2 1 -5 1q-7 0 -13 -9z" />
<glyph unicode="T" horiz-adv-x="2027" d="M37 1255q0 63 26 162l29 107q18 59 113 84q45 10 110.5 16t149.5 6q104 -6 197.5 -10t205.5 -4l240 -8q72 0 344 26q129 12 203 13q141 0 211 -35q87 -44 112 -148l25 -125l8 -84q0 -53 -13 -93t-54 -90t-107 -50q-47 0 -165 44t-171 44t-96 -25q-59 -35 -59 -135 q0 -59 104 -422q23 -78 37 -151.5t14 -116.5q0 -82 -27.5 -137t-99.5 -92q-33 -16 -109.5 -26.5t-112.5 -11.5t-56 -1q-139 0 -239.5 19.5t-128.5 63.5t-46 105q-12 55 -12 127q0 106 39 260q86 342 86 383t-7.5 66.5t-29.5 50.5q-18 25 -54 38t-67 13q-63 0 -206.5 -61.5 t-209.5 -61.5q-72 0 -117 60q-33 43 -51 96q-8 29 -12 51.5t-4 52.5zM66 1272q0 -31 12 -80q6 -23 12 -41t16 -37q18 -27 56 -55q10 -8 34.5 -17.5t61.5 -9.5q53 0 98 15t80 40q18 10 19 37q0 25 -15 39q-6 6 -12 7t-8 4l-82 -44q-31 -12 -72 -12q-29 0 -55 10 q-66 20 -102 148l-21 123l-10 -37q-12 -49 -12 -90zM1266 94q-2 -2 -2 -4q0 -8 14 -24q25 -20 47 -21q12 0 29 12l76 82q32 49 32 133q0 51 -12 119t-41 160l-47 145l-45 176l33 -245q35 -283 34 -344l-2 -25q-12 -63 -51 -104zM1569 1556l2 -36l61 6q39 0 55.5 -2 t56.5 -16.5t73 -51.5q59 -70 94 -192l18 -111l13 41q12 55 12 133q0 61 -25.5 119.5t-83.5 103.5q-76 53 -162 54l-59 -5q-43 0 -55 -43z" />
<glyph unicode="U" horiz-adv-x="1941" d="M41 1171q0 127 65 211q74 94 244 154q76 25 119 34t67.5 13t53.5 4q39 0 67.5 -4t86 -21.5t87 -57.5t29.5 -97q0 -72 -73.5 -273.5t-73.5 -297.5q0 -61 18.5 -108.5t70.5 -92.5t109.5 -68.5t96.5 -23.5q59 0 108 37q16 14 29.5 28.5t32.5 40.5q31 47 43 92q6 25 10 48.5 t4 50.5q0 90 -74 252.5t-74 230.5q0 55 24 96t87 80q92 57 182 92q111 41 199 41t154 -39q92 -55 128.5 -104t36.5 -107q0 -47 -72.5 -219t-72.5 -313v-43l4 -45l105 -375q41 -152 41 -233q0 -41 -9 -68q-6 -33 -26 -49q-35 -35 -94 -35q-90 0 -232 86q-121 74 -129 109 l-125 -52q-72 -27 -149 -51q-51 -16 -152 -45q-209 -53 -352 -53q-121 0 -210 30.5t-136 108.5q-23 35 -39 123l-23 160q-20 98 -116 413q-70 233 -70 340zM307 440q0 -55 8 -102q25 -109 37 -137q25 -66 89.5 -105t131.5 -39q70 0 142 35q47 20 108 70l2 16 q-23 -6 -82 -19.5t-94 -13.5q-66 0 -140.5 37t-129.5 125q-31 51 -64 148q-2 10 -4 12zM459 1483l24 2q43 0 93.5 -22.5t80.5 -65.5q20 -27 21 -70q0 -49 4 -67l2 -56l-2 -78l6 13l76 143q37 72 37 111q0 47 -45 90q-66 61 -135 61q-25 0 -66 -12l-78 -33zM1487 1513l65 -20 q92 -18 125 -59q43 -49 43 -129q0 -43 -12 -86l6 -5q29 29 68 84q31 43 30 91q0 68 -53 122q-27 29 -56.5 43.5t-70.5 14.5l-53 -6q-27 -6 -49 -21zM1712 354l8 -78l2 -26v-27v-57v-38.5t5.5 -39t48.5 -33.5q3 -1 6 -1q19 0 37 22q20 24 24 47q0 35 -4 47l-33 102l-59 217 l-27 113l-6 -78l-2 -106v-64z" />
<glyph unicode="V" horiz-adv-x="1941" d="M47 975q0 229 88 405q115 229 332 230q186 0 287 -238q27 -63 118 -444q55 -240 142 -240q66 0 116 238q72 334 125 444q111 240 326 240q154 0 250 -142q84 -131 84 -321q0 -98 -19.5 -183t-68.5 -165q-158 -281 -402 -520q-270 -266 -442 -267q-113 0 -307 119 q-213 127 -379 309q-190 209 -240 420q-6 29 -8 49.5t-2 65.5zM387 1518q55 0 109 -54q12 -10 137 -217q16 -25 33 -73q10 -29 24.5 -55.5t28.5 -49.5l123 -221l-60 213q-33 115 -75 217q-59 150 -74 176q-49 78 -148 107h-2q-19 0 -69 -27zM393 418q104 -117 287 -236 l82 -47l151 -76q4 -2 8 -2q20 0 58 43l2 17l-20 -4q-41 0 -113 34l-131 68l-74 43l-74 53l-149 99zM1499 1507l8 -14l25 6q37 0 96.5 -38t97.5 -83q43 -45 63.5 -117.5t20.5 -132.5q0 -113 -45 -163l31 55q37 67 49 110l8 78q0 41 -2 61.5t-13 73t-48 95.5q-49 68 -82 88 q-51 35 -127 35q-49 0 -82 -54z" />
<glyph unicode="W" horiz-adv-x="1941" d="M39 819q0 301 86 533.5t227 257.5l39 2q78 0 170 -35q92 -31 131 -72t53 -86q8 -23 12.5 -43t4.5 -47q0 -96 -91 -278.5t-91 -233.5q0 -61 71 -92l25 -8l33 -2q92 0 165.5 164.5t108.5 164.5q47 0 139 -134t158 -134q23 0 50.5 12.5t40.5 34t13 51.5q0 61 -117.5 249 t-117.5 282q0 33 12.5 66.5t46 67.5t112.5 57.5t161 23.5q78 0 140 -22.5t87 -73.5q84 -199 143 -439q33 -135 49.5 -255.5t16.5 -237.5q0 -221 -64 -361q-74 -160 -229 -208q-51 -14 -98 -15q-63 0 -144 19q-31 8 -53 14q-47 14 -92 33q-127 49 -197 194q-20 43 -45 138 l-22 -48q-68 -117 -187 -223q-80 -72 -139 -106q-74 -43 -151 -43l-45 2l-45 12q-182 55 -281 299q-86 215 -86 520zM137 1204q29 63 56 109q70 115 141 149q31 16 80 25l84 8q37 0 51 -8l-27 20q-49 33 -88 47l-49 11q-25 0 -43 -11l-45 -30q-61 -43 -98 -117l-49 -117 q-10 -25 -13 -53v-33zM190 258q20 -49 50 -96q27 -35 79 -76q14 -10 41 -21.5t66 -25.5l33 -8l-62 39q-63 47 -102 88q-16 16 -27.5 55t-25 62.5t-29.5 23.5q-10 0 -20 -12q-3 -8 -3 -22v-7zM983 971l10 -49q12 -51 30.5 -84t47.5 -68q41 -49 84 -76l23 -4q20 0 34.5 8.5 t18.5 24.5q0 12 -14 20l-66 52l-64 65zM1309 1511l51 9l74 4q39 0 62.5 -4t49.5 -17q63 -31 127 -143l47 -107l-2 109q-8 57 -43 113q-31 55 -79 79.5t-97 24.5l-37 -4l-41 -6q-18 -2 -67 -31zM1325 166l6 -31q18 -31 49 -49q55 -37 127 -37l66 6q82 16 125 52.5t96 130.5 l6 20q0 27 -35 27q-20 0 -34.5 -24.5t-57.5 -72.5q-51 -55 -100 -69l-64 -8q-49 0 -90 11t-71 34z" />
<glyph unicode="X" horiz-adv-x="1941" d="M39 1386q0 117 72.5 169.5t240.5 52.5q121 0 256 -133l213 -250q101 -115 164 -115h6q59 12 164 147q156 213 188 246q125 131 254 131l33 -2q141 -14 189 -45q61 -39 100 -176l4 -27l2 -26q0 -106 -133 -252l-250 -238q-135 -123 -135 -174q0 -53 127 -123 q188 -104 235 -143q129 -105 129 -238q0 -109 -83 -151q-37 -16 -93.5 -24.5t-148.5 -8.5q-168 0 -295 96q-57 43 -170 181q-80 98 -125 98q-47 0 -180 -172t-293 -186h-60.5t-56.5 -5l-112 -8q-76 0 -119 29q-53 35 -101 127q-16 33 -16 67q0 100 152 209l331 240 q0 49 -114 156l-226 209q-121 133 -143 253zM143 1487q0 -12 15.5 -25.5t27.5 -7.5l56 23l92 8q88 0 211 -105l102 -104l-110 154q-33 43 -65 69.5t-83 41.5t-94 15q-80 0 -139 -47q-12 -10 -13 -22zM209 45q0 -20 41 -20l145 16l99 6q33 4 73 23q25 10 39.5 18t32.5 23 q43 35 80 102l16 31l-39 -33l-75 -53l-80 -43q-25 -12 -70 -23l-59 -4h-41l-68 -2q-35 0 -64.5 -10t-29.5 -31zM455 295l323 256l236 180l172 135l241 211l-98 -69l-217 -162l-223 -172l-340 -297zM1221 238l47 -43l88 -80q49 -39 96 -58q25 -8 49.5 -12t63.5 -4l121 6 q41 6 100 31q35 12 35 33q0 12 -14.5 22t-26.5 6l-113 -26l-108 -9q-90 0 -222 66q-43 18 -116 68zM1440 1497q0 -16 9 -25.5t28 -5.5l71 27q43 14 64 14q23 0 30 -4q45 -12 113 -90l60 -76l6 23l4 29q0 25 -10 41q-33 61 -56.5 87.5t-72.5 47.5q-51 14 -80 14 q-57 0 -148 -51q-18 -12 -18 -31z" />
<glyph unicode="Y" horiz-adv-x="1941" d="M20 1294q0 106 44.5 203.5t85.5 104.5l53 6h20q168 0 361 -138l354 -299q29 0 156 117q158 145 258 215q174 119 307 119q106 0 188 -82q41 -41 61.5 -92t20.5 -121q0 -135 -151 -217l-316 -123q-193 -82 -262 -217q-29 -57 -29 -133q0 -98 60.5 -270t60.5 -226 q0 -49 -23.5 -77.5t-92.5 -40.5l-107 -15l-98 -2q-92 0 -150.5 9.5t-119 30t-85.5 56.5q-20 37 -20 86q0 31 12.5 84.5t40.5 139.5q53 166 53 252q0 53 -18 106q-49 125 -223 199l-293 108q-147 74 -148 217zM51 1305l12 -60l15 -43q6 78 14 111q25 115 82 157q47 31 70 31 h2q19 0 76 -24l4 8l10 41q0 20 -25 30l-35 11l-47 8q-16 0 -43 -10q-74 -25 -106 -97q-29 -70 -29 -163zM934 29l119 8q119 12 145 26q49 31 49 89q0 29 -10 57l-14 55q-49 176 -54 180l-20 99l-39 -6q-23 -10 -28 -16.5t-7 -10.5q14 -33 47 -123q23 -61 31 -86 q18 -66 18 -111q0 -37 -18 -63.5t-121 -65.5zM1348 1483l71 22q92 25 158 25q45 0 75.5 -7t57.5 -28q47 -33 74.5 -73t27.5 -81l-2 -22h56q26 0 26 14q-12 92 -43.5 142.5t-95.5 83.5q-33 16 -61.5 24t-63.5 8q-43 0 -80 -12q-20 -6 -46.5 -18.5t-69.5 -34.5z" />
<glyph unicode="Z" horiz-adv-x="1941" d="M35 1272q0 96 49 174t397 127q164 23 352.5 35t385.5 12q221 0 370 -14q72 0 133.5 -13.5t110.5 -32t67.5 -54.5t18.5 -89q0 -27 -2 -44t-12 -60l-25 -121q-18 -98 -293 -266q-215 -129 -502 -258q-246 -111 -274 -115l-80 -37q-80 -43 -80 -76q2 -4 4 -9t9 -13l18 -4h29 q49 0 108.5 12t138.5 53l398 66q194 26 276 26h6q131 0 190.5 -41t59.5 -139v-49l-8 -35q-25 -150 -29 -153q-18 -43 -118 -80q-117 -45 -299 -70q-76 -8 -178.5 -14t-194.5 -6q-289 0 -596 32q-133 14 -342 45q-37 6 -64 103q-22 98 -22 202v9q0 141 37 178 q111 109 399.5 289t362.5 190l196 58q129 33 123 77q0 20 -6 31q-12 10 -21 10l-43 -6l-182 -39q-45 -6 -166 -30q-35 -6 -190 -41q-221 -45 -305 -45q-90 0 -131 34q-76 63 -76 191zM78 371q0 -82 51 -187l43 17q38 22 38 49q0 4 -1 8l-19 80l-4 68q0 51 17 86 q27 63 176 196l145 123l-229 -141q-68 -41 -100 -70q-55 -49 -89 -108q-12 -27 -20 -59t-8 -62zM100 1180q0 -10 9.5 -25.5t65.5 -41.5t106 -26q31 0 61 9l64 16q35 10 34 35q0 12 -10 20q-8 6 -24 0l-50 -18l-43 -4q-35 0 -55 10l-41 10q-14 2 -39 58q-6 12 -20 14 q-29 0 -54 -39q-4 -12 -4 -18zM1537 448.5q11 -12.5 30 -6.5q29 6 52 10.5t42 4.5q53 0 90 -39q8 -10 23 -49l8 -62l-6 -74l-13 -55l23 39l37 74l18 51l6 45q0 33 -16 68q-14 37 -54 54t-94 17q-41 0 -61 -4l-74 -12q-22 0 -22 -28q0 -21 11 -33.5zM1538 1520l4 -21h68 q84 0 118.5 -13t56 -52t21.5 -109l-6 -82l-12 -57l31 53l36 76q0 20 5 31l4 36l-6 41q-4 20 -15 39q-29 59 -110 84q-57 14 -142 15h-3q-29 0 -50 -41z" />
<glyph unicode="[" horiz-adv-x="1021" d="M31 143q0 96 20 508q10 207 10 357q0 141 -8 288q-20 367 -20 414q0 111 9 226.5t32 250.5q14 84 32.5 115t57.5 31q162 -57 356.5 -101.5t425.5 -44.5q55 0 55 -61q0 -43 -25.5 -106.5t-53.5 -114.5q-20 -33 -48 -46.5t-67 -13.5q-43 0 -143.5 25.5t-141.5 25.5 q-39 0 -66.5 -11t-48 -38.5t-28.5 -106.5t-8 -188q0 -121 7 -284.5t15 -345.5q-16 -195 -27.5 -368t-11.5 -294q0 -135 13.5 -219t50.5 -114.5t90 -30.5q47 0 110 20q158 51 189 51q66 0 102.5 -54t65.5 -114q37 -76 37 -121q0 -35 -20.5 -53t-69.5 -18q-166 0 -406 -118 t-295 -118q-53 0 -86 37t-49 125q-29 160 -42 314.5t-13 295.5zM78 106q6 -96 12 -153q18 -168 45 -277q12 -100 20.5 -141t65.5 -63q23 -10 49 -11q20 0 47 12.5t52 22.5q59 23 153 53q16 5 43 13q-25 -4 -58.5 -8.5t-78.5 -4.5q-61 0 -91 6.5t-54 22.5q-68 41 -144 289 q-25 82 -61 239zM88 1712q0 -74 1 -107.5t5 -64.5q29 193 51 291q72 297 170 323q43 12 95.5 16.5t107.5 4.5q35 0 57.5 -1t38.5 -3l-249 61q-33 12 -48 17q-29 10 -47 10q-39 0 -82 -35q-66 -55 -75 -156.5t-15 -171.5q-6 -39 -8 -107.5t-2 -76.5z" />
<glyph unicode="\" horiz-adv-x="1544" d="M49 1487q0 33 22.5 52.5t75.5 19.5q195 0 379.5 -205t360.5 -406q72 -70 266 -233q166 -139 233 -221q99 -119 99 -228q0 -59 -31 -75.5t-104 -16.5q-135 0 -320 205q-168 193 -336 385q-84 82 -266 233q-168 139 -235 215q-109 121 -140 244q-4 20 -4 31zM94 1436 q12 6 21 8q27 8 55 8q31 0 68 -12q82 -31 204 -121q39 -29 107 -84l-86 100q-37 35 -72 72q-37 35 -84 55q-2 2 -67 37q-41 23 -62 23q-29 0 -47 -19q-10 -10 -27 -47q-6 -10 -10 -20zM1139 324q12 -14 20 -21q25 -23 49 -37q53 -31 70.5 -38t44.5 -11t37 -4h20q56 0 64 45 q4 25 -6 88q-2 20 -13 62q2 -37 0 -58q-8 -66 -45 -96q-14 -10 -37 -10q-47 0 -129 39q-27 12 -75 41z" />
<glyph unicode="]" horiz-adv-x="1021" d="M10 -322q0 -35 20.5 -53t69.5 -18q166 0 405.5 -118t295.5 -118q53 0 86 37t49 125q29 160 42 314.5t13 295.5q0 96 -20 508q-10 207 -10 357q0 141 8 288q20 367 20 414q0 111 -9 226.5t-32 250.5q-14 84 -32.5 115t-57.5 31q-162 -57 -356.5 -101.5t-425.5 -44.5 q-55 0 -56 -61q0 -43 26 -106.5t54 -114.5q20 -33 48 -46.5t67 -13.5q43 0 143.5 25.5t141.5 25.5q39 0 66.5 -11t48 -38.5t28.5 -106.5t8 -188q0 -121 -7 -284.5t-15 -345.5q16 -195 27.5 -368t11.5 -294q0 -135 -13.5 -219t-50.5 -114.5t-90 -30.5q-47 0 -111 20 q-158 51 -188 51q-66 0 -102.5 -54t-65.5 -114q-37 -76 -37 -121zM408 2171l249 61q33 12 48 17q29 10 47 10q39 0 82 -35q66 -55 77 -186q6 -72 13 -142q6 -39 8 -107.5t2 -76.5q0 -74 -1 -107.5t-5 -64.5q-29 193 -51 291q-72 297 -170 323q-43 12 -95.5 16.5t-107.5 4.5 q-35 0 -57.5 -1t-38.5 -3zM457 -438q25 -4 58.5 -8.5t78.5 -4.5q61 0 91 6.5t54 22.5q68 41 144 289q25 82 61 239q-6 -96 -12 -153q-18 -168 -45 -277q-12 -100 -20.5 -141t-65.5 -63q-23 -10 -49 -11q-20 0 -47 12.5t-52 22.5q-59 23 -153 53q-16 5 -43 13z" />
<glyph unicode="^" horiz-adv-x="970" d="M29 1317q0 78 121 176q88 72 225 143q113 59 123 60q147 -74 219 -121q221 -145 221 -262q0 -33 -20 -66q-20 -31 -34 -46t-39.5 -32.5t-53.5 -17.5q-90 0 -203 184q-37 61 -94 185q-55 -119 -93 -179q-113 -180 -208 -180q-25 0 -52.5 14.5t-43 26.5t-42 45t-26.5 70z M70 1335q0 -25 10 -43q4 -6 24 -37q6 -8 41 -41q4 -4 13 -12q-16 27 -23 43q-23 51 -22 84q0 55 61 127q21 23 64 62q-25 -16 -39 -27q-45 -33 -66.5 -55.5t-42 -46t-20.5 -54.5zM731 1528q41 -43 62 -70q61 -82 61 -143q0 -29 -12 -76q-4 -14 -13 -43q12 12 19 18 q25 27 32 43.5t11 30t4 31.5q0 47 -27 84q-6 8 -65 67q-20 20 -53 46q-6 4 -19 12z" />
<glyph unicode="_" horiz-adv-x="2592" d="M-61 -565q0 23 18 38t43 11h2593q25 4 45 -11t20 -38q0 -27 -20.5 -43.5t-44.5 -12.5h-2593q-25 -4 -43 12.5t-18 43.5zM-45 -569q0 -6 12 -23q6 -6 21 -16q2 0 6 -2q-8 8 -10 12q-12 18 -13 29q0 12 4.5 21t10.5 20l-23 -21q-2 -4 -5 -8t-3 -12zM49 -590l447 -14h268 l342 12h-340h-277zM700 -553l447 -18h268l342 16h-340h-276zM1450 -528l446 -15h269l342 13h-340h-277zM2605 -610q8 2 14.5 6t15.5 16.5t9 18.5q0 8 -8 20l-23 21q4 -6 4 -9q10 -23 11 -36q0 -8 -11 -23q-2 -4 -12 -14z" />
<glyph unicode="`" horiz-adv-x="419" d="M31 1757q0 39 37 62q78 45 147 45t147 -45q59 -37 84 -109t25 -164t-18 -180q-2 -16 -11 -39q-137 100 -204 158q-207 178 -207 272zM164 1829q16 -6 26 -10q63 -29 105 -64q33 -27 88 -106q18 -27 51 -76q-6 29 -8 45q-11 43 -25 76q-10 18 -18 39q-18 33 -43 53 q-53 47 -125 47z" />
<glyph unicode="a" horiz-adv-x="1228" d="M45 561q0 68 25.5 124t93.5 134q174 199 420 199l41 -2l80 -8q129 -18 227 -66q98 -41 182 -123q39 -39 57 -76q8 -16 12.5 -30.5t4.5 -34.5l-27 -109q-12 -43 -12 -86q0 -29 2 -43t12 -47l39 -123q25 -84 25 -139q0 -59 -31 -90q-25 -25 -74 -25l-88 13q-61 12 -98 12 q-35 0 -66 -10l-51 -8q-47 0 -47 53q0 37 40 178t40 213v57q0 94 -25 129q-29 35 -139 60q-25 0 -39 4l-41 4q-70 0 -128 -25.5t-111 -89.5l-35 -41q-37 -53 -37 -102q0 -27 9 -51.5t38 -53.5q29 -25 43 -24q6 10 8 16q16 33 23 51q18 59 75 59q7 0 15 -1l106 -8 q37 0 50 -50q22 -77 22 -140v-5q0 -111 -59 -178q-55 -68 -170 -68l-64 6q-170 25 -226 87.5t-93 248.5l-19 101zM98 504q-4 -20 31 -21q10 0 16 25l15 80q10 57 45 104l51 66l72 45q6 4 10 18q0 15 -12 27q-7 7 -17 7q-6 0 -14 -3l-94 -76q-14 -14 -43 -61t-41 -111z M299 131l53 -51q23 -14 56 -14h2q71 0 127 65q12 12 -0.5 33.5t-32.5 25.5q-12 -6 -12 -10q-10 -33 -24.5 -48t-45.5 -21q-27 -2 -53.5 13t-36.5 40q-6 12 -26 -4q-12 -10 -12 -18q0 -6 5 -11zM1049 434q6 -53 22 -96l21 -74l10 -63l8 -78q6 -39 35 -39q18 0 18 27v24l-2 70 q0 29 -10 65q-6 43 -27 86l-34 88q-6 18 -19 23q-23 0 -22 -33z" />
<glyph unicode="b" horiz-adv-x="1218" d="M29 983q0 45 4 148.5t4 111.5q0 57 7 129t22 160q6 43 67 72q66 26 140 26h6q97 0 163 -34q59 -30 59 -84q0 -7 -1 -13q-8 -45 -111 -301q-35 -88 -35 -166q0 -70 31 -180q0 -10 25 -14l243 84q106 36 185 36h4q61 0 116 -24q109 -53 169.5 -164t60.5 -238 q0 -133 -57 -245.5t-168 -180.5q-92 -53 -248 -83q-129 -20 -279 -21q-143 0 -266 14q-37 0 -113 17q0 66 -4 221.5t-4 171.5zM63 807l3 -86l12 2q25 31 24 55l2 213q0 51 2.5 76t14.5 104q4 41 12 98.5t18.5 119t41.5 143.5q2 12 -10.5 23.5t-26.5 11.5q-10 0 -17 -11 q-18 -59 -37 -155l-26 -195l-10 -194l-3 -103v-102zM78 471l4 -131l4 -107v-81l6 -64q2 -25 23 -33l35 -8q14 0 14 10l-23 78l-18 96l-12 119l-5 115v59l-14 -16zM334 459q0 -59 42 -98t103 -39l45 6q55 8 105.5 17t108 22.5t73.5 42.5l39 82q12 31 12 49q0 16 -4 24l-14 25 q-25 41 -47 57q-18 18 -43 19q-20 0 -56 -13l-84 -30q-61 -8 -120 -17q-12 -2 -60 -12q-63 -8 -90 -78zM618 72q0 -12 7.5 -19.5t21.5 -7.5l101 21q27 4 50 12t46.5 19.5t42.5 19.5q29 14 55.5 30.5t42 29.5t35.5 36q6 6 -4 17.5t-27 15.5q-10 0 -26 -13q-51 -57 -127 -94 q-43 -20 -93.5 -32.5t-99.5 -12.5q-25 0 -25 -22zM786 885l7 -25q6 -6 22 0q25 10 55 14q29 0 64 -18q18 -12 39 -39l24 -41q12 -16 29 -16q10 0 20 12q8 8 8 16q0 3 -1 7q-18 41 -40 60t-67 42l-39 12l-45 2l-59 -2q-12 0 -17 -24z" />
<glyph unicode="c" horiz-adv-x="1228" d="M66 492q0 106 26 165l14 25q49 135 199 243.5t324 108.5l43 -2q76 0 152.5 -28.5t181.5 -88.5q180 -102 180 -192q0 -37 -39 -68q-36 -26 -88 -26h-4l-41 2l-56 8q-37 6 -133 82q-41 33 -86 39l-59 6q-129 0 -228.5 -66.5t-99.5 -183.5t90 -197.5t213 -80.5q49 0 97 43 q117 121 141 129l82 26q47 14 76 15q29 0 39 -5q10 0 32 -12q47 -25 47 -63q0 -70 -145 -185q-31 -25 -63.5 -49t-69.5 -49q-68 -43 -148 -68q-37 -8 -81 -14t-87 -6q-174 0 -317 75t-168 187l-18 125zM106 471q0 -33 2.5 -61.5t8.5 -51.5q0 -14 26 -79l47 -78l43 -62 l-43 115q-43 129 -43 209q0 123 58 256q10 25 21 46t36 58l-51 -69q-55 -78 -68 -107q-37 -86 -37 -176zM805 131q14 -28 31 -28q6 0 12 3l63 35q47 29 93 68l40 39q33 31 54 63l16 54l4 16l-43 -43q-25 -25 -46 -44.5t-38 -31.5q-29 -23 -69 -45l-115 -61q-7 -3 -7 -10 q0 -6 5 -15zM860 942l64 -43q74 -53 100 -96l33 -51q18 -23 14 -37.5t7.5 -23.5t33.5 -9q32 0 32 29q0 5 -1 10q-6 29 -23 49q-10 18 -37 45l-39 37l-65 41l-74 33z" />
<glyph unicode="d" horiz-adv-x="1218" d="M51 532q0 129 55.5 234.5t174.5 167.5q25 12 57 18l63 6q84 0 195 -40l233 -80q23 0 25 14q31 98 31 180q0 80 -33 164q-102 260 -113 303q-2 9 -2 17q1 47 59 78q68 36 167 36q82 0 143 -25.5t68 -72.5l28 -291l8 -260q-8 -143 -13 -280.5t-5 -272.5l-10 -395l-111 -15 q-158 -16 -268 -16q-164 0 -291 23q-68 10 -127 30.5t-115 53.5q-102 61 -161 176q-29 61 -43.5 119.5t-14.5 127.5zM186 795q-3 -5 -3 -10q1 -5 5 -11q8 -10 25 -14q12 0 27 14l24 43q14 23 45 41q27 12 62 16l24 -4l29 -10q12 -6 20 2l9 23q-1 24 -17 24l-65 2 q-41 0 -78 -14q-68 -31 -107 -102zM219 213q39 -37 78 -64.5t94 -50.5q37 -16 101 -32l100 -21q4 -1 8 -1q21 0 21 28q0 18 -25 22q-55 0 -96 10.5t-48.5 13.5t-43.5 19l-72 41l-60 55q-12 12 -26 13q-12 0 -29 -13q-5 -6 -5 -11t3 -9zM377 541q0 -31 51 -131 q16 -31 104 -50l183 -32l47 -6q61 0 102 37.5t41 101.5q0 28 -10 55q-25 63 -109 82l-161 25l-76 24q-49 18 -66 19q-18 0 -40.5 -17.5t-45.5 -52.5q-16 -31 -20 -55zM1047 1532q27 -74 45 -174l28 -203l15 -164l2 -213q0 -18 16 -43l21 -14v86l2 102v31v27v24l-2 86 q0 49 -9 90q-4 47 -9 99.5t-19 130.5q-12 96 -37 159q-2 8 -17 11q-11 -1 -25 -11q-12 -9 -12 -19q0 -3 1 -5zM1075 57q8 -10 15 -10q16 0 33.5 7t21.5 26l6 70l2 83l4 142l4 96q0 12 -18 43l-10 10v-59v-25v-51q0 -33 -5 -61q0 -29 -12 -88q-2 -18 -5 -42t-11 -57 q-6 -39 -25 -84z" />
<glyph unicode="e" horiz-adv-x="1228" d="M25 508q0 147 106 303q78 113 190.5 167t249.5 54l95 -6l104 -18q203 -43 274 -84q136 -68 136 -203v-14q0 -125 -140 -203q-74 -39 -286 -103q-106 -30 -176 -30h-5q-68 0 -196 30q-10 0 -13.5 -2t-3.5 -4q0 -16 29 -53q16 -20 28.5 -33.5t24.5 -21.5q33 -29 82 -39 l86 -10l43 -2q74 0 197 73q59 35 103 55.5t67 20.5q47 0 86 -41l24 -35l25 -39q20 -41 21 -75q0 -92 -142 -148q-57 -20 -137 -32.5t-174 -12.5q-96 0 -160.5 7t-136.5 32q-125 39 -201 86q-88 57 -144 162.5t-56 218.5zM84 555l2 -49l4 -41q0 -12 27 -12q29 0 26 22l-8 39 l-2 39q0 33 10 59l17 43q18 47 43 82q16 20 26 31t37 31q12 8 0 22q-23 18 -35 19q-6 0 -18 -9l-68 -81q-25 -37 -45 -97q-16 -59 -16 -98zM406 717q0 -49 53 -78q78 -39 139 -39q43 0 76 13.5t96 50.5q18 12 66 55l32 35q-25 47 -65 71q-45 20 -94 21q-47 0 -72 -4 l-121 -15q-41 0 -75.5 -34.5t-34.5 -75.5zM799 74q0 -25 12 -25q92 0 176 37l57 33q8 6 22 20.5t28 32.5q12 18 -13 55l-20 6q-20 -39 -39 -61q-25 -31 -55 -49q-57 -35 -117 -35l-39 2q-12 0 -12 -16zM913 887l9 -10l67 -33q16 -8 39 -37q38 -48 38 -100q0 -7 -1 -15l18 -8 q41 20 41 41q0 4 -2 8l-24 66q-6 18 -27 39l-43 34l-61 29q-7 3 -16 3t-19 -3q-8 -2 -13.5 -7t-5.5 -7z" />
<glyph unicode="f" horiz-adv-x="1228" d="M-33 -418l41 238q41 276 41 442q0 70 6 162t23 242q0 41 7 99t21 153l113 63q133 66 234 82q47 6 94 10t92 4q170 0 301 -41t189.5 -130t58.5 -128q0 -33 -25 -82q-29 -55 -102 -73q-25 -4 -55.5 -6.5t-92.5 -2.5l-18 -2q-51 0 -123 37q-147 80 -182 80q-39 0 -74 -24 q-119 -84 -119 -220l4 -45q6 -29 25 -47q16 -10 51 -14q43 0 166 43t178 43q68 0 97 -55q33 -76 32 -136q0 -68 -49 -127q-20 -25 -49 -36l-66 -9l-69 2l-45 5l-41 -3l-43 -2l-43 2l-41 3q-33 0 -55 -9q-27 -6 -47.5 -25.5t-24.5 -54.5q0 -45 56 -134t61 -126q0 -29 -27 -47 q-121 -74 -322 -110zM86 145l6 43l14 103l35 272l21 195l-4 8l-17 2q-18 0 -18 -10l-12 -199l-21 -233v-43v-31q-4 -18 -4 -25v-61v-21zM336 10l10 -61l25 -115l24 -96q1 -5 12 -5q5 0 13 1q45 13 39 33l-33 61l-45 86zM696 395l31 2l55 -6q31 -4 56.5 -18.5t38.5 -55.5 l4 -16l6 31l2 30q-2 33 -12 46q-6 12 -25 18l-33 8l-33 -6q-23 -2 -57 -18zM836 977l118 -39q27 -12 38.5 -20.5t31.5 -26.5q37 -27 80 -105l35 -67l4 20l2 23l-6 43q-20 61 -45 89t-74 64q-20 16 -62 33l-69 25q-2 1 -5 1q-13 0 -32 -18z" />
<glyph unicode="g" horiz-adv-x="1228" d="M-72 -209q0 68 43 146q18 37 64.5 54t99.5 17q90 0 213 -37l115 -41l49 -4q41 0 61 11l60 32q33 16 70.5 56.5t41.5 72.5q0 66 -38.5 87.5t-114.5 21.5l-78 -2h-38.5t-43.5 -4q-84 0 -123 12t-73 41q-70 59 -105 98q-41 47 -70 129q-27 86 -26 150q0 104 69 213 q59 96 172 139q59 23 232 49q55 8 103 12.5t102 4.5q78 0 133 -8.5t119 -32.5q113 -41 202 -140q23 -27 37.5 -71.5t14.5 -96.5q0 -43 -2.5 -68.5t-12.5 -86.5l-26 -176q-16 -164 -58 -289q-12 -41 -30 -94q-8 -23 -35 -92q-59 -160 -281 -234q-166 -53 -399 -53l-125 -4 l-92 -6q-43 0 -74 4t-64 16q-51 18 -71.5 75.5t-20.5 98.5zM-45 -172v-5q0 -10 5 -21q7 -13 22 -13q10 0 14 12l20 66l25 47q12 12 47 12l29 -2l26 -4q25 -4 25 35q0 12 -12 18h-9q-22 0 -67 -6q-45 -12 -72 -30q-20 -20 -31 -48zM84 616q0 -35 18 -77l37 -64l78 -119 l-33 95q-33 119 -32 188q0 70 63 195q19 38 64 108l-46 -35l-65 -55q-31 -35 -55 -100l-27 -109zM328 604q0 -45 30 -88q18 -25 52 -39q35 -10 73 -10l54 4l51 4h26l50 -2q33 0 51 -4l45 6q21 6 35 41l8 45l2 25q0 53 -19.5 106t-49 76t-68.5 33t-57.5 11t-28.5 1 q-123 0 -188.5 -65.5t-65.5 -143.5zM815 -287l74 49q72 51 91 77t42 89l27 92h-19q-47 -23 -53 -55l-8 -49q0 -18 -15 -39q-20 -39 -22 -41q-12 -16 -19 -22l-10 -11l-45 -47q-18 -23 -31 -32q-4 -4 -12 -11zM856 926l123 -56q43 -20 70 -43q43 -39 86 -129l32 -80l7 35 l2 45l-2 25l-7 35q-25 74 -36 93t-54 54q-31 25 -86 49l-73 33q-3 2 -7 2q-15 0 -41 -22z" />
<glyph unicode="h" horiz-adv-x="1228" d="M29 713q0 274 48 508.5t128 351.5q41 59 114 59q33 0 49.5 -3t51.5 -13l76 -23q43 -10 69.5 -53t26.5 -104q0 -117 -90 -351q-45 -119 -67.5 -188.5t-22.5 -91.5q0 -27 14 -35q16 23 33 45q27 35 49 59q98 111 197 142l98 6q61 0 84.5 -3t60.5 -13q66 -12 92 -48 q78 -100 125 -235q20 -63 32.5 -131t12.5 -135q0 -121 -35.5 -224.5t-109.5 -175.5q-31 -31 -58.5 -44t-60.5 -13q-39 0 -82 20l-61 29q-27 12 -40 32.5t-13 53.5q0 47 55 173t55 181q0 53 -49 84q-66 35 -133 35q-72 0 -134.5 -32.5t-117.5 -100.5q-27 -33 -27 -80 q0 -49 40 -146t40 -130q0 -47 -41 -74t-78.5 -40t-74.5 -13q-31 0 -59.5 12t-53.5 45q-68 88 -105.5 272.5t-37.5 391.5zM53 553l33 -168l25 -106l22 -66l31 -63l49 -84q6 -12 36.5 8t24.5 32l-32 60l-49 72q-39 72 -95 200zM61 889l37 174q25 102 46.5 171t43.5 109 q31 59 58 99l86 123q-4 8 -13.5 12t-29.5 4q-27 0 -39 -12l-57 -105q-10 -31 -13.5 -42t-15.5 -33l-41 -129l-33 -130l-16 -129zM795 922q57 0 77 -4q27 0 64 -19q37 -14 59 -41l37 -47l64 -76l39 -43l-17 49q-43 115 -98 168q-37 35 -77 52.5t-91 17.5q-23 0 -53 -37z M922 102l8 -32q19 -26 32 -26q3 0 5 1q25 10 53.5 29.5t52.5 52.5q33 41 62 106l12 29l-29 -24l-41 -37l-30 -31l-39 -27q-16 -10 -42 -22t-44 -19z" />
<glyph unicode="i" horiz-adv-x="688" d="M20 465q0 109 29 226.5t74 226.5q14 39 92 69.5t168 30.5q61 0 94 -10q39 -6 86 -35t68 -78q22 -43 22 -102v-5q0 -41 -30 -219q-8 -45 -12.5 -79.5t-4.5 -63.5v-59q6 -33 8 -50l11 -84q0 -41 -7.5 -68.5t-35.5 -58.5q-39 -49 -97.5 -74.5t-126.5 -25.5 q-113 0 -186.5 68.5t-112.5 174t-39 216.5zM74 324l37 -97q6 -12 20 -33.5t27 -35.5q31 -37 61 -62q23 -18 60 -39q6 -3 12 -3l12 3q6 6 10 27l-6 14l-49 35q-39 27 -55.5 46.5t-30.5 37.5q-4 6 -25 39l-26 66q-6 23 -19 26q-16 -4 -22 -9t-6 -15zM100 1395q0 100 64 178 q25 29 69 47q47 14 93 14q96 0 174 -49q35 -25 50 -54.5t15 -72.5q-6 -55 -33 -96q-20 -37 -73 -62l-99 -34q-47 -12 -90 -13q-31 0 -47 2t-51 15q-72 25 -72 125zM332 1581l53 -22q23 -8 44.5 -35t21.5 -54q0 -12 14 -12t24.5 10.5t10.5 26.5q-12 37 -41 66l-25 16l-57 20 q-6 2 -13.5 2h-9.5q-8 0 -20 -4zM420 934q6 -12 10 -16q27 -12 39 -25l27 -33q32 -44 32 -106q0 -16 11 -17q22 6 26 37v33v27v16q-4 10 -4 14q0 14 -18 37l-25 27l-59 30q-5 2 -10 2q-7 0 -15 -5q-14 -9 -14 -21z" />
<glyph unicode="j" horiz-adv-x="843" d="M-117 -209q0 23 11 45q37 84 120 117l52 8h32q23 -6 31 -8q86 -18 115 -19q31 0 41 5q10 0 34 12q47 25 70 62.5t23 86.5q0 53 -43 196.5t-43 225.5l2 35l-2 68l-9 104q0 47 11.5 82t40.5 66q88 100 215 100q16 0 39.5 -2t48.5 -8q80 -18 116 -86q29 -57 29 -154 l-12 -174l-10 -160q0 -31 2 -75t8 -101l10 -164q0 -94 -24.5 -166.5t-94.5 -140.5q-158 -152 -348 -152q-53 0 -119 13q-156 29 -225 59q-121 49 -121 125zM-39 -109q-2 -3 -2 -6q0 -11 25 -26l16 -6q16 33 33.5 48t52.5 21l61 6l-12 4l-41 11h-35q-16 0 -39 -11 q-43 -14 -59 -41zM330 1386q0 100 63 179q25 29 70 47q47 14 92 14q96 0 174 -49q35 -25 50.5 -54.5t15.5 -72.5q-6 -55 -33 -96q-20 -37 -74 -62l-98 -35q-47 -12 -90 -12q-31 0 -47.5 2t-51.5 15q-72 25 -71 124zM481 -307q-4 -2 -4 -8.5t4 -16.5q11 -18 21 -18h2l82 39 q29 16 71 55q35 31 70 86q23 33 39 74l-21 -4q-10 -6 -15 -12.5t-9 -12.5l-29 -35l-61 -59l-74 -51zM535 1604l45 -17q47 -20 69 -49l21 -37l10 -28q6 -12 25 -13l32 6q11 7 11 23q-8 37 -48 65l-32 21l-43 14l-54 13zM557 952l35 -10q78 -27 102 -70q12 -25 13 -55 q0 -35 4 -43q12 -8 22 -8q41 0 39 29q-8 53 -16 73.5t-35 40.5l-39 27l-37 12l-57 2z" />
<glyph unicode="k" horiz-adv-x="1228" d="M16 664q0 141 6.5 255.5t22.5 239.5q29 233 94 381q20 47 72 72q23 10 52.5 16t66.5 6q74 0 153 -20q47 -12 68.5 -42t21.5 -77q0 -68 -72.5 -258t-72.5 -264q0 -33 2 -47.5t16.5 -40t61.5 -49.5q37 -14 65 -15q94 0 255 191.5t225 191.5q43 0 77 -41q88 -104 89 -231 l-7 -80q-18 -117 -182 -184q-117 -49 -299 -68l-158 -10q27 0 168 -39q184 -49 314 -117q170 -86 170 -180q0 -31 -21 -66q-41 -68 -93 -103.5t-136 -59.5l-37 -5q-98 0 -245.5 180.5t-182.5 184.5q-27 0 -43 -49l-4 -35q0 -31 23.5 -85t27.5 -85q0 -29 -14 -57 q-20 -41 -92 -70q-69 -22 -145 -22h-7q-74 0 -128 18t-61.5 54t-19.5 130.5t-16 120.5q0 53 -4 123q-10 174 -11 236zM68 1108q0 -4 1 -8t3 -6q8 6 10 10q6 63 12 99t18.5 79t59.5 127q31 59 68 104q32 45 75 76l-14 6q-63 0 -86 -16q-25 -12 -43 -55q-18 -57 -33 -82 q-29 -66 -47 -170zM416 59l8 -16q8 -3 15 -3q9 0 16 5q25 24 37 51l4 31q0 25 -7.5 47.5t-17.5 35.5t-27 17l-10 -10l21 -39q6 -14 10 -43l-6 -22l-19 -31zM694 532l6 -6l140 -59q88 -39 143 -84q72 -57 92 -82q41 -45 62 -96q3 -5 8.5 -5t13.5 5q30 23 30 42q0 8 -5 15 q-57 63 -90 90q-6 6 -36 25.5t-57.5 39t-63.5 36t-89 36.5l-143 43h-11zM1034 721q9 -13 20 -13q4 0 7 1q47 23 61.5 39t43 64t28.5 97l-4 43q-4 18 -29 19q-20 0 -18 -17l2 -39q0 -35 -4 -47q0 -14 -15 -37q-25 -51 -39 -63t-49 -20q-7 -1 -7 -11q0 -6 3 -16z" />
<glyph unicode="l" horiz-adv-x="688" d="M18 764q0 244 28 445.5t69 338.5q12 41 67 70q59 27 131 27q49 0 105 -13q25 -6 51.5 -14t46.5 -21q41 -20 64.5 -56t23.5 -79q0 -68 -81 -252t-81 -284q0 -141 115 -391t115 -332q0 -84 -74 -137q-111 -74 -242 -74q-98 0 -151 49q-98 96 -148 301q-18 86 -28.5 190.5 t-10.5 231.5zM49 813q0 -33 4 -74l13 -217l12 31l8 31q0 29 -4 45v37l4 106l4 92l2 92l23 148q0 10 -25 51l-16 12l-15 -118l-10 -164v-72zM311 1604l11 -13l86 -16q53 -12 84 -68q16 -41 20 -71q0 -27 -18 -70q-6 -18 12 -20q29 -1 41 26q4 12 9 38t7 42q0 37 -21.5 77 t-74.5 60l-105 25q-8 2 -20 2q-18 0 -31 -12zM471 96q0 -10 25 -26q14 -6 28 -6q8 0 15 2q98 41 98 96l2 31q0 74 -43 169l-49 91q-12 18 -25 18l-8 -4l8 -25q37 -72 51 -133q6 -27 10.5 -53.5t4.5 -48.5q0 -27 -4 -41q0 -16 -31 -33l-70 -24q-4 -2 -7 -6.5t-5 -6.5z" />
<glyph unicode="m" horiz-adv-x="1327" d="M35 481q0 63 6 117.5t22 116.5q31 121 97 243q25 43 81 70t121 27q92 0 171 -44t122 -188l29 -135l25 143q39 150 122 193q61 31 136 31q86 0 155.5 -44t94.5 -126l61 -205q31 -111 31 -203q0 -86 -23.5 -188.5t-85.5 -231.5q-25 -55 -125 -55q-35 0 -52 2t-54 14 q-53 18 -93 46t-40 83q0 57 45 150q98 203 102 227q0 41 -53 41q-68 0 -123 -127t-123 -127q-61 0 -117.5 115t-120.5 115q-51 0 -51 -39q0 -16 15.5 -53t56.5 -111q74 -129 74 -191q0 -45 -29 -73q-39 -39 -104 -64q-29 -10 -61 -16t-66 -6q-100 0 -129 53q-53 96 -89 209 q-28 107 -28 223v8zM68 406l12 -99l26 -94q18 -47 52 -96l43 -56q26 -26 55 -26h2q18 0 37 26v15q-37 0 -78 37l-39 45q-43 43 -82 151zM393 1014q8 -8 17 -10q63 -12 100 -43q20 -16 31 -35l24 -47q4 -6 15 -11q14 0 10 25q-14 47 -64 90l-34 21l-70 24q-27 6 -29 -14z M623 385q0 -14 4 -18q23 -30 64 -30q7 0 14 1q41 6 67 59l33 80l12 39l-47 -88q-18 -31 -47 -51l-25 -6q-18 0 -36.5 9t-26.5 21q-6 2 -8 0zM954 1008l7 -13q45 0 65.5 -4t46.5 -20q45 -27 64 -78q6 -20 32 -21q17 1 15 17q-18 68 -86 110q-18 10 -58 21l-57 10h-2 q-15 0 -27 -22zM1104 98l16 -30q18 -18 30 -18q3 0 5 1q14 14 35 51l39 82l16 39l19 58l14 94l4 33l-27 -82q-33 -90 -59 -131l-39 -58q-18 -25 -53 -39z" />
<glyph unicode="n" d="M29 485q0 102 18 224q2 20 11.5 69t35.5 172q6 41 60 68q14 6 44.5 16t69.5 10q63 0 105 -28q31 -23 49 -113q6 -47 31.5 -74.5t42 -36t45.5 -12.5q20 0 211 146q91 69 174 69h2q37 0 80 -12q141 -43 207.5 -146.5t66.5 -258.5q0 -41 -3 -86.5t-19 -118.5 q-19 -111 -64 -250q-18 -61 -78.5 -95t-130.5 -34q-61 0 -115 22q-35 12 -49 40t-14 61q0 37 43 194q23 84 22 117q0 37 -12 61.5t-47 42.5q-78 33 -141 33q-123 0 -203 -98q-16 -23 -20 -51q0 -27 51 -96.5t51 -122.5q0 -51 -41 -115q-31 -49 -89 -73.5t-126 -24.5 q-76 0 -130 26.5t-73 79.5q-33 106 -49 203.5t-16 191.5zM61 508l39 158q45 168 80 219q25 35 43 45l64 20q10 4 10 21q0 12 -5 19t-18 14q-59 -10 -69 -17l-49 -33q-49 -41 -78 -217l-10 -106zM375 70q0 -20 8 -29.5t23 -3.5l59 43q23 22 35 59l8 51q0 27 -25 76 q-6 12 -28 15q-14 -2 -19 -5q-2 -10 -2 -14q23 -39 23 -63q0 -18 -11 -41q-6 -20 -24 -37l-37 -27q-6 -4 -10 -24zM885 928l4 -15q59 0 88 -10q31 -6 82 -40t119 -150l55 -107l-29 148q-20 92 -119 155q-74 49 -147 49q-31 0 -53 -30zM1012 63q2 -4 4 -9t8 -13q10 -8 25 -8 q59 16 94 53q12 14 18 22.5t15.5 29.5t15.5 48l16 113l-26 -68q-35 -72 -76 -108l-37 -27l-37 -16q-18 -6 -20 -17z" />
<glyph unicode="o" d="M35 475q0 168 39 276.5t153 200.5q68 49 135.5 74t147.5 25q76 0 152.5 -19.5t175.5 -64.5q233 -106 340 -201q94 -82 94 -152q0 -47 -41 -90q-88 -88 -203 -88q-76 0 -160 96q-53 61 -92 91l-82 59q-59 41 -129 41l-43 -2q-205 -25 -205 -215v-33l11 -59q10 -45 53 -74 q27 -18 104 -41l45 -12l35 -6q20 0 41 10l72 45l61 45q37 31 37 78l6 69q6 29 43 62q6 6 17 -8l20 -27q25 -25 86 -68l53 -34l19 -2h29l45 2q20 0 36 10l31 16l33 19l8 -56q0 -123 -44 -186t-169 -133q-96 -51 -237 -96q-135 -37 -256 -37q-82 0 -123 10q-51 6 -105 33 q-154 70 -200 166q-33 76 -33 276zM78 586l57 131q74 139 148 192q72 47 217 76l131 14l-74 7l-82 2q-33 0 -45 -4l-98 -31q-29 -6 -62 -35q-27 -18 -45 -34.5t-41.5 -42t-48.5 -83.5l-41 -135q-2 -8 -4 -18.5t-12 -38.5zM295 393q35 -70 76 -110q41 -37 88 -54l33 -4 q35 0 51 4t57 19l55 22l-86 -12l-65 -6l-41 6q-23 6 -45 21l-41 28l-45 45zM840 608l112 -96q27 -20 54 -31l55 -10l41 2q10 4 17 7.5t40 23.5l80 63l-57 -30q-72 -33 -111 -33q-61 0 -151 51q-6 4 -33 20.5t-47 32.5z" />
<glyph unicode="p" horiz-adv-x="1251" d="M23 416q0 188 40 311q49 147 154 215q66 41 142.5 63.5t144.5 22.5q70 0 137 -12l250 -64q141 -37 205 -82q82 -54 125 -165q6 -25 10 -45.5t4 -47.5q0 -66 -22.5 -141.5t-65.5 -118.5q-53 -53 -132 -76.5t-171 -23.5h-78q-41 6 -64 8l-131 8q-63 0 -102 -16 q-37 -12 -59 -55q-6 -14 -11 -52q0 -68 118 -204t118 -193q0 -31 -21 -59q-35 -49 -92 -74t-127 -25q-68 0 -129 29t-94 86q-59 117 -104 319.5t-45 391.5zM66 524l57 115q68 123 119 180q39 41 84 72q39 23 92 39q12 4 12 14q0 12 -14.5 21.5t-20.5 9.5t-18 -4l-96 -47 q-47 -23 -80 -60q-43 -47 -61.5 -79.5t-41.5 -102.5l-20 -90zM401 55l68 -131q58 -121 58 -158q0 -3 -1 -6q-6 -20 -28 -36l-60 -39q-6 -8 6 -41q6 -13 14 -13h1l63 35q44 25 56 68l6 35q0 27 -17 49l-49 69zM426 659q0 -59 22.5 -106t61.5 -53q14 0 32.5 -3t45.5 -12 q82 -20 110 -20l66 4q18 0 38.5 8t41.5 23q41 29 41 67q0 33 -28 69t-87 77q-49 35 -106 41q-55 0 -83 3t-65 13q-7 1 -13 1q-34 0 -53 -27q-24 -31 -24 -85zM983 817q0 -10 12 -22q16 -10 30.5 -22.5t29.5 -27.5l47 -65q51 -90 51 -174l10 12q18 53 19 98q0 49 -21 97 q-18 51 -51 80q-12 14 -28.5 27.5t-45.5 31.5q-3 2 -8 2q-10 0 -27 -8q-18 -12 -18 -29z" />
<glyph unicode="q" horiz-adv-x="1251" d="M16 614l2 41l13 50q37 102 125 163q61 39 204 84l252 62q41 6 73 10t65 4q76 0 143 -20q33 -8 68.5 -24.5t72.5 -41.5q98 -63 152 -215q43 -129 43 -311q0 -129 -23.5 -277.5t-60.5 -261.5l67 6q221 98 261 99q31 -1 43 -19l4 -18q0 -74 -267 -211q-240 -123 -299 -129 l-77 -6q-43 0 -73 4t-69 18q-63 20 -98 68q-20 27 -21 59q0 61 118 196.5t118 202.5q0 31 -10 50q-18 41 -62.5 56t-109.5 15l-160 -10l-107 -4q-94 0 -166.5 19.5t-132.5 78.5q-37 39 -65 115q-23 78 -23 147zM70 616l2 -36q0 -12 2 -20.5t14 -41.5q6 -10 10 -12 q0 86 52 174q23 37 43 61.5t63 53.5q12 6 12 22q0 18 -18.5 29.5t-34.5 5.5q-45 -25 -74.5 -57.5t-50 -86t-20.5 -92.5zM367 567q0 -41 37.5 -66.5t80.5 -31.5l52 -4h20q37 0 68 8l118 27q33 2 57.5 52t24.5 110q0 49 -21 82q-19 27 -55 27q-7 0 -14 -1l-147 -16 q-49 0 -105.5 -38t-84 -76t-31.5 -73zM670 -236l6 -38q6 -31 32.5 -51.5t84.5 -43.5q6 -2 12 -2q8 0 17 5q14 8 14 22q-1 12 -15 20l-49 21q-31 14 -39 35l-6 26v13q0 20 21 47l34 37q12 12 13 22q0 20 -31 21q-12 0 -23 -7l-43 -57q-25 -35 -28 -70zM821 942 q14 -12 33.5 -17t58.5 -28q39 -18 74 -57q33 -31 60 -86l28 -70q6 -12 25 -25l35 -10q18 1 14 19q-12 39 -21.5 66.5t-13.5 33.5q-25 51 -61.5 94t-102.5 74l-76 35q-12 4 -18 4q-8 0 -19.5 -7t-15.5 -26zM1176 -170q2 -10 6 -12t8 -2l100 57l62 31l84 41q33 15 61 15 q6 0 12 -1l-18 12q-51 -6 -107 -26l-71 -31l-123 -57q-12 -6 -14 -27z" />
<glyph unicode="r" d="M23 467q0 221 59 393l6 37q0 31 -16 64l-37 79l6 17q22 24 125 24h8q45 0 67.5 -2t80 -13t79.5 -34l15 -22q6 -12 6 -37q0 -49 -35 -117q-6 -14 -8 -18q-10 -18 -27 -43q45 33 101 69q41 29 79 51q213 123 361 123q70 0 131 -30q121 -68 184 -136q82 -88 82 -184 q0 -37 -12 -74q-25 -86 -55 -129q-41 -59 -101 -59q-66 0 -127 68q-129 154 -164 159l-49 4h-22q-109 0 -188.5 -46t-112.5 -144l-10 -49q0 -43 83.5 -105.5t83.5 -142.5l-2 -39q-12 -72 -71 -106q-51 -29 -133 -29q-76 0 -149 20.5t-114 49.5q-61 43 -92.5 154.5 t-31.5 246.5zM55 606l47 82l50 94q24 50 24 99l-6 75q-2 25 -18 72q-6 20 -35 21q-14 0 -26.5 -7.5t-10.5 -23.5l26 -72q10 -31 11 -67q0 -39 -6 -74q-12 -49 -19 -74zM436 326l4 -11q51 -25 74 -59q14 -20 19.5 -40.5t5.5 -55.5q0 -27 -14.5 -50.5t-39.5 -39.5 q-25 -12 -24 -25q6 -8 10 -10q12 0 35 14l41 35q31 29 37 66l2 20q0 43 -33 82l-70 61q-31 20 -47 13zM1014 924q0 -12 10 -19l72 -45q51 -37 73 -96l15 -45l6 -43q0 -33 -14 -68q-6 -12 4 -20l24 -8q21 0 29 16q14 47 14 78l-6 49q-4 25 -20 63q-25 59 -82 109l-82 57 q-5 4 -11 4q-8 0 -16 -6q-16 -10 -16 -26z" />
<glyph unicode="s" d="M14 182q0 51 13 80q20 45 96 90q53 31 110 31q41 0 226 -72q89 -32 151 -32h4l62 -3h53q49 0 66.5 6.5t23.5 28.5q6 31 -82 45l-131 21q-209 35 -327 82q-152 57 -205 147l-31 62q-6 18 -10 38.5t-4 45.5q0 29 4 53t18 61q25 63 157 120.5t288 57.5q68 0 135 -12 q332 -59 379 -74q213 -55 243 -122q18 -41 19 -93q0 -45 -14.5 -76.5t-53.5 -43.5l-45 -7q-84 0 -285 56l-260 73l-67 11l-51 4q-70 0 -70 -31q0 -18 43 -41q41 -16 109 -26q74 -6 270 -64q231 -66 291 -106q31 -20 63 -41q10 -8 21 -19q39 -43 39 -88q0 -86 -12.5 -129 t-61.5 -84q-90 -72 -293 -108q-147 -25 -350 -25h-68h-47q-29 4 -41 4l-80 6q-137 12 -200 41q-94 43 -95 133zM49 197l4 -33l33 -60l14 -18l-6 12q-14 37 -14 66q0 23 6 45t22.5 48t42 42t70.5 16q6 8 6 13v24q-39 0 -81 -17.5t-70 -53.5q-8 -12 -15 -27q-12 -29 -12 -57z M68 760q0 -25 3 -39t38 -76l34 -59l-12 43q-6 31 -10 53.5t-4 44.5q0 66 28 109q41 59 156 120l105 48l-60 -13q-70 -14 -104 -30l-70 -31q-33 -12 -63 -45q-18 -18 -29.5 -53t-11.5 -72zM1001 57l37 15q35 12 54 28l71 54q23 20 43 51q14 23 20.5 59.5t6.5 71.5 q0 25 -17.5 57.5t-36 49t-79.5 49.5q-8 4 -27 14q29 -29 43 -45q47 -51 55.5 -72.5t16.5 -77.5q2 -14 -3 -47t-16 -47q-37 -55 -106 -113zM1016 893l110 -39q47 -23 72 -63q10 -16 14 -46l7 -38l-2 -31l-5 -17l15 21l16 39v24v17q-4 10 -6 22.5t-20.5 44t-77.5 54.5l-111 43 q-10 0 -12 -4q-7 -9 -7 -16t7 -11z" />
<glyph unicode="t" d="M20 322q0 68 31 233.5t31 255.5q0 104 -27 299l-14 168l6 125q6 59 27 145q6 39 57 62.5t113 23.5q96 0 174 -45q55 -35 55 -110q0 -31 -12 -98.5t-12 -100.5q0 -39 8 -62.5t35 -46.5q36 -30 83 -30h3q53 0 150 42t138 42q51 0 84 -45q51 -74 51 -156q0 -90 -67 -180 q-31 -43 -90 -43q-29 0 -156 37q-61 18 -96 18q-55 0 -94 -41t-68 -94q-23 -49 -22 -100q0 -86 67 -203q18 -29 74 -51q55 -18 127 -19q100 0 192 37q35 14 88 104q45 76 117 76q92 0 141.5 -79.5t49.5 -192.5q0 -37 -6.5 -75t-20.5 -79q-29 -76 -109 -110q-70 -29 -172 -29 q-61 0 -165 12l-136 13q-41 0 -84 -2.5t-86 -8.5l-168 -18q-78 0 -170 61q-70 49 -98.5 116t-28.5 149zM70 295q0 -31 16 -70t41 -69q37 -49 74 -74t90 -25q20 0 20 29q0 18 -16 20q-23 0 -33 2.5t-31 14.5q-27 18 -59 53l-33 39q-27 37 -26 76l2 20q0 18 -21 21 q-14 0 -20 -15zM72 1329q0 -82 14 -196l16 -146l11 31q10 49 10 72l-8 88l-4 88v49t8 63q6 53 33 109q14 37 31.5 51.5t70.5 30.5q10 2 8 14q-13 22 -34 22q-7 0 -15 -3l-53 -19q-20 -10 -37 -35q-23 -35 -39 -98q-12 -59 -12 -121zM750 1147l4 -8q16 2 22 2q18 0 44 -6.5 t50 -32.5q25 -23 31 -51l8 -60l29 58l4 32q0 31 -24 62q-31 37 -76 37q-23 0 -51 -13zM967 426l41 20l51 9q31 0 50 -15.5t26 -52.5l8 -63q6 -18 35 -19q37 0 39 27q0 33 -2.5 48t-14.5 40q-12 41 -54 68.5t-93 27.5q-37 0 -84 -72z" />
<glyph unicode="u" d="M39 778q0 76 43 131.5t151 91.5l89 25q29 6 38 8t33 2q29 0 43.5 -2t52.5 -14q84 -25 84 -102q0 -43 -49 -171.5t-49 -191.5q0 -35 12.5 -68.5t44.5 -60.5q41 -35 74 -47t66 -17q39 0 65.5 19.5t47 49.5t27.5 56.5t11 69.5q0 61 -50 163.5t-50 141.5q0 33 16.5 60.5 t59.5 54.5q57 37 127 63q12 4 53 15.5t74 11.5q55 0 102 -27q63 -37 87 -68.5t24 -66.5q0 -27 -49.5 -133t-49.5 -207v-26l4 -31l70 -252q27 -106 27 -154q0 -54 -23 -77l-28 -17l-35 -6q-66 0 -150 52t-90 77q-31 -14 -94 -41q-45 -18 -78 -31q-200 -73 -334 -73h-4 q-74 0 -127 18.5t-86 69.5q-18 31 -31 104q0 43 -2 57.5t-8 26.5q-18 88 -63 219q-76 231 -76 297zM231 272l7 -63l24 -92q18 -43 60.5 -68.5t85.5 -25.5q45 0 96 22q33 12 71 45l3 12l-66 -16l-53 -6q-41 0 -91.5 24.5t-86.5 83.5q-25 43 -43 99zM315 954l25 2 q27 0 52.5 -10t43.5 -35q12 -18 17 -53l2 -45l2 -31l-2 -53l4 8l51 97q25 47 25 73q0 29 -31 60q-41 37 -86 37q-27 0 -49 -11q-23 -6 -54 -30v-9zM991 987l43 -14q63 -12 84 -39q29 -39 29 -88l-4 -31q0 -18 -4 -24l12 2l37 51q20 27 20 59q0 41 -35.5 81t-87.5 40l-28 -4 q-18 -2 -43 -19zM1141 237.5q0 -20.5 4 -38.5l4 -52v-36q0 -41 5 -54.5t30 -19.5q12 0 28 14q13 15 17 31l-6 51l-19 51q-4 12 -20.5 70.5t-26.5 99.5l-10 47v-20l-6 -100v-43.5z" />
<glyph unicode="v" d="M39 649q0 147 57 269q74 155 213 155h2q123 0 191 -158q8 -18 78 -297q37 -159 95 -159h1q41 0 76 153q47 219 79 289q74 156 218 156q102 0 162.5 -91.5t60.5 -217.5q-1 -132 -60 -232q-100 -176 -266 -330q-177 -161 -290 -161h-1q-121 0 -309 149q-215 168 -297 391 q-8 27 -9 49.5t-1 34.5zM258 1012q37 0 72 -35l92 -146l16 -34q12 -41 41 -84l82 -148l-47 170q-12 47 -43 117l-49 117q-29 53 -98 71l-39 -12zM262 295q33 -39 79 -77t112 -81l71 -39l84 -43q2 -1 5 -1q15 0 38 28l2 12q-6 -3 -15 -3q-28 0 -83 28l-74 39l-41 24l-61 41 l-82 56zM995 989l4 -10q6 4 15 4q20 1 52 -17q48 -26 81 -65q23 -27 39 -74q6 -25 10 -45t4 -47q0 -74 -29 -108l13 20q10 18 26 58q7 16 15 32l4 51q0 33 -4 53.5t-8.5 46t-28.5 54.5q-41 53 -73 67.5t-66 14.5q-31 0 -54 -35z" />
<glyph unicode="w" d="M33 518q0 199 59.5 353.5t153.5 168.5l24 2q53 0 114.5 -22.5t90.5 -52.5q43 -49 43 -107q0 -66 -63.5 -174t-67.5 -145q0 -39 47 -58l39 -8q61 0 110.5 110.5t71.5 110.5q33 0 93.5 -90t103.5 -90q18 0 34.5 8t26.5 25l9 33q0 43 -78 166.5t-78 187.5q0 47 37 88 q23 23 76 41q27 6 53 10t57 4q59 0 94 -16q42 -12 56 -47q59 -141 98 -295q23 -88 35 -172t12 -158q0 -78 -8 -128t-33 -99q-45 -96 -149 -133q-8 -2 -29 -5t-37 -6q-41 0 -93 12.5t-99 33.5q-86 31 -138 120l-34 84q-14 -39 -29 -55q-39 -59 -111 -125q-51 -45 -96 -71.5 t-98 -26.5l-23 2l-37 6q-115 37 -182 190q-55 135 -55 328zM102 770l21 45q51 96 110 127l52 14l59 7q27 -1 33 -5l-19 15q-35 25 -57 31l-35 6q-16 0 -30 -9l-27 -18q-41 -27 -66 -78l-32 -78l-9 -36v-21zM127 172l20 -45q25 -41 66 -70l57 -26l35 -11l-41 25 q-47 33 -67 59q-12 12 -19 33l-18 47q-6 10 -19 15q-10 -7 -13 -11q-2 -3 -2 -8q0 -3 1 -8zM655 647l9 -43l20 -51l39 -51q23 -25 47 -39q12 -6 31 0q16 6 20 18q-6 11 -10 15l-45 36l-41 41zM872 1008l35 6l49 2q41 0 79 -16.5t81 -92.5l31 -71l-2 71q-4 37 -26.5 73 t-53.5 53.5t-68 17.5l-39 -4q-27 -4 -55 -21zM903 129q0 -39 29 -55q10 -6 33.5 -16.5t50.5 -10.5l57 8q35 6 64 37q16 16 57 92q2 4 2 8q0 8 -8 17q-10 6 -29 10q-14 0 -22 -10q-12 -25 -20.5 -37t-24 -28.5t-37.5 -26.5l-41 -6q-37 0 -86 30q-8 6 -19 2q-6 -10 -6 -14z " />
<glyph unicode="x" d="M37 850v27q0 76 50 111.5t159 35.5q100 0 227 -168t174 -168l211 250q86 102 182 102h21q96 -10 129 -34q37 -20 63 -113l4 -35q0 -84 -165.5 -221t-165.5 -170l223 -164q104 -74 104 -172q0 -74 -53 -98.5t-164 -24.5q-145 0 -251.5 123t-129.5 123q-33 0 -121 -115.5 t-194 -124.5l-78 -2q-41 0 -61 -4q-47 0 -72 18.5t-63 88.5q-6 14 -11 45q0 63 101 139l221 160q0 29 -160 142.5t-176 217.5zM106 944q6 -14 10.5 -17t18.5 -5q25 16 53 18l45 2q63 0 142 -70l67 -69l-73 102l-45 47q-18 14 -54 27q-16 4 -30.5 6t-30.5 4q-51 0 -94 -31z M164 33q0 -13 23 -13h3l89 9l45 2q25 0 36 4l46 16q29 12 47 29q8 8 19 22.5t24 30.5l18 33l-27 -21l-49 -36l-51 -25l-57 -16q-29 -6 -76 -7q-47 0 -67.5 -7t-22.5 -21zM328 201l215 170l131 100l86 72l174 151l-113 -86l-205 -164zM801 162l90 -82q33 -27 63 -39 q35 -10 76 -10h35h25q14 4 32.5 6t55.5 18q20 6 22 23q0 25 -26 18q-80 -22 -143 -22h-5q-57 0 -147 43zM934 950l6 -20q6 -6 18 0l60 20q27 8 51 4q33 -10 76 -59l39 -51l6 33l-6 28l-37 58q-16 23 -37 28l-37 8l-31 5q-35 0 -57 -11l-39 -24q-12 -6 -12 -19z" />
<glyph unicode="y" d="M-84 -178l6 31q20 61 191 135q115 51 299 108q141 43 157 43q-57 0 -105 9.5t-93 25.5q-121 41 -211 121q-61 55 -104.5 193.5t-43.5 269.5q0 84 15 141q12 63 47 100q25 27 79 45.5t119 18.5q57 0 96.5 -13.5t61.5 -43.5q20 -35 21 -72q0 -43 -43 -141 q-20 -47 -30.5 -81t-10.5 -57q0 -49 43 -90q63 -57 125.5 -85.5t121.5 -28.5q55 0 104.5 30.5t82.5 100.5q20 45 20 82q0 35 -24 96q-53 125 -54 164q0 33 5 43q12 41 65 65q57 23 127 23q49 0 80 -4t63 -19q84 -31 121 -172q25 -96 25 -239q0 -330 -378 -660t-742 -330 q-80 0 -158 62.5t-78 128.5zM-33 -168q-1 -7 -1 -13q0 -30 22 -57q10 -12 41 -32l20 -6q23 0 41 24q6 10 0 23l-39 26q-18 10 -22 43q0 27 71 74l72 45l-41 -12q-51 -14 -74 -29l-55 -35q-23 -16 -35 -51zM195 989q8 -6 14 -6l39 6l31 2q59 0 81 -41l11 -35q0 -16 -11 -34 l-20 -37q-6 -12 0 -25q6 -12 16 -12q12 8 17 12q39 74 39 107q0 26 -23 57q-16 23 -36.5 30t-59.5 11h-29l-45 -6q-25 0 -24 -29zM618 -176q29 14 52.5 29.5t34.5 23.5q102 63 147 107q80 70 143 149l115 158l6 18q0 12 -18 17q-16 0 -41 -27l-76 -106l-80 -107 q-43 -55 -172 -168zM942 975q37 0 78 -12q37 -8 74 -37q49 -37 98 -150l37 -104l-2 71l-6 64q-14 63 -35 105t-68 75q-29 20 -56.5 26.5t-70.5 6.5q-16 0 -47 -31z" />
<glyph unicode="z" d="M23 834q0 61 32.5 112t259 84t496.5 33q72 0 135.5 -2t114.5 -8q47 0 88 -8.5t71.5 -20.5t44 -36.5t13.5 -59.5q0 -14 -2 -32.5t-8 -45.5l-15 -72q-12 -66 -196 -174q-125 -70 -336 -162l-180 -73l-54 -25q-49 -27 -53 -51l8 -14l31 -3q41 0 68.5 6.5t46 12.5t51.5 24 l272 43q115 18 183 19q45 0 74.5 -6t50.5 -23q41 -25 41 -92l-7 -55l-20 -103q-12 -27 -78 -53q-39 -14 -85 -25.5t-112 -21.5q-111 -12 -251 -12h-39h-35h-29h-24q-45 0 -87 2t-83 8q-115 10 -157 15t-171 26q-25 4 -43 65q-6 31 -10 66t-4 76q0 92 24 121 q72 70 266.5 183.5t241.5 119.5l129 37q80 20 84 49q0 31 -18 30l-45 -8l-103 -20q-37 -6 -76 -13.5t-102 -21.5q-203 -43 -264 -43t-90 20q-25 23 -37 57t-12 75zM51 246q0 -55 35 -123l29 10q31 14 24 39l-8 37l-8 61q0 29 14.5 63t110.5 113l92 70l-59 -27l-84 -43 q-27 -16 -43.5 -27t-24.5 -20q-35 -29 -56.5 -71.5t-21.5 -81.5zM70 782q-2 -5 -2 -10q0 -8 6 -16q10 -12 47 -33q37 -14 65 -14q23 0 36 3t48 13q25 6 25 23q0 25 -25 14l-22 -10l-37 -7q-23 0 -39 9l-33 10q-8 6 -17 26.5t-28 14.5q-16 -6 -24 -23zM1016 319q4 -14 9 -19 t19 -5l64 10q33 0 59 -26q10 -8 17 -31l4 -45v-27q0 -16 -4 -33q0 -16 -8 -24l14 26l27 52q14 37 14 61q0 22 -10 45t-37 35t-62 12q-39 0 -55 -4l-37 -8q-10 0 -14 -19zM1024 997l4 -14h45h47q18 -6 36 -10t33 -31t15 -76v-28q0 -16 -4 -33q0 -20 -8 -31l20 35q23 37 25 51 l4 25l2 20q0 25 -16.5 58.5t-61.5 47t-104 13.5q-23 0 -37 -27z" />
<glyph unicode="{" horiz-adv-x="1089" d="M-43 829q82 33 123 58q129 76 149 157q4 25 4 33q0 61 -105 148.5t-110.5 132.5t-5.5 76q0 186 147.5 316t356.5 155q12 2 35 2q143 0 340 -129q66 -43 170 -131q-45 8 -74 10q-102 12 -174 12q-137 0 -225 -29q-115 -37 -144 -122q-4 -10 -6 -23.5t-2 -24.5 q0 -70 109.5 -181t109.5 -177q0 -31 -10 -53q-31 -72 -139 -164q-35 -31 -105 -78q70 -35 105 -57q109 -72 139 -144q6 -14 8 -32.5t2 -20.5q0 -68 -109.5 -179.5t-109.5 -178.5q0 -25 8 -47q29 -86 144 -123q88 -29 229 -29q86 0 170 10q29 3 74 13q-104 -86 -170 -129 q-201 -131 -340 -131q-23 0 -35 2q-205 25 -350 151q-154 135 -154 320q0 31 5.5 74.5t110.5 131t105 146.5q0 25 -4 37q-23 80 -149 147q-41 23 -123 51zM80 848h53q121 10 156 67q14 23 14 70q0 45 -12 92q-2 8 -8 23q0 -23 -1 -45.5t-11.5 -54t-28 -56t-33.5 -38 t-43 -27.5q-14 -8 -53 -21q-10 -2 -33 -10zM98 197q14 -41 23 -64q29 -70 57 -108q39 -51 77 -81t93 -53.5t101.5 -30.5t115.5 -7q41 0 111 18q22 6 61 18q-84 4 -133 11q-147 18 -230 58t-186 140q-35 35 -90 99zM98 1468q0 -53 6 -94q0 -8 7 -22q35 88 59 137 q76 147 153.5 199.5t225.5 93.5q49 12 133 30q-35 8 -57 11q-76 12 -119 12q-18 0 -51 -4q-84 -14 -132.5 -39t-107.5 -84q-49 -49 -70 -80q-29 -43 -38 -85t-9 -75z" />
<glyph unicode="|" horiz-adv-x="389" d="M20 143q0 41 11 97q27 141 26 176v465q0 119 -2 182q-10 315 -10 350q0 33 -11 103.5t-11 89.5q0 35 11 61.5t40 46.5q57 41 123 41q109 0 163 -84q20 -29 21 -65q0 -33 -37 -123q-23 -55 -27 -84q-18 -133 -36.5 -290t-18.5 -204q0 -193 33 -422q37 -162 74 -321 q0 -45 -18.5 -79t-59.5 -54q-59 -31 -113 -31q-33 0 -78 16.5t-62.5 47t-17.5 81.5zM61 156q0 -53 37 -90t88 -37q14 0 37 12q7 4 19 12q-27 4 -41 6q-45 10 -66 31q-31 31 -47 111q-4 27 -10 73q-4 -16 -4 -24q-12 -66 -13 -94zM117 1677q18 -2 30 -4q72 -16 99 -51 q10 -12 14 -48t4 -75q0 -72 -1 -90t-5 -33q6 16 10 25q27 63 35 96t14.5 55.5t6.5 38.5q-1 25 -11 43q-29 55 -92 68q-31 4 -82 -14q-8 -2 -22 -11z" />
<glyph unicode="}" horiz-adv-x="1089" d="M39 29q104 -86 170 -129q201 -131 340 -131q23 0 35 2q205 25 350 151q154 135 153 320q0 31 -2 45q-8 74 -113.5 161t-105.5 146q0 25 4 37q23 80 150 147q41 23 123 51q-82 33 -123 58q-129 76 -150 157q-4 25 -4 33q0 61 105.5 148.5t113.5 163.5q2 14 2 45 q0 186 -147 316t-356 155q-12 2 -35 2q-143 0 -340 -129q-66 -43 -170 -131q45 8 74 10q102 12 174 12q137 0 225 -29q115 -37 143 -122q4 -10 6.5 -23.5t2.5 -24.5q0 -70 -110 -181t-110 -177q0 -31 11 -53q31 -72 139 -164q35 -31 104 -78q-70 -35 -104 -57 q-109 -72 -139 -144q-6 -12 -8.5 -25t-2.5 -28q0 -68 110 -179.5t110 -178.5q0 -25 -9 -47q-29 -86 -143 -123q-88 -29 -229 -29q-86 0 -170 10q-29 3 -74 13zM362 -111q84 4 134 11q147 18 230 58t185 140q35 35 90 99q-14 -41 -22 -64q-29 -70 -57 -108q-39 -51 -77 -81 t-93.5 -53.5t-101.5 -30.5t-115 -7q-41 0 -111 18q-23 6 -62 18zM418 1812q35 8 57 11q76 12 119 12q18 0 51 -4q84 -14 132 -39t108 -84q49 -49 69 -80q29 -43 41 -98q6 -29 6 -62q0 -53 -3 -77.5t-9 -38.5q-35 88 -59 137q-76 147 -154 199.5t-225 93.5q-49 12 -133 30z M797 985q0 45 12 92q2 8 8 23q0 -23 1 -45.5t11.5 -54t30.5 -60.5q14 -20 30.5 -33.5t43.5 -27.5q14 -8 53 -21q10 -2 33 -10h-53q-121 10 -156 67q-14 23 -14 70z" />
<glyph unicode="~" horiz-adv-x="1861" d="M37 854q0 113 68.5 210t181.5 132q84 27 235 27q139 0 324 -203q92 -102 227 -117q16 -2 45 -2q129 0 221.5 143.5t188.5 143.5q27 0 74 -10q78 -18 153.5 -87t75.5 -124q0 -31 -29 -47q-57 -33 -362 -273q-147 -117 -396 -117q-158 0 -299 143.5t-253 143.5h-25.5 t-65 -11t-159 -98t-131.5 -87q-20 0 -33 28q-41 113 -41 205zM121 834q0 -43 1 -54.5t5 -21.5q43 78 72 121q88 129 170 170q31 16 82 24t96 8q80 0 176 -18q31 -7 80 -19q-66 41 -105 60q-121 59 -202 59q-82 0 -131.5 -15t-110.5 -63q-70 -55 -96 -96q-35 -53 -35 -123 q-2 -25 -2 -32zM1106 946q96 43 151 64q172 66 250 65q14 0 35 -4q63 -16 152 -55q31 -12 82 -39q-25 25 -39 37q-43 37 -80 59q-57 33 -60 35q-29 14 -52 17t-40 3q-43 0 -86 -21.5t-86 -41.5q-61 -25 -147 -72q-29 -16 -80 -47z" />
<glyph unicode="&#xa6;" horiz-adv-x="2865" d="M18 1141q0 37 9 98q18 137 18 174q0 33 -11 103.5t-11 89.5q0 35 11 61.5t40 46.5q57 41 123 41q108 0 163 -84q20 -33 21 -63q0 -33 -37 -123q-23 -55 -26 -75.5t-3 -43.5q0 -53 26 -153.5t26 -131.5q0 -39 -13.5 -63.5t-58.5 -44t-86 -19.5t-95.5 22.5t-75 62.5 t-20.5 102zM20 143q0 41 11 97q27 141 26 176q0 45 -10 98q-25 131 -24 152q0 41 13 70.5t50 51.5q66 43 129 43q49 1 100 -28q49 -27 50 -80q0 -39 -46.5 -145.5t-46.5 -161.5q0 -57 36 -158.5t36 -136.5q0 -31 -11 -53.5t-42 -38.5q-55 -31 -107 -31q-27 0 -41 2t-51 16.5 t-54.5 45t-17.5 81.5zM51 1149q0 -23 5 -47.5t30 -57.5q37 -49 94 -57q10 -2 25.5 0t23.5 4q-23 12 -34 19q-39 23 -60 43q-31 31 -57 98q-8 23 -21 61q-2 -14 -4 -35.5t-2 -27.5zM61 156q0 -53 37 -90t88 -37q14 0 37 12q7 4 19 12q-27 4 -41 6q-45 10 -66 31 q-31 31 -47 111q-4 27 -10 73q-4 -16 -4 -24q-12 -66 -13 -94zM117 1677q18 -2 30 -4q72 -16 99 -51q10 -12 14 -48t4 -75q0 -72 -1 -90t-5 -33q6 16 10 25q27 63 35 96t14.5 55.5t6.5 38.5q-1 25 -11 43q-29 55 -92 68q-31 4 -82 -14q-8 -2 -22 -11zM139 766q23 -6 35 -10 q35 -14 50.5 -35t15.5 -86q0 -57 -5.5 -104.5t-13.5 -88.5q12 31 19 50q18 53 30 94q20 45 28.5 68.5t8.5 35.5q0 13 -6 29q-20 49 -68 63q-23 6 -59 -4q-12 -2 -35 -12z" />
<glyph unicode="&#xa9;" horiz-adv-x="1314" d="M43 815q0 250 192.5 415t456.5 165q250 0 418 -197q162 -189 162 -453q0 -250 -191.5 -414.5t-455.5 -164.5q-250 0 -420 196q-162 188 -162 453zM121 1044q51 53 82 82q96 92 160.5 129t173.5 72q35 11 98 29q-31 -2 -67 -4t-72 -11q-92 -20 -170 -75q-29 -20 -54 -43 q-6 -6 -51 -54q-29 -29 -65 -77q-12 -16 -35 -48zM246 815q0 -176 100 -303q109 -137 270 -137q174 0 304 102q137 108 137 268q0 174 -103 304q-109 137 -270 137q-174 0 -306 -104.5t-132 -266.5zM371 758q0 57 14 86l6 12q10 31 37 61.5t61 59.5q78 55 164 55q16 0 21 -4 q39 0 80 -14.5t88 -40.5q90 -55 90 -96q0 -23 -18.5 -37.5t-47.5 -10.5l-20 -2l-29 4q-8 2 -24 13q-25 18 -41 28q-18 18 -43 23h-31q-70 0 -117 -34t-47 -91q0 -59 47 -99t105 -40q14 0 24 6t26.5 20.5t35.5 32.5q27 27 32 27l41 16q23 6 39 4l19 -2l16 -6q20 -10 25 -29 q0 -33 -74 -92l-66 -49q-4 -2 -28.5 -16.5t-43 -19.5t-42 -7t-43.5 -4q-90 0 -160 41q-72 37 -84 90l-8 66zM391 748q0 -35 6 -54l13 -43l24 -39l21 -30l-21 57q-23 68 -22 104q0 61 28 131l29 50l-25 -35q-27 -33 -34 -53q-18 -43 -19 -88zM598 336q25 -4 61.5 -7t57.5 -3 q20 2 28 2q59 6 87 12t58 23.5t49 37t40.5 47t44.5 80.5q6 17 18 50q-31 -43 -49 -68q-61 -76 -106 -107q-61 -39 -180 -57q-39 -6 -109 -10zM741 578q8 -18 21 -13l33 21q14 6 23 13t22 17l20 23q16 10 27 29l8 26l2 8l-20 -18l-43 -41l-35 -22l-58 -31q-2 -8 0 -12z M768 983l33 -18q23 -18 33 -28.5t16 -23.5l16 -22q8 -10 8 -23l21 -12q18 0 14 16t-8 23.5t-20 24.5q-10 16 -21 18l-33 20q-18 12 -36 17z" />
<glyph unicode="&#xad;" horiz-adv-x="2004" d="M39 788q0 33 35 68q51 51 131 71.5t194 20.5q86 0 207 -10q289 -25 373 -25q98 0 217 11q287 25 340 24q125 0 220 -26.5t175 -98.5q41 -39 41 -73q0 -27 -18 -48q-6 -6 -27 -18q-68 -39 -153.5 -56.5t-180.5 -17.5q-55 0 -368 27q-143 12 -242 12q-100 0 -294.5 -16.5 t-278.5 -16.5q-111 0 -181.5 16.5t-126.5 61.5q-33 29 -48 50.5t-15 43.5zM84 788q0 -20 22 -43q14 -14 35 -30q33 -25 49.5 -31t77.5 -25q29 -6 50.5 -7t39.5 -1q-72 20 -106 35q-109 45 -113 86q0 47 37 98q12 16 39 43q-35 -23 -51 -34q-53 -39 -66.5 -57.5t-13.5 -33.5z M1421 879q49 -4 80 -7q180 -20 283 -69q47 -23 78 -66q8 -14 20 -39q6 10 14.5 36t8.5 40q0 49 -74 72q-41 10 -77 22.5t-69.5 16.5t-66.5 4h-66q-45 0 -102 -6q-10 0 -29 -4z" />
<glyph unicode="&#xae;" horiz-adv-x="1314" d="M43 815q0 250 192.5 415t456.5 165q250 0 418 -197q162 -189 162 -453q0 -250 -191.5 -414.5t-455.5 -164.5q-250 0 -420 196q-162 188 -162 453zM121 1044q51 53 82 82q96 92 160.5 129t173.5 72q35 11 98 29q-31 -2 -67 -4t-72 -11q-92 -20 -170 -75q-29 -20 -54 -43 q-6 -6 -51 -54q-29 -29 -65 -77q-12 -16 -35 -48zM246 815q0 -176 100 -303q109 -137 270 -137q174 0 304 102q137 108 137 268q0 174 -103 304q-109 137 -270 137q-174 0 -306 -104.5t-132 -266.5zM459 627l8 71l8 74l-8 82q-4 16 -6 37.5t-2 32.5l2 30l12 21q6 8 35 12 t47 4q14 -2 20 -2h57.5t47.5 -4h46t62 -8q23 0 44.5 -7t33.5 -20q25 -14 35 -61v-19q0 -29 -18 -53l-47 -43l-48 -26l-43 -7l-24 4l-10 5q10 -10 27.5 -19.5t28.5 -13.5t46 -15q14 0 27.5 -4t25.5 -6q31 -13 35 -33v-16q0 -20 -13.5 -36.5t-35.5 -28.5l-16.5 -5.5 t-16.5 -1.5q-39 0 -102 35q-23 14 -42.5 29.5t-47.5 46.5q-8 6 -15 12q-14 12 -24 25l8 -29l10 -49l-4 -29q-6 -12 -8 -14q-10 -10 -27 -16l-32 -7l-25 3l-27 2q-12 4 -20 14zM471 903l2 -10l6 -57l6 -50v15v8l2 94q4 35 12.5 45t59.5 21l47 8l-59 -2q-31 0 -33 -2 q-8 2 -14 -2t-17 -13l-10 -16l-2 -22v-17zM559 606l4 -12q12 0 17 10l6 8q8 8 8 29l-6 31l-15 57l5 -27l4 -55q0 -14 -4 -20l-9 -11q-6 -10 -10 -10zM580 881q0 -12 8 -21q6 -16 18 -16l23 -4l26 -6q41 0 77 14.5t34 34.5q-12 18 -37 22q-27 10 -65 10l-46 -2l-30 -16z M598 336q25 -4 61.5 -7t57.5 -3q20 2 28 2q59 6 87 12t58 23.5t49 37t40.5 47t44.5 80.5q6 17 18 50q-31 -43 -49 -68q-61 -76 -106 -107q-61 -39 -180 -57q-39 -6 -109 -10zM831 958l19 -26q25 -35 24 -58q0 -16 -20 -53l-20 -33q0 2 14 11l18 20q14 23 15 27l6 26 q0 20 -8 37q-4 16 -15 25l-18 16zM838 580l12 10l20 16l15 17l6 22q0 14 -10 21q-4 6 -21 18q-8 -4 -12 -4l-4 -6l16 -10q10 -14 10 -19q2 -23 -16 -47z" />
<glyph unicode="&#xb1;" horiz-adv-x="903" d="M4 330q0 16 19 35q27 27 62.5 37t82.5 10q41 0 133 -9.5t131 -9.5q57 0 147.5 9.5t112.5 9.5q55 0 97 -13.5t83 -50.5q20 -20 21 -37q0 -20 -23 -32q-33 -20 -71.5 -28.5t-83.5 -8.5q-49 0 -94 4q-156 14 -187 14q-57 0 -106 -4q-147 -12 -154 -12q-51 0 -79.5 7 t-59.5 32.5t-31 46.5zM8 918q0 14 17 28q25 25 60.5 34t90.5 9q23 0 154 -10q51 -4 100 -4q45 0 96 4q127 10 152 10q61 0 102 -11t80 -46q18 -16 19 -33q0 -18 -21 -29q-33 -18 -68.5 -25t-82.5 -7q-37 0 -138.5 8t-134.5 8q-55 0 -148 -7t-110 -7q-49 0 -83 7t-59.5 29.5 t-25.5 41.5zM29 330q0 -14 28 -37q20 -14 64 -27q10 -4 22.5 -4h22.5q-37 10 -53 17q-55 20 -58 43q0 27 27 59l12 12q-8 -6 -14 -10q-37 -27 -44 -37t-7 -16zM35 932q-16 -20 18 -47q23 -16 45.5 -22.5t34 -6.5h19.5q-33 8 -48 14q-49 18 -51 39q-2 23 15 45q4 6 18 19 q-16 -10 -23 -15q-20 -16 -28 -26zM360 653q0 37 8.5 125t8.5 133t-8.5 129t-8.5 123q0 59 11.5 100t46.5 78q16 18 33 19q18 0 28 -21q18 -29 26.5 -69.5t8.5 -81.5q0 -51 -4 -96q-14 -156 -14 -179q0 -53 7 -146t7 -112q0 -49 -7 -80.5t-29.5 -58.5t-41.5 -27 q-14 0 -29 15q-23 23 -33 62.5t-10 86.5zM377 569q10 -14 14 -22q16 -25 27 -31q20 -16 49 19q12 18 25 57q2 10 2 21.5v19.5q-8 -33 -15 -49q-18 -49 -39 -49q-23 0 -45 16q-6 4 -18 18zM389 1169l4 -59q4 37 6 59q10 68 27 105q10 23 29 35q6 4 18 10q-4 0 -8 2 q-19 8 -25 8q-23 0 -31 -25.5t-12 -43.5q-8 -20 -8 -56v-35zM618 375q41 -4 66 -6q70 -10 115 -31q18 -8 32 -25q8 -8 17 -28q2 2 7 16.5t5 22.5q0 20 -24 30q-37 10 -61.5 18.5t-63.5 8.5h-27zM631 958q39 -4 59 -6q61 -10 105 -28q18 -8 32 -29q4 -6 11 -18l6 18t4 14 q0 20 -23 31q-33 8 -46 13t-33.5 7.5t-32.5 2.5h-25z" />
<glyph unicode="&#xb2;" horiz-adv-x="360" d="M8 1384l2 21l2 25q6 29 68 71l108 68q55 33 50 47q-4 12 -23 12q-20 0 -43 -10l-45 -23l-45 -24q-23 -12 -39 -12l-12 2q-10 10 -15 16l-6 39q0 23 10 37q4 4 12.5 12t28.5 23l54 22l47 12l47 4q29 0 46 -4t32.5 -13t26 -16t25.5 -24.5t15 -44.5l-2 -14q-6 -43 -39 -80 l-69 -51l-70 -39q-12 -6 -24 -19q-2 -2 -9 -8l27 6q72 25 104 25q23 0 40.5 -7t31.5 -24l12 -18l4 -17l-10 -37q-4 -10 -16 -16l-29 -6l-49 6l-88 10l-45 -4l-70 -10l-20 2l-13 8l-8 25zM18 1389l2 -11l3 -22l4 -15v9v14l4 41q4 25 13 38t52 52l37 29l-43 -27l-31 -22 l-28 -33l-11 -21l-2 -22v-10zM20 1604l7 -21l14 -12h8l19 2l12 8l18 12l6 4l-14 -6l-31 -6l-12 2q-12 6 -18 27l-6 20v-8zM217 1716l37 -16q41 -23 53 -47l12 -31l5 -29l-2 -22l-7 -17l19 43l6 27l-4 18l-12 23l-31 29l-35 14l-25 6zM274 1425l33 -6q12 -6 25 -20l4 -21 l2 -22v-10v-9l6 13l4 18q0 31 -16 47l-15 12l-34 11z" />
<glyph unicode="&#xb3;" horiz-adv-x="411" d="M10 1432q0 27 19 55l16 14q6 4 23 4q29 0 61 -16l80 -35l6 6q-4 8 -6 13q-8 12 -25.5 29.5t-27.5 33.5q-2 2 -4 6l10 10q12 12 28 25q35 27 39 43l-4 6l-8 4l-76 -24q-20 -6 -39 -11h-20q-18 0 -27 4l-20 15q-25 35 -25 65l2 21q6 25 22.5 34t47.5 9l57 -4l60 -6l45 4 l69 6q25 0 47.5 -9t38.5 -36q8 -8 9 -27l-2 -24l-11 -27q-8 -25 -47 -47q-35 -14 -65 -21l-35 -6l33 -2q41 -6 63 -18q37 -14 49.5 -41t12.5 -51q0 -23 -10.5 -49.5t-32 -37t-56.5 -10.5l-67 4l-43 2l-50 -4l-47 -4q-25 0 -39 6.5t-30 26.5q-16 29 -21 64zM23 1430l2 -17 l10 -24l6 -17l-4 17l-4 36l4 27l12 21q10 8 14.5 9t8.5 1l8 -2l8 -2l4 6l-16 10l-10 -2l-13 -6q-16 -6 -23 -21.5t-7 -35.5zM23 1681l4 -22l16 -27l4 -10l-4 14l-4 35l2 19l8 14q14 12 57 18l39 2l-24 2l-23 3l-20 2l-19 -2l-18 -11l-14 -16zM162 1542l6 -12l6 -8l-2 14 l2 12l14 11l15 8l20 20l8 17l5 10l-11 -17l-20 -20l-29 -18q-8 -4 -11 -9.5t-3 -7.5zM289 1565l24 8l35 16q39 27 39 72l-2 18q0 10 -14 29l-27 18q-8 -2 -10 -6l-2 -6l20 -18q16 -16 17 -29l-2 -10q-8 -43 -43 -74zM311 1528l35 -29q33 -35 33 -67q0 -25 -29 -58l-28 -26 l22 12l25 16l16 23l8 24v9l-6 26l-12 23l-35 26z" />
<glyph unicode="&#xb6;" horiz-adv-x="1204" d="M33 1204q0 133 8 172q18 84 90 135q47 33 158.5 50.5t253.5 17.5q156 0 278.5 -19.5t182 -61.5t105.5 -372.5t46 -658.5q0 -182 -15 -298.5t-50 -143.5q-31 -25 -115 -25q-70 0 -94 25q-33 33 -48.5 117.5t-15.5 203.5q0 133 22.5 385t22.5 313q0 63 -12 80h-154 q-8 -20 -10 -60t-2 -112q0 -125 4 -245q14 -420 14 -443q0 -72 -3 -142.5t-21 -90.5q-10 -14 -47 -22.5t-82 -8.5q-57 0 -91 18.5t-48.5 67.5t-14.5 125q0 66 9.5 146.5t39.5 226.5q18 78 29.5 127t11.5 90q0 74 -47 121q-14 14 -39 14q-18 0 -65 -14.5t-76 -14.5 q-23 0 -41 8q-90 35 -137 113t-47 176zM104 1284q0 -47 21 -119q6 -25 22 -65q2 72 7 110q16 123 60 176.5t148 94.5q36 12 99 30q-8 0 -36 2.5t-48 2.5q-61 0 -94 -11q-61 -18 -78 -26q-37 -18 -61.5 -51t-32 -65t-7.5 -79zM522 55q4 0 17.5 -2t25.5 -2q18 0 37 5t32 18.5 t15 43t6 67.5t4 73q0 23 -1 43.5t-1 38.5l5 168q-12 -117 -19 -176q-25 -182 -46.5 -207t-55.5 -55q-6 -4 -19 -15zM948 33q27 0 56.5 4t56.5 24q35 27 45 74q4 20 4 94q0 31 4 80t4 82q0 41 -2 86t-6 84q-12 -133 -20 -201q-25 -209 -52 -239q-18 -23 -55 -58 q-12 -10 -35 -30z" />
<glyph unicode="&#xbc;" horiz-adv-x="1619" d="M18 492q0 150 203 337q197 172 395 345q74 72 238 272q141 172 225 237q130 101 275 101q51 0 75.5 -20.5t24.5 -55.5q0 -10 -4 -27q-43 -168 -250 -352q-197 -170 -393 -340q-82 -80 -226.5 -255t-213.5 -234q-115 -100 -215 -101q-29 -2 -41 -2q-92 0 -93 95zM59 483 q8 -45 66 -45q25 0 56.5 4t45.5 11q31 18 65 37.5t58 44.5q4 4 12 14q-49 -27 -75 -39q-88 -41 -129 -41q-20 0 -35 10q-35 31 -45 94q-2 20 -2 60q-8 -41 -10 -62q-10 -70 -7 -88zM229 1880l7 51q6 29 18 43q14 25 51 33q37 12 80 12q37 0 69.5 -11t49 -35.5t22.5 -55.5 l6 -51v-37q-6 -29 -8 -45q-23 -119 -22 -156q0 -23 2 -50.5t8 -57.5l23 -172l-7 -50q-2 -24 -18 -47q-16 -25 -51 -37q-27 -6 -37 -7t-37 -1q-43 0 -81 11.5t-56 29.5q-10 16 -12 33l-5 45v43q6 37 9 59l16 201q0 57 -14 137zM248 1343l6 -45q4 -16 20 -38q37 -33 80 -33v8 v16l-30 2q-10 2 -33 25q-18 23 -25 88l-4 100v19v14l-12 -121zM385 1987q27 -6 51 -17l31 -31q8 -14 16 -65l4 -98v-29v-23l9 60l12 71l2 29q0 25 -8 41q-8 27 -27 43q-29 29 -82 35zM750 272v26.5t8 53.5l16 148q0 41 -12 127l-12 118q0 43 11 69t42 32l57 6h64 q25 -6 53.5 -10t63 -22.5t34.5 -63.5t-46 -147.5t-46 -147.5q0 -35 16 -51l39 -31q23 -14 43 -14q14 0 25 12l6 20l-10 54l-6 34l6 31q14 31 52 49.5t79 18.5q43 0 79 -16.5t52 -55.5l4 -20q0 -12 -12.5 -44t-12.5 -45q0 -16 9.5 -26t21.5 -10q14 0 33 10q49 23 61 22l15 -2 q35 -12 54 -49t19 -80q0 -39 -15 -74t-50 -51l-23 -4q-23 0 -62.5 20.5t-51.5 20.5t-19 -8l-6 -20q0 -16 14 -43l17 -37q-4 -14 -10.5 -20.5t-44.5 -12.5q-33 -8 -78 -8l-78 6q-35 6 -49 18l-8 17q4 10 9 22t14 29.5t9 30.5l-6 18q-6 10 -24 10l-129 -39q-66 -20 -95 -20 q-43 0 -70.5 23.5t-37.5 54t-11 47t-1 24.5zM774 299l2 -66l10 -45q8 -14 31 -26l47 -15q12 -2 54 5l36 8l-8 -2h-14q-29 0 -53 8q-29 6 -60 29q-12 8 -22 63l-6 117l2 65l2 47l-4 -26l-15 -99zM928 784l20 2q20 0 41 -26l6 -19l2 -26q0 -20 -2 -48t-8 -61l-12 -59l51 123 l16 39l9 36q-1 19 -13 37q-12 20 -37.5 29.5t-42.5 9.5q-6 -4 -12 -9t-12 -15zM952 1460q66 53 105 82q125 92 207 123q37 12 67 12q33 0 64 -10q4 0 14 -6q-4 8 -8 18q-15 38 -31 50q-23 18 -45 18q-27 0 -62.5 -20.5t-68.5 -38.5q-51 -25 -98 -72l-54.5 -54.5t-68.5 -78.5 q-6 -8 -21 -23zM1110 76l2 -10q6 -10 35 -17l53 -6l57 -2l-61 12q-59 12 -66 19q-6 6 9 30l12 21l-21 -2l-14 -23zM1198 553l37 -6q39 -10 55 -29q6 -8 12.5 -22.5t16.5 -49.5l8 -51v33q0 17 6 27q8 14 8 32l-2 19l-12 22q-10 16 -33 25l-37 8l-34 -2zM1407 365l12 4l31 4 l18 -2l15 -6q16 -12 24 -35l15 -58l12 4l6 5l-4 22l-12 35l-23 33q-16 16 -31 16q-6 -2 -15 -3t-21 -7z" />
<glyph unicode="&#xbd;" horiz-adv-x="1619" d="M18 492q0 150 203 337q197 172 395 345q74 72 238 272q141 172 225 237q130 101 275 101q51 0 75.5 -20.5t24.5 -55.5q0 -10 -4 -27q-43 -168 -250 -352q-197 -170 -393 -340q-82 -80 -226.5 -255t-213.5 -234q-115 -100 -215 -101q-29 -2 -41 -2q-92 0 -93 95zM59 483 q8 -45 66 -45q25 0 56.5 4t45.5 11q31 18 65 37.5t58 44.5q4 4 12 14q-49 -27 -75 -39q-88 -41 -129 -41q-20 0 -35 10q-35 31 -45 94q-2 20 -2 60q-8 -41 -10 -62q-10 -70 -7 -88zM229 1909l7 51q6 29 18 43q14 25 51 33q37 12 80 12q37 0 69.5 -11.5t49 -36t22.5 -54.5 l6 -52v-36q-6 -29 -8 -46q-23 -119 -22 -155q0 -23 2 -50.5t8 -58.5l23 -172l-7 -49q-2 -24 -18 -47q-16 -25 -51 -37q-27 -6 -37 -7t-37 -1q-43 0 -81 11t-56 30q-10 16 -12 33l-5 45v43q6 37 9 59l16 201q0 57 -14 137zM248 1372l6 -45q4 -16 20 -39q37 -33 80 -33v9v16 l-30 2q-10 2 -33 25q-18 23 -25 88l-4 100v18v15l-12 -121zM385 2015q27 -6 51 -16l31 -31q8 -14 16 -65l4 -99v-28v-23l9 59l12 72l2 29q0 25 -8 41q-8 27 -27 43q-29 29 -82 35zM848 307v45l8 49q10 59 131 140l221 133q111 68 99 100q-10 25 -45 25q-14 0 -33 -5.5 t-55 -17.5l-89 -43l-90 -51q-47 -25 -80 -25h-22q-14 2 -31 39q-12 35 -12 74q0 51 22 78q35 41 80 67q16 10 29.5 16.5t79.5 31.5l92 22q37 6 72 6h22q47 0 82 -8q16 0 39 -8q25 -12 37 -17q33 -18 52.5 -32.5t43.5 -38.5q37 -43 37 -96l-2 -29q-18 -100 -82 -164 q-10 -10 -63 -47q-37 -27 -72 -51l-141 -84q-68 -31 -64 -47q2 -6 51 6q141 49 209 49q25 0 39 -2t41 -8q37 -12 64 -45l24 -37l8 -39q0 -20 -18 -68q-8 -23 -35 -37q-27 -10 -59 -10q-16 0 -41 2t-54 8q-141 23 -176 23q-31 0 -92 -10l-141 -23l-37 6q-14 4 -25 19l-20 45z M868 299l9 -45l8 -31l-2 15v30l6 82q6 35 24 68q31 47 107 108l76 62l-86 -53l-64 -46q-16 -16 -29.5 -30.5t-27.5 -34.5q-4 -10 -8 -19.5t-9 -23.5l-4 -41v-21v-20zM870 748q2 -20 13.5 -41t27.5 -23l17 -6l35 6q14 6 28 21l35 20l12 12l-26 -12q-16 -6 -33.5 -12t-28.5 -6 q-14 0 -30.5 10t-34.5 53l-11 41l-2 -16zM952 1460q66 53 105 82q125 92 207 123q37 12 67 12q33 0 64 -10q4 0 14 -6q-4 8 -8 18q-15 38 -31 50q-23 18 -45 18q-27 0 -62.5 -20.5t-68.5 -38.5q-51 -25 -98 -72l-54.5 -54.5t-68.5 -78.5q-6 -8 -21 -23zM1264 975l73 -35 q82 -51 109 -94l22 -60l7 -61q0 -33 -5 -47l-10 -29l39 88q8 25 8 47q0 20 -8 43t-22 43q-27 35 -62 54q-10 8 -28.5 16t-38.5 16l-54 13q-8 -2 -30 6zM1378 391q35 0 66 -16q16 -6 27.5 -15.5t19.5 -25.5l12 -35l4 -49l-2 -23v-14l11 23l12 43q0 49 -37 90q-20 20 -29 22 l-69 21z" />
<glyph unicode="&#xc8;" horiz-adv-x="1949" d="M39 1407q0 63 6 103t29 71q10 16 58 26.5t88 11.5t63 1q37 0 133 -4t114 -4l461 -23q102 0 385 25q141 12 211 12q102 0 174 -16q82 -12 148 -54q14 -8 14 -51q0 -61 -24.5 -151t-62.5 -164t-105.5 -106.5t-151.5 -32.5q-115 0 -305 61l-313 115q-178 63 -246 63 q-66 0 -94 -49q-25 -51 -37 -88q-8 -35 -9.5 -53.5t-1.5 -28.5q0 -47 25 -113q12 -35 41 -49t63 -14q47 0 172 38t166 38q37 0 63.5 -13.5t43.5 -48.5q31 -72 31 -131l-2 -43q0 -14 -15 -51q-10 -35 -35 -51q-12 -8 -26.5 -12.5t-36.5 -4.5q-49 0 -175 40t-177 40 q-39 0 -70 -13t-51.5 -44t-36.5 -76q-6 -27 -8 -39t-2 -41l6 -69l8 -64q0 -23 45 -22q53 0 232 61l346 117q109 31 197.5 47t158.5 16q117 0 195 -39q78 -35 120 -129q23 -57 45 -186l13 -109l6 -28q0 -31 -55 -49q-29 -6 -65 -10.5t-87 -4.5q-55 0 -86 2q-156 10 -178 11 q-147 0 -254 9t-215 21l-836 -49q-41 23 -65 88q-18 61 -19 158q0 35 2 81t9 99q25 258 24 328q0 129 -25.5 352t-25.5 293zM80 1352l2 -37l10 -174q12 109 25 168q31 174 76 204q31 20 69 21l45 -6l51 -15q10 8 13 13l6 35q0 20 -17 22l-65 2q-33 0 -53 4q-31 0 -50.5 -7 t-53.5 -32.5t-46 -64.5t-12 -94v-39zM123 188l6 -61q6 -18 31 -41q23 -16 84 -25l129 -8h59h43q27 4 39 4q33 0 51 2.5t53 8.5h-174l-116 12q-86 12 -135 49q-6 4 -17 33l-6 57l2 43l8 45l-26 8q-25 0 -27 -16l-2 -57zM676 1886q0 20 24 43q84 76 197 86q106 0 242 -129 q44 -43 114 -129q-193 10 -288 21q-289 37 -289 108zM729 1907q39 8 62 10q80 12 112 12q61 0 160 -45q31 -14 86 -45q-29 31 -45 47q-55 53 -98 70q-18 6 -44 13t-63 7q-27 0 -49.5 -1t-48.5 -19zM930 889q33 16 71 16q33 0 62 -13t61 -79l27 -65l-6 55q-6 55 -21 67 l-24 27q-18 23 -34.5 30t-53.5 11q-33 0 -52.5 -7t-29.5 -26v-16zM1327 492h16h25q88 0 172 -13q80 -8 127 -43q35 -25 51 -47q18 -18 19 -55l20 -4l41 2q10 4 6 12q-23 57 -43 84q-12 18 -52 45t-83 39t-84 12l-67 -6zM1397 1174q0 -31 12 -37l84 -25q47 -12 86 -12l53 6 q27 6 51.5 17.5t94.5 62.5q12 10 59 94l21 39l-80 -74q-88 -72 -166 -84l-31 -2q-43 0 -92 12l-86 27q-6 -14 -6 -24z" />
<glyph unicode="&#xc9;" horiz-adv-x="1949" d="M39 1407q0 63 6 103t29 71q10 16 58 26.5t88 11.5t63 1q37 0 133 -4t114 -4l461 -23q102 0 385 25q141 12 211 12q102 0 174 -16q82 -12 148 -54q14 -8 14 -51q0 -61 -24.5 -151t-62.5 -164t-105.5 -106.5t-151.5 -32.5q-115 0 -305 61l-313 115q-178 63 -246 63 q-66 0 -94 -49q-25 -51 -37 -88q-8 -35 -9.5 -53.5t-1.5 -28.5q0 -47 25 -113q12 -35 41 -49t63 -14q47 0 172 38t166 38q37 0 63.5 -13.5t43.5 -48.5q31 -72 31 -131l-2 -43q0 -14 -15 -51q-10 -35 -35 -51q-12 -8 -26.5 -12.5t-36.5 -4.5q-49 0 -175 40t-177 40 q-39 0 -70 -13t-51.5 -44t-36.5 -76q-6 -27 -8 -39t-2 -41l6 -69l8 -64q0 -23 45 -22q53 0 232 61l346 117q109 31 197.5 47t158.5 16q117 0 195 -39q78 -35 120 -129q23 -57 45 -186l13 -109l6 -28q0 -31 -55 -49q-29 -6 -65 -10.5t-87 -4.5q-55 0 -86 2q-156 10 -178 11 q-147 0 -254 9t-215 21l-836 -49q-41 23 -65 88q-18 61 -19 158q0 35 2 81t9 99q25 258 24 328q0 129 -25.5 352t-25.5 293zM80 1352l2 -37l10 -174q12 109 25 168q31 174 76 204q31 20 69 21l45 -6l51 -15q10 8 13 13l6 35q0 20 -17 22l-65 2q-33 0 -53 4q-31 0 -50.5 -7 t-53.5 -32.5t-46 -64.5t-12 -94v-39zM123 188l6 -61q6 -18 31 -41q23 -16 84 -25l129 -8h59h43q27 4 39 4q33 0 51 2.5t53 8.5h-174l-116 12q-86 12 -135 49q-6 4 -17 33l-6 57l2 43l8 45l-26 8q-25 0 -27 -16l-2 -57zM836 1757q68 86 112 129q135 129 244 129 q63 -6 105.5 -24.5t91.5 -61.5q25 -23 24 -43q0 -70 -289 -106q-96 -10 -288 -23zM930 889q33 16 71 16q33 0 62 -13t61 -79l27 -65l-6 55q-6 55 -21 67l-24 27q-18 23 -34.5 30t-53.5 11q-33 0 -52.5 -7t-29.5 -26v-16zM940 1839q53 31 84 45q96 45 162 45q47 0 112 -10 q23 -2 62 -12l-72 49q-23 14 -41 17t-57 3q-51 0 -99.5 -18.5t-103.5 -69.5q-18 -16 -47 -49zM1327 492h16h25q88 0 172 -13q80 -8 127 -43q35 -25 51 -47q18 -18 19 -55l20 -4l41 2q10 4 6 12q-23 57 -43 84q-12 18 -52 45t-83 39t-84 12l-67 -6zM1397 1174q0 -31 12 -37 l84 -25q47 -12 86 -12l53 6q27 6 51.5 17.5t94.5 62.5q12 10 59 94l21 39l-80 -74q-88 -72 -166 -84l-31 -2q-43 0 -92 12l-86 27q-6 -14 -6 -24z" />
<glyph unicode="&#xe8;" horiz-adv-x="1228" d="M25 508q0 147 106 303q78 113 190.5 167t249.5 54l95 -6l104 -18q203 -43 274 -84q135 -68 136 -203v-14q0 -125 -140 -203q-74 -39 -286 -103q-109 -31 -181 -30q-68 0 -196 30q-10 0 -13.5 -2t-3.5 -4q0 -16 29 -53q16 -20 28.5 -33.5t24.5 -21.5q33 -29 82 -39l86 -10 l43 -2q74 0 197 73q59 35 103 55.5t67 20.5q47 0 86 -41l24 -35l25 -39q20 -41 21 -75q0 -92 -142 -148q-57 -20 -137 -32.5t-174 -12.5q-96 0 -160.5 7t-136.5 32q-125 39 -201 86q-88 57 -144 162.5t-56 218.5zM84 555l2 -49l4 -41q0 -12 27 -12q29 0 26 22l-8 39l-2 39 q0 33 10 59l17 43q18 47 43 82q16 20 26 31t37 31q12 8 0 22q-23 18 -35 19q-6 0 -18 -9l-68 -81q-25 -37 -45 -97q-16 -59 -16 -98zM279 1221q0 16 8 32q47 94 147 123q12 4 35 4q90 0 197 -131q35 -43 88 -131q-23 0 -45.5 -1t-51.5 -1q-152 0 -239 17q-139 27 -139 88z M344 1237q33 8 51 10q57 10 90 10q53 0 127 -43q25 -14 64 -43q-8 12 -12 19q-33 45 -56.5 66.5t-47 44t-42 25.5t-27 3h-12.5q-43 0 -86 -31q-16 -12 -41 -47q-2 -4 -8 -14zM406 717q0 -49 53 -78q78 -39 139 -39q43 0 76 13.5t96 50.5q18 12 66 55l32 35q-25 47 -65 71 q-45 20 -94 21q-47 0 -72 -4l-121 -15q-41 0 -75.5 -34.5t-34.5 -75.5zM799 74q0 -25 12 -25q92 0 176 37l57 33q8 6 22 20.5t28 32.5q12 18 -13 55l-20 6q-20 -39 -39 -61q-25 -31 -55 -49q-57 -35 -117 -35l-39 2q-12 0 -12 -16zM913 887l9 -10l67 -33q16 -8 39 -37 q43 -55 37 -115l18 -8q49 24 39 49l-24 66q-6 18 -27 39l-43 34l-61 29q-14 6 -35 0q-8 -2 -13.5 -7t-5.5 -7z" />
<glyph unicode="&#xe9;" horiz-adv-x="1228" d="M25 508q0 147 106 303q78 113 190.5 167t249.5 54l95 -6l104 -18q203 -43 274 -84q135 -68 136 -203v-14q0 -125 -140 -203q-74 -39 -286 -103q-109 -31 -181 -30q-68 0 -196 30q-10 0 -13.5 -2t-3.5 -4q0 -16 29 -53q16 -20 28.5 -33.5t24.5 -21.5q33 -29 82 -39l86 -10 l43 -2q74 0 197 73q59 35 103 55.5t67 20.5q47 0 86 -41l24 -35l25 -39q20 -41 21 -75q0 -92 -142 -148q-57 -20 -137 -32.5t-174 -12.5q-96 0 -160.5 7t-136.5 32q-125 39 -201 86q-88 57 -144 162.5t-56 218.5zM84 555l2 -49l4 -41q0 -12 27 -12q29 0 26 22l-8 39l-2 39 q0 33 10 59l17 43q18 47 43 82q16 20 26 31t37 31q12 8 0 22q-23 18 -35 19q-6 0 -18 -9l-68 -81q-25 -37 -45 -97q-16 -59 -16 -98zM406 717q0 -49 53 -78q78 -39 139 -39q43 0 76 13.5t96 50.5q18 12 66 55l32 35q-25 47 -65 71q-45 20 -94 21q-47 0 -72 -4l-121 -15 q-41 0 -75.5 -34.5t-34.5 -75.5zM504 1118q53 88 88 131q106 131 196 131q23 0 35 -4q101 -29 148 -123q8 -16 8 -34q0 -59 -135 -84q-98 -18 -240 -19h-66.5t-33.5 2zM582 1171q37 29 61 43q74 43 129 43q33 0 90 -10q18 -2 51 -10q-8 14 -14 23q-20 27 -35 38 q-43 31 -88 31q-16 0 -36.5 -4t-43.5 -22q-29 -29 -47 -46.5t-53 -64.5zM799 74q0 -25 12 -25q92 0 176 37l57 33q8 6 22 20.5t28 32.5q12 18 -13 55l-20 6q-20 -39 -39 -61q-25 -31 -55 -49q-57 -35 -117 -35l-39 2q-12 0 -12 -16zM913 887l9 -10l67 -33q16 -8 39 -37 q43 -55 37 -115l18 -8q49 24 39 49l-24 66q-6 18 -27 39l-43 34l-61 29q-14 6 -35 0q-8 -2 -13.5 -7t-5.5 -7z" />
<glyph unicode="&#xf6;" horiz-adv-x="1138" d="M12 684q104 -100 162 -149q176 -150 244 -150q14 0 24.5 7t10.5 32q-39 168 -70 305t-31 240q0 78 13.5 136t48.5 118l135 -23l162 23q33 -53 46 -113.5t13 -136.5q0 -109 -32.5 -253.5t-67.5 -293.5q0 -25 11 -33t26 -8q68 0 243 150q57 49 162 149q0 -303 -137 -530 q-98 -162 -258 -273q-113 -78 -139 -78q-29 0 -146 76q-168 109 -272 273q-147 229 -148 532zM88 489q10 -31 14 -47q16 -51 31 -88q39 -92 98 -182q45 -66 80 -106.5t92 -94.5q29 -25 97 -73q20 -14 55 -39q-59 63 -94 102q-109 121 -161 191.5t-140 216.5q-27 44 -72 120z M641 508q29 84 43 133q45 158 45 250q0 61 -10 162q-2 33 -10 88q-4 -39 -8.5 -85t-4.5 -87v-37v-39q-4 -27 -8 -59.5t-10 -59t-13.5 -66.5t-19.5 -151q-2 -18 -4 -49z" />
<glyph unicode="&#xf7;" horiz-adv-x="1138" d="M33 340q104 100 162 149q176 152 243 152q14 0 24.5 -7t10.5 -32q-39 -170 -69.5 -307t-30.5 -240q0 -78 13 -136t48 -118l135 23l162 -23q33 53 46.5 114.5t13.5 135.5q0 111 -33 254.5t-68 294.5q0 25 11.5 33t25.5 8q70 0 244 -149q57 -49 162 -152q0 303 -138 530 q-98 162 -258 273q-113 78 -139 78q-29 0 -145 -76q-168 -109 -273 -273q-147 -229 -147 -532zM109 537q10 31 14 47q16 51 31 88q39 94 98 180q74 111 172 201q29 25 96 73q20 14 55 39q-59 -61 -94 -100q-102 -115 -162 -195q-74 -98 -167 -258q-16 -28 -43 -75zM662 518 q29 -84 43 -135q45 -160 45 -250q2 -12 2 -39q0 -63 -11 -141q-2 -27 -12 -70q-4 41 -8 88t-4 86v37q0 25 -5 68t-7 67q-10 39 -17.5 75t-17.5 136q-2 29 -8 78z" />
<glyph unicode="&#xf8;" horiz-adv-x="1433" d="M8 541q37 72 76 145q111 170 272 275q229 147 533 147q-100 -104 -150 -162q-150 -176 -149 -244q0 -14 8 -25t33 -11q168 39 305 69.5t240 30.5q74 0 135 -13.5t116 -45.5l-22 -138l22 -159q-53 -31 -117.5 -46.5t-133.5 -15.5q-109 0 -253.5 33t-293.5 68 q-25 0 -32 -10.5t-7 -24.5q0 -68 149 -244q49 -57 150 -162q-303 0 -531 137q-162 98 -272 256zM63 565q63 57 103 92q127 113 192 162q74 55 215 142q45 26 121 71q-31 -10 -47 -14q-51 -16 -88 -33q-92 -39 -182 -98q-68 -45 -108 -80t-91 -92q-33 -35 -76 -94 q-14 -20 -39 -56zM713 479q84 -31 133 -45q154 -45 250 -45q78 0 196 14q21 3 54 9q-39 4 -85.5 8t-86.5 4h-52q-37 0 -70.5 5t-77.5 14.5t-52 11.5q-49 8 -160 20q-18 2 -49 4z" />
<glyph unicode="&#xf9;" horiz-adv-x="1433" d="M8 410l21 135l-21 162q53 33 113.5 46t134.5 13q111 0 254 -33t295 -67q25 0 33 11t8 25q0 70 -150 244q-49 57 -151 162q303 0 530 -133q166 -96 275 -248q38 -67 77 -135q-39 -76 -75 -150q-111 -172 -273 -280q-231 -154 -534 -154q100 104 149 162q152 176 152 244 q0 14 -7.5 24.5t-31.5 10.5q-170 -39 -307.5 -70t-239.5 -31q-76 0 -134 13.5t-118 48.5zM90 705q39 -4 85 -8.5t87 -4.5h50.5t58.5 -5t63 -7q39 -10 75 -17.5t136 -17.5q29 -2 78 -8q-84 29 -135 43q-160 45 -250 45q-25 2 -39 2q-61 0 -139 -10q-27 -2 -70 -12zM741 84 q31 10 47 14q51 16 89 31q94 39 180 98q111 74 200 172q25 29 74 97q14 20 39 55q-61 -59 -100 -94q-115 -102 -195 -162q-98 -74 -258 -168q-29 -16 -76 -43z" />
<glyph unicode="&#xfa;" horiz-adv-x="2275" d="M23 1368q80 -78 161 -156q197 -180 342 -288q211 -156 310 -156q29 0 49 14.5t20 67.5q-78 336 -135 596q-66 291 -65 491q0 143 27.5 271.5t92.5 234.5l273 -43l321 43q63 -104 92 -229t29 -270q0 -195 -51 -441q-20 -100 -96 -387q-53 -203 -54 -266q0 -53 20.5 -67.5 t49.5 -14.5q96 0 307 156q156 115 344 288q80 78 162 156q0 -606 -276 -1063q-197 -326 -514 -545q-221 -154 -277 -153q-59 0 -293 151q-334 217 -545 545q-295 459 -294 1065zM174 977q18 -61 29 -96q33 -100 63 -174q45 -106 89 -187.5t108 -175.5q86 -129 160.5 -215 t183.5 -184q90 -82 233 -183q25 -18 68 -45q-2 0 -92 99q-106 115 -205 229q-133 154 -212 260.5t-191 284.5q-98 156 -164 266q-35 60 -70 121zM1280 1014q2 0 45 129q53 162 86 301q47 203 47 338q0 127 -20 321q-7 65 -23 176q-8 -80 -12 -125q-12 -141 -12 -219v-73 q0 -74 -11.5 -161t-15.5 -110q-18 -80 -35 -159q-12 -78 -33 -263q-6 -57 -16 -155z" />
<glyph unicode="&#xfb;" horiz-adv-x="2275" d="M63 680q80 78 162 156q197 180 342 288q211 156 310 156q29 0 49 -14.5t20 -67.5q-78 -336 -135 -596q-66 -291 -66 -491q0 -143 28 -271.5t93 -234.5l273 43l321 -43q63 104 92 229t29 270q0 195 -51 441q-20 100 -96 387q-53 203 -54 266q0 53 20.5 67.5t49.5 14.5 q96 0 307 -156q156 -115 344 -288q80 -78 162 -156q0 606 -276 1063q-197 326 -514 545q-221 154 -277 153q-59 0 -293 -151q-334 -217 -545 -545q-295 -459 -295 -1065zM215 1071q18 61 29 96q33 100 63 174q45 106 89 187.5t108 175.5q86 129 160.5 215t183.5 184 q90 82 233 183q25 18 68 45q-2 0 -92 -99q-106 -115 -205 -229q-133 -154 -212 -260.5t-191 -284.5q-98 -156 -164 -266q-35 -62 -70 -121zM1321 1034q2 0 45 -129q53 -162 86 -301q47 -203 47 -338q0 -127 -20 -321q-7 -65 -23 -176q-8 80 -12 125q-12 141 -12 219v73 q0 72 -11.5 160t-15.5 111q-18 80 -35 159q-12 78 -33 263q-6 57 -16 155z" />
<glyph unicode="&#xfc;" horiz-adv-x="2865" d="M16 1081q76 145 152 293q217 334 545 545q459 295 1065 295q-6 0 -156 -162q-180 -197 -289 -342q-156 -211 -155 -309q0 -29 14 -49.5t68 -20.5q336 78 595 135q291 66 492 66q143 0 271 -27.5t235 -93.5l-43 -272l43 -322q-104 -63 -229 -92t-271 -29q-195 0 -440 52 q-100 20 -387 96q-203 53 -266 53q-53 0 -67.5 -20.5t-14.5 -49.5q0 -96 155 -307q115 -156 289 -344q150 -162 156 -162q-606 0 -1063 277q-326 197 -545 514q-78 137 -154 276zM127 1128q49 45 98 93q115 106 230 204q154 133 260 212t284 192q156 98 270.5 165.5 t116.5 67.5q-61 -18 -96 -28q-100 -33 -174 -64q-106 -45 -187 -89t-175 -107q-129 -86 -215 -161t-185 -183q-82 -90 -182 -234q-18 -25 -45 -68zM1423 956q63 -23 129 -45q162 -53 301 -86q203 -47 338 -47q127 0 322 21q65 6 176 22q-80 8 -125 13q-141 12 -219 12h-74 q-72 0 -154.5 10t-173 29.5t-102.5 21.5q-78 12 -262 33q-57 6 -156 16z" />
<glyph unicode="&#xfd;" horiz-adv-x="2865" d="M14 817l43 273l-43 321q104 63 229.5 92t270.5 29q195 0 440 -51q100 -20 387 -97q203 -53 267 -53q53 0 67.5 20.5t14.5 49.5q0 96 -156 307q-115 156 -289 344q-150 162 -155 162q608 0 1062 -266q328 -193 547 -498q76 -135 154 -268q-78 -152 -154 -301 q-221 -348 -545 -564q-459 -303 -1064 -303q6 0 155 162q180 197 289 342q156 211 156 309q0 29 -14.5 49.5t-67.5 20.5q-336 -78 -596 -135q-291 -66 -492 -66q-143 0 -271 28t-235 93zM178 1407q80 -8 125 -12q141 -12 219 -13h110.5t129.5 -11t104 -15q80 -18 160 -35 q78 -12 262 -33q58 -6 156 -16q-66 23 -129 45q-162 53 -301 86q-203 47 -338 47q-127 0 -322 -20q-66 -6 -176 -23zM1481 166q61 18 96 29q100 33 174 63q106 45 187 89t176 108q129 86 210 157q90 78 189 187q82 90 182 233q18 25 45 68q-49 -47 -98 -92 q-115 -106 -229 -205q-154 -133 -260.5 -212t-284.5 -192q-156 -98 -270.5 -165.5t-116.5 -67.5z" />
<glyph unicode="&#xff;" horiz-adv-x="1409" d="M2 236q0 25 6 37t45 30l35 10l23 -30l28 -19q25 -6 25 -22q0 -12 -14 -27q-16 -12 -50 14l-30 33l-29 -20l-6 -31q0 -18 10 -29q10 -10 35 4l22 19l21 -10l18 -13q23 -27 23 -67q0 -57 -39 -58q-20 0 -31 4q-10 4 -8 15.5t14 34.5l15 34q0 12 -11 15q-16 6 -45 -8l-14 -9 l-41 66zM10 725q0 164 48 283.5t135 144.5q90 23 137 23q63 0 119.5 -36t86 -76t29.5 -95q0 -106 -102 -158l-33 -8q-29 0 -61 20q-82 47 -107 51l-29 -6q-37 -12 -36 -45q0 -33 78.5 -135t78.5 -156q0 -23 -10 -43q-23 -47 -47 -67l-68 -53q-37 -25 -65 -25 q-68 0 -111 112.5t-43 268.5zM31 707q0 -88 11 -130t42 -55q14 -2 24.5 6.5t6.5 16.5q-29 29 -47 84q-6 25 -10.5 49t-4.5 53q0 78 25 158l31 55h-13q-8 8 -10 12q0 12 -10 13q-10 0 -29 -88q-8 -43 -12 -84t-4 -90zM182 88q-2 16 6 29q2 2 8.5 -1t10.5 -12q12 -18 24 -18 l21 -2q16 0 20 12l-4 17l-14 14l-16 8q-18 8 -27 21l-4 26l4 31l8 27l12 14q6 6 23 6l18 -2l9 -2l30 6q12 0 20.5 -7.5t12.5 -21.5q0 -12 -27 -18l-14 -2l-29 4q-16 0 -25 -12t-5 -33q12 -10 20 -12q18 0 25 -6q16 -14 30 -41l5 -13l-13 -14l-30 -23l-31 -6h-27l-18 6 q-16 8 -23 25zM236 633q-2 -12 20.5 -25.5t28.5 -23.5l-2 -49q0 -12 12 -13q29 1 33 13l-2 30q0 10 -10.5 29.5t-26 35t-41.5 19.5zM252 1038q0 -25 16 -43l45 -43l49 -32q12 -6 39 -11q16 0 33 13q23 22 23 61q0 20 -12.5 35.5t-36.5 30.5l-39 24q-37 18 -66 19 q-33 0 -47 -29zM309 1413q0 70 47 119t119 49q68 0 117 -49t49 -119q0 -66 -48 -116t-118 -50q-68 0 -117 49.5t-49 116.5zM328 1413q0 -61 43 -104t104 -43q57 0 103.5 44t46.5 103q0 61 -45 105.5t-105 44.5q-61 0 -104 -43t-43 -107zM348 168l12 4l19 12q6 6 6 19 q0 16 -12 45l-8 12l4 14q6 8 10 9q10 -6 12 -11l6 -20l4 -37q0 -14 11 -16q10 6 12 10t7 7t7 5l21 -12l4 -6l-17 -8q-14 -8 -20 -23q-6 -25 14 -51q20 -20 37 -15q6 6 -2 20.5t-4 25.5q12 12 29 6q2 -6 5 -19.5t3 -17.5q-2 -29 -25 -47l-18 -6h-23l-32 53l-2 22q-4 12 -9 17 q-10 6 -26 -2l-17 -11zM383 610q0 55 35 96.5t100 79.5q37 18 72 28.5t74 10.5q88 1 131 -69q18 -35 18 -70q0 -23 -6 -43t-23 -47q-27 -45 -71 -80q-66 -49 -158 -49q-61 0 -106.5 26.5t-61.5 81.5zM397 602q0 -23 13 -45l22 -29q10 -6 27 -2l12 9q-25 6 -38 25.5t-13 35.5 q0 12 8 22l-14 5q-14 0 -17 -21zM430 1417v10l6 31q6 16 19 25l18 10l19 8v-35l-19 -6q8 6 9 9.5t3 5.5l-10 6q-16 -8 -29 -31l-4 -23l2 -22q6 -20 19 -41l24 -18l19 -13l-23 10q-31 14 -37 23l-12 27zM475 1055q31 -16 37 -45l6 -45l-2 -37q-10 2 -12 4l20 -8q10 4 15 8 l6 31q0 35 -10 55q-12 29 -27.5 45t-28.5 2zM524 645l6 -31q6 -16 31 -39q27 -16 55 -16q20 0 27 4q55 23 55 84q0 21 -8 37q-25 47 -80 47q-27 0 -49 -16q-37 -29 -37 -70zM543 80v35l30 4q12 2 20.5 15t8.5 22q0 6 -6 16q-6 6 -18 0q-8 -4 -17 -2q-8 4 -10 11t-4 9l8 9 l18 14q16 6 45 -8l15 -8q0 -25 4 -37q0 -18 12 -43l15 -27l10 -16l-33 -2q-10 6 -15 12t-16 6l-10 -10l-12 -12q-12 -4 -19 -5q-16 0 -26 17zM563 96q2 -10 15 -8l10 16l-8 5l-13 4q-4 -4 -4 -17zM631 797l4 -11q-4 6 0 11l22 4q27 0 51.5 -7.5t51.5 -39.5l12 -27l8 6l2 15 q-25 37 -61 53l-49 14q-16 0 -39 -8zM690 174q0 18 15 21q14 -10 18 -19l6 -18l-6 -33q0 -14 10 -21q18 -6 31.5 3.5t7.5 31.5l-4 31q8 31 16 33q4 -4 9.5 -11.5t9.5 -19.5q6 -20 -6 -55l-9 -17l-6 -16l-14 -12q-8 -6 -27 -2l-26 14q-20 16 -21 53zM709 1280v262h10v-262 h-10zM739 1401v141h125v-270h-12v129h-113zM752 1415h100v115h-100v-115zM831 193q0 14 3 20q2 0 4 2l8 -8l10 -10h12l15 10l37 8l14 -29l6 -55l6 -31q0 -12 -6 -18l-14 -4h-17v22l-6 25l-8 22q-2 8 -14 9q-8 -8 -11 -13v-24l-4 -43l-26 6l8 59zM834 649q0 94 40 176 q45 82 101 82q12 0 28.5 -7t61.5 -69q18 -25 41 -24q31 -4 63.5 36t55.5 50l32 8q63 0 107 -115q20 -55 30.5 -115.5t10.5 -133.5q0 -55 -4 -89t-19 -73q-18 -63 -61 -64q-14 1 -39 13q-76 47 -92 63q-43 37 -43 92q0 33 61.5 81t61.5 65q-2 4 -4 9t-9 11q-12 12 -30 12 l-41 -10l-29 -4l-24 6l-54 51l-16 2l-4 -8l28 -88l15 -65q0 -18 -12 -37q-35 -35 -82 -35l-47 6l-56 19q-29 10 -53 55q-18 43 -18 100zM860 733q0 -16 4 -22l8 -4q-6 41 31 98l19 22l32 29l-10 14q-6 8 -18 -4l-37 -53l-21 -43zM887 1401v141h125v-270h-13v129h-112z M899 1415h100v115h-100v-115zM944 186q-6 14 2 29q6 6 27 2l18 -6l2 31q0 12 15 18q23 6 41 -20q4 -8 -7 -31l-12 -19l27 -6q10 0 16 -14q2 -18 -8 -29h-16l-19 11l-8 -31q-4 -16 2 -27.5t27 -19.5q10 -4 23 8t24 12q14 -6 20 -22q4 -16 -26 -31l-15 -4l-57 8l-21 10l-18 13 l-2 20l2 33l4 35q0 12 -6 18zM1032 1272v270h12v-129h113v-141h-125zM1044 1282h101v117h-101v-117zM1057 524l6 -12h12q10 8 10 53q0 20 -16 47l-10 11l-2 -7q10 -35 10 -49l-8 -22q-6 -10 -2 -21zM1126 113l9 22q12 23 22 29l27 4h16l8 -2l43 -68l-8 -20l-12 -27h-72z M1169 104q-2 -12 5 -14l32 -6v18q-6 12 -10 16.5t-16 2.5q-8 -8 -11 -17zM1257 866l21 -18l20 -27q10 -14 17 -45h14q10 8 10 15l-6 20l-18 33l-23 28q-16 14 -28 5zM1270 59l12 60l10 41l2 33l9 -5l18 -24l18 6l19 6q14 -1 26 -24l5 -21l-3 -18q-2 -10 -4 -13l-2 -37 q0 -18 -16 -18q-25 0 -31 14q0 14 4 23l11 14l-21 35l-12 -37l-8 -47zM1305 348l6 -10l4 -4q6 -6 20 6l21 18q20 20 28 72l-4 16h-16q6 -27 -18 -63z" />
<glyph unicode="&#x2dc;" horiz-adv-x="931" d="M18 1217q0 55 35 103t90 64q29 8 119 17q76 0 135.5 -80t130.5 -80q25 -2 31 -2q63 0 110.5 71.5t96.5 71.5q20 0 47 -7t64.5 -41t37.5 -62q0 -15 -14 -23q-23 -12 -180 -137q-72 -57 -199 -57q-74 0 -174 94q-51 47 -102 47q-25 0 -48.5 -5t-95.5 -63q-37 -29 -47 -28 q-10 0 -16 14q-20 61 -21 103zM61 1192.5q0 -12.5 2 -25.5q20 39 35 60q45 66 86 86q14 8 39 12t49 4q43 0 88 -8q14 -2 41 -10q-35 20 -53 28q-63 31 -100 31q-43 0 -66.5 -7t-55.5 -32.5t-48.5 -50.5t-16.5 -57v-30.5zM553 1262q57 27 88 36q96 35 131 27q37 -10 76 -27 q14 -6 41 -20l-21 18q-23 18 -41 30.5t-31.5 19t-29.5 6.5q-29 4 -61 -13q-18 -10 -37 -18q-45 -18 -90 -43q-8 -4 -25 -16z" />
<glyph unicode="&#x2000;" horiz-adv-x="1221" />
<glyph unicode="&#x2001;" horiz-adv-x="2443" />
<glyph unicode="&#x2002;" horiz-adv-x="1221" />
<glyph unicode="&#x2003;" horiz-adv-x="2443" />
<glyph unicode="&#x2004;" horiz-adv-x="814" />
<glyph unicode="&#x2005;" horiz-adv-x="610" />
<glyph unicode="&#x2006;" horiz-adv-x="407" />
<glyph unicode="&#x2007;" horiz-adv-x="407" />
<glyph unicode="&#x2008;" horiz-adv-x="305" />
<glyph unicode="&#x2009;" horiz-adv-x="488" />
<glyph unicode="&#x200a;" horiz-adv-x="135" />
<glyph unicode="&#x2010;" horiz-adv-x="2004" d="M39 788q0 33 35 68q51 51 131 71.5t194 20.5q86 0 207 -10q289 -25 373 -25q98 0 217 11q287 25 340 24q125 0 220 -26.5t175 -98.5q41 -39 41 -73q0 -27 -18 -48q-6 -6 -27 -18q-68 -39 -153.5 -56.5t-180.5 -17.5q-55 0 -368 27q-143 12 -242 12q-100 0 -294.5 -16.5 t-278.5 -16.5q-111 0 -181.5 16.5t-126.5 61.5q-33 29 -48 50.5t-15 43.5zM84 788q0 -20 22 -43q14 -14 35 -30q33 -25 49.5 -31t77.5 -25q29 -6 50.5 -7t39.5 -1q-72 20 -106 35q-109 45 -113 86q0 47 37 98q12 16 39 43q-35 -23 -51 -34q-53 -39 -66.5 -57.5t-13.5 -33.5z M1421 879q49 -4 80 -7q180 -20 283 -69q47 -23 78 -66q8 -14 20 -39q6 10 14.5 36t8.5 40q0 49 -74 72q-41 10 -77 22.5t-69.5 16.5t-66.5 4h-66q-45 0 -102 -6q-10 0 -29 -4z" />
<glyph unicode="&#x2011;" horiz-adv-x="2004" d="M39 788q0 33 35 68q51 51 131 71.5t194 20.5q86 0 207 -10q289 -25 373 -25q98 0 217 11q287 25 340 24q125 0 220 -26.5t175 -98.5q41 -39 41 -73q0 -27 -18 -48q-6 -6 -27 -18q-68 -39 -153.5 -56.5t-180.5 -17.5q-55 0 -368 27q-143 12 -242 12q-100 0 -294.5 -16.5 t-278.5 -16.5q-111 0 -181.5 16.5t-126.5 61.5q-33 29 -48 50.5t-15 43.5zM84 788q0 -20 22 -43q14 -14 35 -30q33 -25 49.5 -31t77.5 -25q29 -6 50.5 -7t39.5 -1q-72 20 -106 35q-109 45 -113 86q0 47 37 98q12 16 39 43q-35 -23 -51 -34q-53 -39 -66.5 -57.5t-13.5 -33.5z M1421 879q49 -4 80 -7q180 -20 283 -69q47 -23 78 -66q8 -14 20 -39q6 10 14.5 36t8.5 40q0 49 -74 72q-41 10 -77 22.5t-69.5 16.5t-66.5 4h-66q-45 0 -102 -6q-10 0 -29 -4z" />
<glyph unicode="&#x2012;" horiz-adv-x="2004" d="M39 788q0 33 35 68q51 51 131 71.5t194 20.5q86 0 207 -10q289 -25 373 -25q98 0 217 11q287 25 340 24q125 0 220 -26.5t175 -98.5q41 -39 41 -73q0 -27 -18 -48q-6 -6 -27 -18q-68 -39 -153.5 -56.5t-180.5 -17.5q-55 0 -368 27q-143 12 -242 12q-100 0 -294.5 -16.5 t-278.5 -16.5q-111 0 -181.5 16.5t-126.5 61.5q-33 29 -48 50.5t-15 43.5zM84 788q0 -20 22 -43q14 -14 35 -30q33 -25 49.5 -31t77.5 -25q29 -6 50.5 -7t39.5 -1q-72 20 -106 35q-109 45 -113 86q0 47 37 98q12 16 39 43q-35 -23 -51 -34q-53 -39 -66.5 -57.5t-13.5 -33.5z M1421 879q49 -4 80 -7q180 -20 283 -69q47 -23 78 -66q8 -14 20 -39q6 10 14.5 36t8.5 40q0 49 -74 72q-41 10 -77 22.5t-69.5 16.5t-66.5 4h-66q-45 0 -102 -6q-10 0 -29 -4z" />
<glyph unicode="&#x2013;" horiz-adv-x="1095" d="M39 788q0 33 19 68q27 51 69 71.5t103 20.5q45 0 109 -10q153 -25 198 -25q52 0 115 11q152 25 180 24q66 0 116.5 -26.5t92.5 -98.5q22 -39 22 -73q0 -27 -10 -48q-3 -6 -14 -18q-36 -39 -81 -56.5t-96 -17.5q-29 0 -195 27q-75 12 -128 12t-156 -16.5t-147 -16.5 q-59 0 -96.5 16.5t-67.5 61.5q-17 29 -25 50.5t-8 43.5zM63 788q0 -20 11 -43q8 -14 19 -30q18 -25 26.5 -31t40.5 -25q16 -6 27 -7t21 -1q-38 20 -56 35q-58 45 -60 86q0 47 20 98q6 16 20 43q-18 -23 -27 -34q-28 -39 -35 -57.5t-7 -33.5zM771 879q26 -4 42 -7 q96 -20 150 -69q25 -23 42 -66q4 -14 10 -39q4 10 8.5 36t4.5 40q0 49 -40 72q-21 10 -40.5 22.5t-37 16.5t-35.5 4h-34q-24 0 -55 -6q-5 0 -15 -4z" />
<glyph unicode="&#x2014;" horiz-adv-x="2119" d="M39 788q0 33 37 68q54 51 139 71.5t205 20.5q92 0 220 -10q306 -25 395 -25q104 0 230 11q304 25 360 24q132 0 233 -26.5t186 -98.5q43 -39 43 -73q0 -27 -19 -48q-6 -6 -29 -18q-72 -39 -162.5 -56.5t-191.5 -17.5q-58 0 -389 27q-152 12 -257 12q-106 0 -312 -16.5 t-295 -16.5q-118 0 -192.5 16.5t-133.5 61.5q-35 29 -51 50.5t-16 43.5zM87 788q0 -20 23 -43q15 -14 37 -30q35 -25 52.5 -31t82.5 -25q30 -6 53 -7t42 -1q-76 20 -112 35q-116 45 -120 86q0 47 39 98q13 16 41 43q-37 -23 -54 -34q-56 -39 -70 -57.5t-14 -33.5zM1503 879 q52 -4 85 -7q191 -20 300 -69q50 -23 82 -66q9 -14 22 -39q6 10 15 36t9 40q0 49 -78 72q-44 10 -82 22.5t-73.5 16.5t-70.5 4h-70q-48 0 -108 -6q-11 0 -31 -4z" />
<glyph unicode="&#x201c;" horiz-adv-x="974" d="M31 1757q0 39 37 62q78 45 147 45t147 -45q59 -37 84 -109t25 -164t-18 -180q-2 -16 -11 -39q-137 100 -204 158q-207 178 -207 272zM164 1829q16 -6 26 -10q63 -29 105 -64q33 -27 88 -106q18 -27 51 -76q-6 29 -8 45q-11 43 -25 76q-10 18 -18 39q-18 33 -43 53 q-53 47 -125 47zM489 1757q0 39 37 62q78 45 148 45q69 0 147 -45q59 -37 84 -109t25 -164t-19 -180q-2 -16 -10 -39q-137 100 -205 158q-207 178 -207 272zM623 1829q16 -6 26 -10q63 -29 105 -64q33 -27 88 -106q18 -27 51 -76q-6 29 -8 45q-11 43 -25 76q-10 18 -18 39 q-18 33 -43 53q-53 47 -125 47z" />
<glyph unicode="&#x201d;" horiz-adv-x="974" d="M47 1546q0 -92 19 -180q2 -16 10 -39q137 100 205 158q207 178 206 272q0 39 -36 62q-78 45 -148 45q-69 0 -147 -45q-59 -37 -84 -109t-25 -164zM84 1573q6 29 8 45q11 43 25 76q8 18 18 39q18 33 43 53q53 47 125 47l51 -4q-16 -6 -26 -10q-63 -29 -105 -64 q-33 -27 -88 -106q-18 -27 -51 -76zM506 1546q0 -92 18 -180q2 -16 11 -39q137 100 204 158q207 178 207 272q0 39 -37 62q-78 45 -147 45q-70 0 -148 -45q-59 -37 -83.5 -109t-24.5 -164zM543 1573q6 29 8 45q10 43 24 76q8 18 19 39q18 33 43 53q53 47 125 47l51 -4 q-16 -6 -27 -10q-63 -29 -104 -64q-33 -27 -88 -106q-18 -27 -51 -76z" />
<glyph unicode="&#x202f;" horiz-adv-x="488" />
<glyph unicode="&#x205f;" horiz-adv-x="610" />
<glyph unicode="&#x2122;" horiz-adv-x="1044" d="M20 1520l7 39l8 26q4 16 28 23l64 4l102 -2l60 -2l86 6l51 2q35 0 55.5 -9t26.5 -36l6 -31l2 -20l-4 -25l-14 -22q-10 -12 -27 -13l-41 10q-29 12 -43 13l-25 -6q-14 -8 -14 -35q0 -18 27 -105q12 -43 12 -67q0 -20 -7 -34.5t-26 -23.5l-28 -6l-41 -4l-60 6q-23 2 -30 15 l-13 26l-4 33q0 20 10 66l23 94l-2 16l-8 15l-13 8l-18 4q-12 0 -49 -15.5t-53 -15.5q-18 0 -31 14l-12 25zM29 1524l2 -21l8 -20l12 -13l25 -8l24 4l21 11l4 10l-4 8l-4 4l-21 -12l-18 -2l-15 2q-14 6 -24 37l-6 30l-2 -8zM328 1229l4 -8l10 -4l8 2l19 20q8 10 8 35 q0 23 -12 69l-13 35l-12 45l8 -61l10 -86l-2 -6l-12 -27zM403 1585l17 2l24 -4q16 -8 21 -14q18 -18 24 -47l7 -29l2 10l4 33q0 16 -7.5 30.5t-23.5 27t-39 12.5h-14q-12 -2 -15 -13v-8zM526 1384q0 27 2 43.5t9 47.5q12 43 36 94q10 18 29 26.5t47 8.5q41 0 66.5 -15.5 t44.5 -70.5l10 -52l10 56q16 57 45 71q27 10 52 11q35 0 59.5 -16.5t34.5 -47.5l22 -80q12 -43 13 -78q0 -33 -9.5 -71.5t-31.5 -89.5l-19 -17l-28 -4l-41 6l-35 17q-14 12 -15 30q0 25 28 77t28 65q0 16 -21 16q-23 0 -45 -48t-47 -48q-20 0 -42.5 43t-45.5 43l-16 -2 l-4 -13q0 -8 27.5 -60t27.5 -73q0 -16 -12.5 -28.5t-40 -21.5t-46.5 -9l-30 6q-10 2 -17 14q-20 33 -32.5 80t-12.5 90zM539 1352l2 -23l4 -14l8 -35l18 -35l15 -18q12 -14 24 -15q12 6 15 11l-19 10l-24 24q-18 18 -31 58zM666 1591l18 -8l25 -12l24 -29l12 -20l-8 22 l-10 19l-16 14q-2 4 -19 12l-20 6zM748 1343l2 -6l10 -8l12 -4q23 2 35 31l8 22l4 8l2 7l-20 -33q-6 -12 -17 -21l-8 -2q-14 0 -24 13zM870 1583h9l24 -2l23 -10q18 -18 30 -41l15 -25l-6 15l-7 22q-6 25 -32 41l-21 8l-22 4q-8 -2 -9 -6zM928 1235l6 -10q2 -2 10 -4l2 -2 q6 4 15 20l14 29l6 16l6 21l6 34l2 13l-10 -31l-22 -49l-11 -17q-18 -18 -24 -20z" />
<glyph unicode="&#x25fc;" horiz-adv-x="1044" d="M0 0v1044h1044v-1044h-1044z" />
</font>
</defs>
</svg>
